<?xml version="1.0" standalone="no"?>
<!DOCTYPE svg PUBLIC "-//W3C//DTD SVG 1.1//EN" "http://www.w3.org/Graphics/SVG/1.1/DTD/svg11.dtd" >
<svg xmlns="http://www.w3.org/2000/svg">
<metadata>
Created by FontPrep 20130207 at Sun Mar 19 14:05:23 2017
 By Ahover
</metadata>
<defs>
<font id="017f9c78318bcde3d1dc4451e8eaca0a" horiz-adv-x='1024' >
  <font-face 
    font-family="NanumSquareOTFL00"
    font-weight="200"
    font-stretch="normal"
    units-per-em="2048"
    panose-1="2 0 3 3 0 0 0 0 0 0"
    ascent="1638"
    descent="-410"
    x-height="1038"
    cap-height="1423"
    bbox="-154 -510 2304 1726"
    underline-thickness="102"
    underline-position="-205"
    unicode-range="U+0001-FFE6"
  />
<missing-glyph vert-adv-y="2263" 
d="M1669 -158v1577l-684 -790zM248 1477l682 -787l684 787h-1366zM195 1417v-1573l684 787zM1618 -219l-686 788l-686 -788h1372zM1751 1550v-1843h-1638v1843h1638z" />
    <glyph glyph-name=".notdef" vert-adv-y="2263" 
d="M1669 -158v1577l-684 -790zM248 1477l682 -787l684 787h-1366zM195 1417v-1573l684 787zM1618 -219l-686 788l-686 -788h1372zM1751 1550v-1843h-1638v1843h1638z" />
    <glyph glyph-name=".null" horiz-adv-x="0" vert-adv-y="0" 
 />
    <glyph glyph-name="nonmarkingreturn" horiz-adv-x="681" 
 />
    <glyph glyph-name="Korea1.1" horiz-adv-x="512" vert-adv-y="2263" 
 />
    <glyph glyph-name="Korea1.2" unicode="!" horiz-adv-x="532" vert-adv-y="2263" 
d="M313 297h-94l-6 1155h106zM195 -102v172h143v-172h-143z" />
    <glyph glyph-name="Korea1.3" unicode="&#x22;" horiz-adv-x="729" vert-adv-y="2263" 
d="M528 999h-73l-17 488h107zM274 999h-73l-17 488h107z" />
    <glyph glyph-name="Korea1.4" unicode="#" horiz-adv-x="1134" vert-adv-y="2263" 
d="M700 508l52 364h-322l-51 -364h321zM1010 508v-78h-240l-70 -483h-77l69 483h-321l-68 -483h-80l70 483h-232v78h240l51 364h-227v78h237l68 473h78l-68 -473h320l67 473h80l-69 -473h235v-78h-244l-51 -364h232z" />
    <glyph glyph-name="Korea1.5" unicode="$" horiz-adv-x="1187" vert-adv-y="2263" 
d="M215 1020q0 -100 67 -156t281 -110v565q-137 -7 -242 -71t-106 -185v-43zM997 373q0 104 -69 162q-70 57 -291 114v-598q164 10 262 87t98 186v49zM563 -190v159q-272 10 -467 156l49 70q188 -141 418 -146v617l-20 6q-279 67 -348 153q-39 47 -52 89q-12 42 -12 104v47
q0 111 68 187q122 138 364 147v139h74v-139q236 -12 389 -121l-47 -66q-154 98 -342 107v-584q264 -71 354 -143t90 -217v-53q0 -141 -118 -241q-119 -99 -326 -110v-161h-74z" />
    <glyph glyph-name="Korea1.6" unicode="%" horiz-adv-x="1724" vert-adv-y="2263" 
d="M1274 6q225 0 225 262v90q0 262 -225 263q-225 0 -225 -263v-90q0 -262 225 -262zM1274 696q145 0 226 -87t81 -247v-98q0 -160 -81 -247t-226 -87t-226 87t-81 247v98q0 160 81 247t226 87zM451 743q225 0 225 263v90q0 262 -225 262t-226 -262v-90q1 -263 226 -263z
M451 1434q145 0 226 -87t81 -247v-99q0 -161 -81 -247t-226 -86t-227 87q-81 87 -81 246v99q0 160 81 247q82 87 227 87zM463 -51h-90l895 1474h88z" />
    <glyph glyph-name="Korea1.7" unicode="&#x26;" horiz-adv-x="1333" vert-adv-y="2263" 
d="M334 1145q0 -84 69 -172q69 -89 142 -170q173 98 241 174t68 168v22q0 87 -71 145t-189 58t-188 -55q-72 -55 -72 -148v-22zM535 0q264 0 428 197l-439 508q-211 -119 -270 -173q-102 -92 -102 -221v-37q0 -114 110 -194t273 -80zM539 -76h-13q-188 0 -323 98t-135 246
v51q0 141 83 227t322 218l-41 49q-120 139 -150 201t-30 127v30q0 107 88 191t250 84t253 -84t91 -186v-39q0 -105 -74 -195t-264 -199l414 -483q117 186 120 438h80q-6 -297 -147 -501l215 -250h-100l-164 188q-184 -211 -475 -211z" />
    <glyph glyph-name="Korea1.8" unicode="'" horiz-adv-x="475" vert-adv-y="2263" 
d="M274 999h-73l-17 488h107z" />
    <glyph glyph-name="Korea1.9" unicode="(" horiz-adv-x="591" vert-adv-y="2263" 
d="M231 664v-103q0 -520 285 -909h-86q-299 356 -299 919v82q0 559 299 916h86q-285 -383 -285 -905z" />
    <glyph glyph-name="Korea1.10" unicode=")" horiz-adv-x="591" vert-adv-y="2263" 
d="M360 561v103q0 522 -284 905h86q299 -356 299 -916v-82q0 -563 -299 -919h-86q284 389 284 909z" />
    <glyph glyph-name="Korea1.11" unicode="*" horiz-adv-x="911" vert-adv-y="2263" 
d="M424 1036l-289 -180l-43 76l307 162l-307 159l43 76l289 -180l-16 344h94l-15 -344l291 180l41 -76l-307 -159l307 -162l-41 -76l-291 180l15 -342h-94z" />
    <glyph glyph-name="Korea1.12" unicode="+" horiz-adv-x="1228" vert-adv-y="2263" 
d="M569 1157h90v-459h447v-86h-447v-487h-90v487h-446v86h446v459z" />
    <glyph glyph-name="Korea1.13" unicode="," horiz-adv-x="401" vert-adv-y="2263" 
d="M80 -358l74 456h137l-121 -456h-90z" />
    <glyph glyph-name="Korea1.14" unicode="-" horiz-adv-x="827" vert-adv-y="2263" 
d="M109 639v90h610v-90h-610z" />
    <glyph glyph-name="Korea1.15" unicode="." horiz-adv-x="401" vert-adv-y="2263" 
d="M119 -90v176h164v-176h-164z" />
    <glyph glyph-name="Korea1.16" unicode="/" horiz-adv-x="704" vert-adv-y="2263" 
d="M614 1550h91l-615 -1800h-90z" />
    <glyph glyph-name="Korea1.17" unicode="0" horiz-adv-x="1208" vert-adv-y="2263" 
d="M997 569v234q0 281 -93 421t-302 140t-300 -140t-91 -421v-234q0 -283 91 -423t301 -140t302 139t92 424zM1085 801v-230q1 -323 -115 -485t-368 -162t-366 163t-113 484v230q0 319 115 482t362 163q485 0 485 -645z" />
    <glyph glyph-name="Korea1.18" unicode="1" horiz-adv-x="1208" vert-adv-y="2263" 
d="M754 -53h-90v1353l-414 -249l-41 71l491 301h54v-1476z" />
    <glyph glyph-name="Korea1.19" unicode="2" horiz-adv-x="1208" vert-adv-y="2263" 
d="M940 1069v16q0 131 -84 205t-240 74q-236 0 -370 -242l-74 43q150 281 440 281q188 0 302 -96t114 -260v-21q0 -100 -36 -178t-132 -193l-563 -665h786v-86h-909v76l623 729q92 109 117 172q26 63 26 145z" />
    <glyph glyph-name="Korea1.20" unicode="3" horiz-adv-x="1208" vert-adv-y="2263" 
d="M634 1446q172 0 288 -101q117 -101 116 -268v-20q0 -66 -22 -124q-22 -59 -84 -119q-63 -60 -162 -93q154 -27 240 -119t86 -223v-31q0 -176 -118 -300t-376 -124t-465 164l51 76q193 -156 422 -156q106 0 188 32t124 85q82 101 84 221v27q0 238 -262 291q-58 12 -117 12
h-164v82h160q121 0 223 77t102 228v16q0 127 -89 205t-245 78q-225 0 -348 -195l-71 50q55 97 161 163t278 66z" />
    <glyph glyph-name="Korea1.21" unicode="4" horiz-adv-x="1208" vert-adv-y="2263" 
d="M850 864h90v-487h229v-88h-229v-342h-90v342h-754v88l740 1046h106l-741 -1046h649v487z" />
    <glyph glyph-name="Korea1.22" unicode="5" horiz-adv-x="1208" vert-adv-y="2263" 
d="M1010 356v35q0 369 -369 369q-180 0 -315 -135h-103l47 798h738v-84h-656l-35 -624q55 55 145 92t189 37q203 0 326 -116t123 -331v-39q0 -162 -106 -290q-54 -66 -152 -105t-228 -39q-266 0 -473 164l52 76q193 -156 409 -156t312 108t96 240z" />
    <glyph glyph-name="Korea1.23" unicode="6" horiz-adv-x="1208" vert-adv-y="2263" 
d="M246 438v-12q0 -186 110 -303t274 -117q165 0 270 100t106 281v27q0 184 -96 285t-272 101t-284 -104q-108 -106 -108 -258zM686 1364q-234 0 -336 -187t-121 -542q47 113 160 179t250 65q207 0 332 -121t125 -328v-45q0 -217 -133 -339t-337 -122t-343 152t-140 459v36
q1 455 137 665t400 210q204 0 364 -100l-38 -72q-145 90 -320 90z" />
    <glyph glyph-name="Korea1.24" unicode="7" horiz-adv-x="1208" vert-adv-y="2263" 
d="M137 1339v84h967v-63l-623 -1413h-100l623 1392h-867z" />
    <glyph glyph-name="Korea1.25" unicode="8" horiz-adv-x="1208" vert-adv-y="2263" 
d="M135 313v35q0 125 78 220t217 132q-248 109 -248 349v36q0 157 120 259t302 102t302 -101t120 -260v-36q0 -125 -69 -214t-183 -135q143 -37 221 -132t78 -220v-35q0 -173 -131 -281t-338 -108t-338 108t-131 281zM221 338v-27q1 -129 103 -217t281 -88t281 88
q101 88 101 217v27q0 147 -105 236q-104 90 -276 90t-278 -88t-107 -238zM264 1073v-26q0 -133 92 -221t249 -87q157 0 248 87t91 221v26q0 127 -91 209t-251 82t-249 -82t-89 -209z" />
    <glyph glyph-name="Korea1.26" unicode="9" horiz-adv-x="1208" vert-adv-y="2263" 
d="M975 926v18q-1 190 -107 305t-274 115t-273 -100t-106 -281v-33q0 -184 96 -285q95 -101 271 -101t284 104q108 106 109 258zM535 6q242 0 344 174t112 549q-47 -113 -160 -179t-249 -65q-207 0 -332 121t-125 328v51q0 217 133 339t340 122t343 -150t136 -456v-52
q0 -486 -143 -683q-72 -97 -167 -139t-226 -42q-205 1 -365 101l39 71q145 -90 320 -90z" />
    <glyph glyph-name="Korea1.27" unicode=":" horiz-adv-x="524" vert-adv-y="2263" 
d="M176 963v184h172v-184h-172zM176 66v184h172v-184h-172z" />
    <glyph glyph-name="Korea1.28" unicode=";" horiz-adv-x="524" vert-adv-y="2263" 
d="M127 -195l74 457h137l-121 -457h-90zM176 963v184h172v-184h-172z" />
    <glyph glyph-name="Korea1.29" unicode="&#x3c;" horiz-adv-x="1208" vert-adv-y="2263" 
d="M223 662v-5l869 -458v-97l-959 516v80l959 516v-96z" />
    <glyph glyph-name="Korea1.30" unicode="=" horiz-adv-x="1208" vert-adv-y="2263" 
d="M152 393v92h905v-92h-905zM152 825v93h905v-93h-905z" />
    <glyph glyph-name="Korea1.31" unicode="&#x3e;" horiz-adv-x="1208" vert-adv-y="2263" 
d="M985 657v5l-868 456v96l958 -516v-80l-958 -516v97z" />
    <glyph glyph-name="Korea1.32" unicode="?" horiz-adv-x="1019" vert-adv-y="2263" 
d="M389 -102v172h143v-172h-143zM506 289h-90v98q0 146 144 280q60 56 121 110q144 130 144 263v39q0 135 -92 208t-229 73q-205 0 -357 -162l-59 59q170 188 412 189q192 0 304 -98t111 -267v-41q0 -86 -42 -162t-102 -132q-61 -56 -121 -109q-144 -127 -144 -256v-92z" />
    <glyph glyph-name="Korea1.33" unicode="@" horiz-adv-x="1992" vert-adv-y="2263" 
d="M688 643v-137q0 -172 74 -246t210 -74t214 82t78 211v258q0 86 -84 155t-213 69t-204 -84t-75 -234zM1539 98q-93 0 -162 45t-97 133h-2q-39 -88 -134 -131t-186 -43q-172 0 -266 104t-94 290v157q0 183 101 287t266 104q94 0 177 -36t120 -95v115h92v-676q0 -80 54 -124
t126 -44q114 0 188 100t74 318v29q0 365 -207 575t-612 211q-354 0 -568 -221t-214 -590v-35q0 -387 213 -614t608 -227q346 0 602 137l35 -78q-264 -143 -631 -143q-422 0 -669 246t-247 677v39q0 395 236 644t654 249q418 -1 653 -237q236 -236 235 -627v-29
q0 -190 -69 -337q-37 -79 -110 -126t-166 -47z" />
    <glyph glyph-name="Korea1.34" unicode="A" horiz-adv-x="1280" vert-adv-y="2263" 
d="M520 981l-182 -477h606l-176 477q-123 340 -125 346q-27 -90 -123 -346zM1151 -53l-176 477h-668l-180 -477h-98l569 1476h90l563 -1476h-100z" />
    <glyph glyph-name="Korea1.35" unicode="B" horiz-adv-x="1241" vert-adv-y="2263" 
d="M645 1341h-377v-581h387q160 0 251 66t91 198v41q0 135 -83 205t-269 71zM268 680v-651h445q350 0 350 305v49q0 149 -95 223t-311 74h-389zM180 -53v1476h457q231 0 341 -88t109 -270v-47q0 -104 -58 -184t-183 -111q309 -41 309 -334v-55q0 -387 -450 -387h-525z" />
    <glyph glyph-name="Korea1.36" unicode="C" horiz-adv-x="1251" vert-adv-y="2263" 
d="M693 -76q-290 0 -430 186t-140 517v157q0 310 142 486q141 176 411 176t457 -137l-50 -70q-94 63 -186 92t-219 29q-219 0 -341 -148t-122 -403v-205q0 -290 125 -442q126 -152 366 -152t410 150l53 -68q-186 -168 -476 -168z" />
    <glyph glyph-name="Korea1.37" unicode="D" horiz-adv-x="1327" vert-adv-y="2263" 
d="M270 1337v-1304h357q211 0 348 142t137 405v200q0 276 -126 416t-361 141h-355zM180 1423h436q285 1 437 -163t151 -469v-211q0 -301 -160 -467t-428 -166h-436v1476z" />
    <glyph glyph-name="Korea1.38" unicode="E" horiz-adv-x="1198" vert-adv-y="2263" 
d="M180 1423h862v-84h-772v-594h729v-81h-729v-633h787v-84h-877v1476z" />
    <glyph glyph-name="Korea1.39" unicode="F" horiz-adv-x="1134" vert-adv-y="2263" 
d="M180 1423h844v-84h-754v-632h711v-82h-711v-678h-90v1476z" />
    <glyph glyph-name="Korea1.40" unicode="G" horiz-adv-x="1302" vert-adv-y="2263" 
d="M1092 629h-369v86h457v-664q-52 -47 -178 -87t-289 -40q-299 0 -445 186t-145 517v157q0 310 147 486q148 176 420 176t459 -137l-49 -70q-178 121 -406 121t-353 -148q-126 -148 -126 -403v-205q0 -290 130 -442t373 -152t374 92v527z" />
    <glyph glyph-name="Korea1.41" unicode="H" horiz-adv-x="1366" vert-adv-y="2263" 
d="M1096 1423h90v-1476h-90v733h-826v-733h-90v1476h90v-659h826v659z" />
    <glyph glyph-name="Korea1.42" unicode="I" horiz-adv-x="450" vert-adv-y="2263" 
d="M180 1423h90v-1476h-90v1476z" />
    <glyph glyph-name="Korea1.43" unicode="J" horiz-adv-x="888" vert-adv-y="2263" 
d="M721 1423v-1116q0 -197 -98 -290t-279 -93t-315 105l45 71q123 -94 280 -94q276 0 277 303v1114h90z" />
    <glyph glyph-name="Korea1.44" unicode="K" horiz-adv-x="1284" vert-adv-y="2263" 
d="M270 -53h-90v1476h90v-813l785 813h123l-611 -624l647 -852h-110l-600 788l-234 -239v-549z" />
    <glyph glyph-name="Korea1.45" unicode="L" horiz-adv-x="1085" vert-adv-y="2263" 
d="M180 1423h90v-1392h766v-84h-856v1476z" />
    <glyph glyph-name="Korea1.46" unicode="M" horiz-adv-x="1671" vert-adv-y="2263" 
d="M268 -53h-88v1476h103l557 -1128l544 1128h107v-1476h-88v1317q-43 -100 -121 -252l-405 -819h-78l-416 845q-66 127 -115 242v-1333z" />
    <glyph glyph-name="Korea1.47" unicode="N" horiz-adv-x="1370" vert-adv-y="2263" 
d="M180 1423h123l735 -1251q20 -33 64 -125v1376h88v-1476h-123l-735 1251q-25 43 -64 125v-1376h-88v1476z" />
    <glyph glyph-name="Korea1.48" unicode="O" horiz-adv-x="1380" vert-adv-y="2263" 
d="M1165 594v182q0 282 -126 434t-349 152t-349 -152t-126 -434v-182q0 -282 126 -434t349 -152t349 152t126 434zM1257 778v-186q0 -301 -146 -484q-147 -184 -421 -184t-420 184t-147 484v186q0 300 146 484q147 184 421 184t421 -183q146 -184 146 -485z" />
    <glyph glyph-name="Korea1.49" unicode="P" horiz-adv-x="1185" vert-adv-y="2263" 
d="M641 1339h-371v-714h355q213 0 306 87t93 251v38q0 338 -383 338zM180 -53v1476h461q231 0 353 -106t122 -311v-45q0 -207 -124 -313t-357 -107h-365v-594h-90z" />
    <glyph glyph-name="Korea1.50" unicode="Q" horiz-adv-x="1370" vert-adv-y="2263" 
d="M1153 594v182q0 282 -124 434t-345 152t-345 -152t-124 -434v-182q0 -282 124 -434t345 -152q176 0 289 92l-221 224l61 63l221 -223q119 154 119 430zM1245 778v-186q0 -315 -149 -492l174 -172l-62 -63l-174 174q-137 -115 -350 -115q-274 0 -418 182
q-143 182 -143 486v186q0 304 143 486q144 182 418 182t418 -182q143 -183 143 -486z" />
    <glyph glyph-name="Korea1.51" unicode="R" horiz-adv-x="1251" vert-adv-y="2263" 
d="M629 1339h-359v-657h342q410 0 410 317v39q0 301 -393 301zM180 -53v1476h449q485 0 485 -381v-45q0 -299 -289 -374l326 -676h-96l-320 657q-51 -6 -112 -6h-353v-651h-90z" />
    <glyph glyph-name="Korea1.52" unicode="S" horiz-adv-x="1191" vert-adv-y="2263" 
d="M600 10q182 0 292 85t109 204v53q0 90 -29 141q-61 102 -417 177q-272 58 -347 163q-38 52 -50 97t-13 108v52q1 172 139 264t322 92q270 0 432 -119l-43 -74q-164 106 -389 107q-147 0 -259 -70t-111 -203v-47q0 -53 12 -90q29 -89 156 -142q73 -30 190 -56
q301 -70 399 -147t99 -251v-57q0 -153 -132 -263t-358 -110q-281 0 -491 156l45 76q206 -146 444 -146z" />
    <glyph glyph-name="Korea1.53" unicode="T" horiz-adv-x="1163" vert-adv-y="2263" 
d="M627 -53h-90v1392h-492v84h1073v-84h-491v-1392z" />
    <glyph glyph-name="Korea1.54" unicode="U" horiz-adv-x="1363" vert-adv-y="2263" 
d="M682 8q192 0 308 123t116 404v888h90v-917q0 -282 -137 -432t-377 -150t-377 151t-137 431v917h90v-888q0 -281 116 -404t308 -123z" />
    <glyph glyph-name="Korea1.55" unicode="V" horiz-adv-x="1257" vert-adv-y="2263" 
d="M37 1423h100l496 -1368l491 1368h97l-539 -1476h-104z" />
    <glyph glyph-name="Korea1.56" unicode="W" horiz-adv-x="1945" vert-adv-y="2263" 
d="M1782 1423h90l-414 -1476h-106l-381 1362l-377 -1362h-107l-413 1476h96l371 -1357l381 1357h102l383 -1355z" />
    <glyph glyph-name="Korea1.57" unicode="X" horiz-adv-x="1234" vert-adv-y="2263" 
d="M1157 1423l-467 -708l496 -768h-111l-448 708l-471 -708h-107l520 764l-493 712h106l449 -657l424 657h102z" />
    <glyph glyph-name="Korea1.58" unicode="Y" horiz-adv-x="1196" vert-adv-y="2263" 
d="M649 -53h-90v612l-510 864h96l461 -782l443 782h98l-498 -864v-612z" />
    <glyph glyph-name="Korea1.59" unicode="Z" horiz-adv-x="1216" vert-adv-y="2263" 
d="M1096 1423v-71l-920 -1323h959v-82h-1069v71l919 1323h-868v82h979z" />
    <glyph glyph-name="Korea1.60" unicode="[" horiz-adv-x="661" vert-adv-y="2263" 
d="M586 -270v-78h-422v1917h422v-78h-338v-1761h338z" />
    <glyph glyph-name="Korea1.61" unicode="\" horiz-adv-x="1914" vert-adv-y="2263" 
d="M969 1313l-127 -512h256zM418 723l160 -662l165 662h-325zM1198 723l168 -660l160 660h-328zM92 723v78h223l-155 622h90l149 -622h365l158 622h98l158 -622h368l152 622h84l-156 -622h229v-78h-249l-193 -776h-100l-197 776h-295l-192 -776h-101l-194 776h-242z" />
    <glyph glyph-name="Korea1.62" unicode="]" horiz-adv-x="661" vert-adv-y="2263" 
d="M76 -348v78h338v1761h-338v78h422v-1917h-422z" />
    <glyph glyph-name="Korea1.63" unicode="^" horiz-adv-x="1073" vert-adv-y="2263" 
d="M963 821h-95l-331 576l-332 -576h-94l387 662h80z" />
    <glyph glyph-name="Korea1.64" unicode="_" horiz-adv-x="942" vert-adv-y="2263" 
d="M942 -154v-88h-942v88h942z" />
    <glyph glyph-name="Korea1.65" unicode="`" horiz-adv-x="1208" vert-adv-y="2263" 
d="M760 1169h-86l-230 275h109z" />
    <glyph glyph-name="Korea1.66" unicode="a" horiz-adv-x="1064" vert-adv-y="2263" 
d="M815 264v234h-332q-147 0 -214 -60t-66 -159v-33q0 -123 80 -180q81 -58 193 -58t187 38q152 77 152 218zM454 -70q-144 0 -244 83q-99 83 -99 233v30q0 131 93 214t277 83h334v134q0 274 -291 274q-160 0 -323 -111l-43 68q174 123 359 123t285 -92t101 -258v-764h-88
v153h-2q-39 -72 -127 -121t-232 -49z" />
    <glyph glyph-name="Korea1.67" unicode="b" horiz-adv-x="1159" vert-adv-y="2263" 
d="M262 645v-371q0 -108 97 -186t250 -78t246 104t93 294v176q0 397 -340 397q-130 0 -238 -92t-108 -244zM264 1495v-635q43 88 137 144t215 57q197 0 309 -121t111 -344v-201q0 -221 -118 -343t-316 -122q-102 0 -198 41t-142 115v-139h-86v1548h88z" />
    <glyph glyph-name="Korea1.68" unicode="c" horiz-adv-x="999" vert-adv-y="2263" 
d="M123 573q-1 223 115 355t325 133q209 0 344 -103l-39 -67q-133 90 -306 90t-262 -109t-89 -292v-156q0 -190 90 -302q91 -112 281 -112t321 109l43 -68q-142 -121 -364 -121t-340 126t-119 370v147z" />
    <glyph glyph-name="Korea1.69" unicode="d" horiz-adv-x="1159" vert-adv-y="2263" 
d="M897 346v371q0 109 -97 187t-250 77q-153 0 -246 -104t-93 -293v-176q0 -397 340 -398q131 0 239 92q107 92 107 244zM897 -53v184q-43 -86 -139 -143t-217 -58q-199 0 -309 121t-109 344v201q0 221 119 343t315 122q103 0 197 -41t141 -115v590h88v-1548h-86z" />
    <glyph glyph-name="Korea1.70" unicode="e" horiz-adv-x="1116" vert-adv-y="2263" 
d="M575 8q221 0 353 109l43 -66q-143 -121 -381 -121t-352 136q-115 136 -115 356v156q0 217 119 350q118 133 324 133t318 -136t111 -368v-82h-786v-39q0 -208 97 -318t269 -110zM909 547q0 215 -89 325t-256 111q-167 0 -261 -112t-94 -304v-20h700z" />
    <glyph glyph-name="Korea1.71" unicode="f" horiz-adv-x="698" vert-adv-y="2263" 
d="M238 -53v1018h-189v73h189v164q0 305 282 305q86 0 150 -22l-13 -72q-67 19 -153 19q-176 1 -176 -234v-160h309v-73h-309v-1018h-90z" />
    <glyph glyph-name="Korea1.72" unicode="g" horiz-adv-x="1163" vert-adv-y="2263" 
d="M545 -49q-199 0 -309 121t-109 344v180q0 221 119 343t315 122q101 0 197 -41t143 -115v133h86v-1099q0 -229 -113 -337t-304 -108t-349 111l45 71q146 -102 298 -102t244 87q91 87 91 278v213q-43 -88 -138 -144t-216 -57zM901 367v350q0 109 -97 187t-250 77
q-153 0 -246 -104t-93 -293v-156q0 -397 340 -397q131 0 239 92q107 92 107 244z" />
    <glyph glyph-name="Korea1.73" unicode="h" horiz-adv-x="1165" vert-adv-y="2263" 
d="M1001 698v-751h-88v725q0 309 -305 309q-158 0 -251 -100t-93 -193v-741h-88v1548h88v-625q37 72 129 131t230 60q193 1 285 -103t93 -260z" />
    <glyph glyph-name="Korea1.74" unicode="i" horiz-adv-x="448" vert-adv-y="2263" 
d="M172 1397h104v-121h-104v121zM180 1038h88v-1091h-88v1091z" />
    <glyph glyph-name="Korea1.75" unicode="j" horiz-adv-x="442" vert-adv-y="2263" 
d="M166 1397h104v-121h-104v121zM262 1038v-1247q0 -176 -66 -236q-66 -61 -170 -61t-180 27l17 73q79 -24 161 -24t116 50t34 179v1239h88z" />
    <glyph glyph-name="Korea1.76" unicode="k" horiz-adv-x="1056" vert-adv-y="2263" 
d="M264 -53h-88v1548h88v-1020l578 563h121l-424 -409l477 -682h-105l-434 620l-213 -205v-415z" />
    <glyph glyph-name="Korea1.77" unicode="l" horiz-adv-x="440" vert-adv-y="2263" 
d="M176 1495h88v-1548h-88v1548z" />
    <glyph glyph-name="Korea1.78" unicode="m" horiz-adv-x="1759" vert-adv-y="2263" 
d="M1595 698v-751h-88v725q0 152 -60 230q-59 78 -207 79q-148 0 -229 -95t-81 -190v-749h-88v725q0 152 -62 230t-208 79q-148 0 -228 -99t-80 -194v-741h-88v1091h86v-168q98 190 324 191q252 0 319 -211q43 92 133 151t215 60q178 -1 260 -103t82 -260z" />
    <glyph glyph-name="Korea1.79" unicode="n" horiz-adv-x="1165" vert-adv-y="2263" 
d="M1001 698v-751h-88v725q0 309 -305 309q-158 0 -251 -100t-93 -193v-741h-88v1091h86v-168q37 72 130 131t231 60q193 1 285 -103t93 -260z" />
    <glyph glyph-name="Korea1.80" unicode="o" horiz-adv-x="1142" vert-adv-y="2263" 
d="M571 6q169 0 265 106t96 312v143q0 207 -95 313t-265 105q-170 0 -266 -105q-95 -105 -95 -313v-143q0 -206 95 -312t265 -106zM571 1061q213 0 331 -130t118 -364v-143q0 -234 -118 -364t-331 -130t-331 130t-117 364v143q-1 236 117 365t331 129z" />
    <glyph glyph-name="Korea1.81" unicode="p" horiz-adv-x="1159" vert-adv-y="2263" 
d="M260 645v-371q0 -108 98 -186t251 -78t246 104t93 294v176q0 397 -340 397q-132 0 -240 -92t-108 -244zM262 1038v-178q43 88 138 144t216 57q197 0 309 -121t111 -344v-201q0 -221 -118 -343t-316 -122q-102 0 -196 41t-142 115v-578h-88v1530h86z" />
    <glyph glyph-name="Korea1.82" unicode="q" horiz-adv-x="1159" vert-adv-y="2263" 
d="M899 346v371q0 109 -98 187t-251 77q-153 0 -246 -104t-93 -293v-176q0 -397 340 -398q131 0 240 92q108 92 108 244zM895 -492v623q-43 -88 -138 -144t-216 -57q-199 0 -309 121t-109 344v201q0 221 119 343t315 122q101 0 197 -41t143 -115v133h86v-1530h-88z" />
    <glyph glyph-name="Korea1.83" unicode="r" horiz-adv-x="768" vert-adv-y="2263" 
d="M264 561v-614h-88v1091h86v-211q33 98 116 166q82 68 188 68t169 -25l-26 -82q-57 20 -131 21q-152 0 -233 -115t-81 -299z" />
    <glyph glyph-name="Korea1.84" unicode="s" horiz-adv-x="1009" vert-adv-y="2263" 
d="M489 8q169 0 255 62t87 149v27q0 104 -69 148q-70 44 -258 80t-277 98q-90 62 -90 184v32q-1 117 99 195t306 78t339 -100l-37 -64q-141 86 -336 86q-137 0 -212 -52t-75 -145v-26q0 -92 77 -135t261 -78t267 -95t83 -200v-37q-1 -133 -115 -209t-278 -76
q-238 0 -405 127l43 70q166 -119 335 -119z" />
    <glyph glyph-name="Korea1.85" unicode="t" horiz-adv-x="745" vert-adv-y="2263" 
d="M240 238v727h-191v73h191v283h88v-283h309v-73h-309v-705q0 -131 34 -188q34 -58 126 -58q90 0 169 23l15 -72q-76 -27 -186 -27t-179 62q-67 62 -67 238z" />
    <glyph glyph-name="Korea1.86" unicode="u" horiz-adv-x="1155" vert-adv-y="2263" 
d="M164 293v745h88v-721q0 -309 285 -309q162 0 258 98t96 181v751h88v-1091h-86v172q-27 -59 -127 -124t-225 -65q-201 0 -289 102t-88 261z" />
    <glyph glyph-name="Korea1.87" unicode="v" horiz-adv-x="985" vert-adv-y="2263" 
d="M498 53l356 985h92l-407 -1091h-86l-414 1091h94z" />
    <glyph glyph-name="Korea1.88" unicode="w" horiz-adv-x="1517" vert-adv-y="2263" 
d="M1120 53l262 985h86l-305 -1091h-86l-317 985l-307 -985h-93l-311 1091h90l269 -985l307 985h88z" />
    <glyph glyph-name="Korea1.89" unicode="x" horiz-adv-x="993" vert-adv-y="2263" 
d="M928 1038l-371 -528l397 -563h-110l-344 504l-353 -504h-108l401 555l-370 536h104l326 -477l323 477h105z" />
    <glyph glyph-name="Korea1.90" unicode="y" horiz-adv-x="987" vert-adv-y="2263" 
d="M500 43l354 995h94l-569 -1542l-82 29l154 407l-412 1106h92z" />
    <glyph glyph-name="Korea1.91" unicode="z" horiz-adv-x="1005" vert-adv-y="2263" 
d="M889 1038v-61l-701 -957h727v-73h-835v61l700 957h-659v73h768z" />
    <glyph glyph-name="Korea1.92" unicode="{" horiz-adv-x="796" vert-adv-y="2263" 
d="M291 -92v502q0 176 -234 180v92q233 4 234 176v455q0 137 69 196q70 59 201 60h162v-78h-160q-94 0 -141 -37t-47 -135v-445q0 -199 -180 -239q180 -39 180 -240v-493q0 -98 47 -135t141 -37h160v-78h-162q-131 0 -201 59q-69 60 -69 197z" />
    <glyph glyph-name="Korea1.93" unicode="|" horiz-adv-x="548" vert-adv-y="2263" 
d="M313 1567v-1915h-77v1915h77z" />
    <glyph glyph-name="Korea1.94" unicode="}" horiz-adv-x="796" vert-adv-y="2263" 
d="M506 410v-502q0 -136 -70 -196t-200 -60h-162v78h159q94 0 142 37q47 37 47 135v493q0 201 180 240q-180 41 -180 239v445q0 98 -47 135t-142 37h-159v78h162q130 1 200 -59t70 -197v-455q0 -172 233 -176v-92q-233 -4 -233 -180z" />
    <glyph glyph-name="Korea1.95" unicode="~" horiz-adv-x="1228" vert-adv-y="2263" 
d="M412 735q-66 0 -111 -46t-61 -92t-23 -97h-78q16 125 84 217t191 92q68 0 126 -36t94 -79q97 -116 181 -114q176 0 199 235h78q-6 -53 -22 -102q-62 -207 -252 -207q-68 0 -124 36t-93 79q-95 114 -189 114z" />
    <glyph glyph-name="Korea1.208" unicode="&#xa1;" horiz-adv-x="532" vert-adv-y="2263" 
d="M229 1047h74l16 -1147h-106zM338 1446v-172h-143v172h143z" />
    <glyph glyph-name="Korea1.143" unicode="&#xa2;" horiz-adv-x="997" vert-adv-y="2263" 
d="M215 643q0 -182 84 -293t246 -121v916q-160 -8 -245 -117t-85 -285v-100zM545 -53v203q-193 10 -305 136t-111 359v92q0 215 111 347t305 141v198h82v-200q178 -14 295 -101l-39 -67q-113 76 -256 88v-914q178 14 291 109l43 -68q-127 -104 -334 -118v-205h-82z" />
    <glyph glyph-name="Korea1.144" unicode="&#xa3;" horiz-adv-x="1165" vert-adv-y="2263" 
d="M139 659v82h209v248q0 217 106 323t271 107q164 0 287 -63l-29 -72q-119 53 -248 53t-213 -82t-84 -270v-244h426v-82h-426v-249q0 -150 -30 -234t-113 -141v-4h782v-84h-903v82q98 57 136 144t38 239v247h-209z" />
    <glyph glyph-name="Korea1.214" unicode="&#xa4;" vert-adv-y="2263" 
d="M418 643q0 -219 146 -367t364 -147q218 0 364 147q148 146 148 366t-148 368t-364 149q-217 0 -364 -148q-146 -149 -146 -368zM346 644q0 196 113 347l-226 203l50 55l225 -202q170 174 421 174t423 -179l229 207l49 -55l-231 -207q113 -147 113 -342t-113 -346
l231 -205l-49 -55l-229 205q-170 -176 -423 -176t-421 172l-225 -201l-50 55l226 201q-113 153 -113 349z" />
    <glyph glyph-name="Korea1.145" unicode="&#xa5;" horiz-adv-x="1277" vert-adv-y="2263" 
d="M604 -53v334h-368v79h368v183h-368v80h342l-472 786h103l436 -752h2l420 752h104l-450 -786h342v-80h-369v-183h369v-79h-369v-334h-90z" />
    <glyph glyph-name="Korea1.155" unicode="&#xa7;" horiz-adv-x="1044" vert-adv-y="2263" 
d="M872 535q0 89 -63 142t-248 107q-35 10 -76 22t-56 17q-15 4 -36 13q-98 -32 -157 -94q-60 -62 -60 -151t62 -142t249 -107q35 -10 76 -22t62 -19l30 -10q98 31 158 93q59 62 59 151zM965 544q-1 -110 -63 -184t-165 -110q125 -80 125 -258q0 -135 -101 -218t-290 -83
t-315 78v77q156 -74 309 -74t229 58q76 56 76 154t-39 148t-145 87q-192 59 -238 74q-135 49 -200 115q-64 66 -64 174t62 182t165 110q-125 80 -125 261q0 137 96 219t265 82q170 0 293 -60v-76q-118 54 -270 54t-222 -56t-70 -155q0 -98 39 -149q39 -50 146 -87
q39 -12 120 -37t117 -36q135 -49 200 -115q65 -65 65 -175z" />
    <glyph glyph-name="Korea1.107" unicode="&#xa8;" horiz-adv-x="1415" vert-adv-y="2263" 
d="M809 1233v123h111v-123h-111zM496 1233v123h110v-123h-110z" />
    <glyph glyph-name="Korea1.98" unicode="&#xa9;" horiz-adv-x="1753" vert-adv-y="2263" 
d="M860 -68q-317 0 -527 218t-210 534t210 534t527 218q318 0 528 -217t210 -535t-211 -534q-210 -218 -527 -218zM860 6q283 0 471 195q189 195 189 485t-188 482q-188 194 -472 194q-283 0 -471 -194t-188 -484t188 -484t471 -194zM532 735q0 177 96 279t258 102
q161 0 271 -86l-43 -67q-96 69 -226 69t-197 -79t-66 -212v-106q1 -141 67 -221t199 -80t242 82l43 -70q-127 -96 -291 -96t-258 101t-95 282v102z" />
    <glyph glyph-name="Korea1.668" unicode="&#xaa;" horiz-adv-x="884" vert-adv-y="2263" 
d="M682 838v182h-258q-221 0 -221 -168v-23q0 -90 63 -136q62 -46 152 -46q90 1 177 55t87 136zM682 1190q0 213 -238 213q-122 0 -249 -90l-45 69q152 106 304 106t235 -75q83 -76 83 -209v-622h-90v110q-29 -55 -110 -91q-82 -36 -192 -36t-190 72t-79 190v27
q1 112 81 178t230 66h260v92z" />
    <glyph glyph-name="Korea1.176" unicode="&#xab;" vert-adv-y="2263" 
d="M330 618l907 -598l-61 -98l-983 651v93l968 671l70 -96zM762 621l909 -594l-59 -97l-987 643v93l970 659l68 -92z" />
    <glyph glyph-name="Korea1.194" unicode="&#xac;" vert-adv-y="2263" 
d="M1810 317v-636h-114v528h-1641v108h1755z" />
    <glyph glyph-name="Korea1.109" unicode="&#xad;" horiz-adv-x="817" vert-adv-y="2263" 
d="M817 682v-94h-817v94h817z" />
    <glyph glyph-name="Korea1.138" unicode="&#xb0;" horiz-adv-x="598" vert-adv-y="2263" 
d="M440 1247q0 63 -39 105t-102 43q-63 0 -102 -42q-39 -41 -39 -105t39 -106t102 -42t102 42t39 105zM520 1247q0 -94 -61 -157q-61 -64 -159 -64t-160 64t-62 157t61 157t159 64t161 -63q61 -64 61 -158z" />
    <glyph glyph-name="Korea1.130" unicode="&#xb1;" horiz-adv-x="1208" vert-adv-y="2263" 
d="M571 1323h86v-459h445v-82h-445v-448h-86v448h-444v82h444v459zM127 213h956v-74h-956v74z" />
    <glyph glyph-name="Korea1.843" unicode="&#xb2;" horiz-adv-x="819" vert-adv-y="2263" 
d="M594 1296v15q0 69 -48 109t-138 40q-150 0 -230 -149l-65 43q94 182 288 182q135 0 205 -60t70 -163v-17q0 -66 -32 -122t-95 -127l-336 -385h494v-80h-598v73l374 430q111 129 111 211z" />
    <glyph glyph-name="Korea1.844" unicode="&#xb3;" horiz-adv-x="819" vert-adv-y="2263" 
d="M401 1538q113 0 190 -59t77 -166v-21q0 -62 -35 -124t-123 -93q201 -41 201 -225v-21q0 -104 -76 -184t-241 -80t-290 103l43 65q123 -92 241 -92t176 53t59 135v19q1 86 -55 135t-160 49h-111v80h104q90 0 137 56q46 56 46 126v19q0 69 -52 109t-129 40
q-128 0 -208 -102l-64 45q96 133 270 133z" />
    <glyph glyph-name="Korea1.199" unicode="&#xb4;" horiz-adv-x="1208" vert-adv-y="2263" 
d="M535 1169h-84l206 275h107z" />
    <glyph glyph-name="Korea1.244" unicode="&#xb6;" horiz-adv-x="1175" vert-adv-y="2263" 
d="M610 -250v977h-123q-165 0 -281 94t-116 275q0 371 430 370h467v-1716h-67v1657h-238v-1657h-72z" />
    <glyph glyph-name="Korea1.104" unicode="&#xb7;" horiz-adv-x="862" vert-adv-y="2263" 
d="M346 530v185h172v-185h-172z" />
    <glyph glyph-name="Korea1.206" unicode="&#xb8;" horiz-adv-x="1208" vert-adv-y="2263" 
d="M680 -223q0 47 -41 61t-150 15v157h78v-94q199 -8 199 -125q0 -88 -75 -134t-247 -54v69q125 10 181 34q55 24 55 71z" />
    <glyph glyph-name="Korea1.842" unicode="&#xb9;" horiz-adv-x="819" vert-adv-y="2263" 
d="M535 582h-84v833l-244 -145l-39 69l295 181h72v-938z" />
    <glyph glyph-name="Korea1.675" unicode="&#xba;" horiz-adv-x="921" vert-adv-y="2263" 
d="M461 567q-174 0 -272 108q-97 108 -97 300v108q0 195 96 301t272 106t273 -106q96 -106 96 -301v-108q0 -193 -97 -301t-271 -107zM461 649q123 0 199 85t77 247v96q0 332 -276 332t-277 -332v-96q0 -162 77 -247t200 -85z" />
    <glyph glyph-name="Korea1.177" unicode="&#xbb;" vert-adv-y="2263" 
d="M1671 666v-93l-983 -651l-63 98l909 598l-901 623l67 96zM1237 666v-93l-987 -643l-57 97l909 596l-903 610l67 92z" />
    <glyph glyph-name="Korea1.751" unicode="&#xbc;" horiz-adv-x="1810" vert-adv-y="2263" 
d="M528 485h-84v834l-243 -145l-39 69l295 180h71v-938zM375 -135l1071 1587h100l-1071 -1587h-100zM1477 381h79v-254h146v-78h-146v-219h-79v219h-453v74l442 645h101l-449 -641h359v254z" />
    <glyph glyph-name="Korea1.748" unicode="&#xbd;" horiz-adv-x="1914" vert-adv-y="2263" 
d="M1671 559q0 70 -48 110t-138 40q-150 0 -230 -150l-65 43q94 182 289 182q135 0 205 -60t69 -163v-16q0 -66 -32 -122t-95 -128l-336 -385h494v-80h-598v74l375 430q111 129 110 211v14zM516 485h-84v834l-244 -145l-38 69l294 180h72v-938zM362 -135l1072 1587h100
l-1071 -1587h-101z" />
    <glyph glyph-name="Korea1.752" unicode="&#xbe;" horiz-adv-x="1841" vert-adv-y="2263" 
d="M412 1442q114 0 190 -60t76 -165v-21q0 -62 -35 -124t-123 -93q201 -41 201 -225v-21q0 -104 -76 -184t-241 -80t-289 102l43 66q122 -92 240 -92t176 53t59 135v19q0 86 -55 135t-160 49h-111v80h105q90 0 136 56t46 126v19q0 69 -51 109t-129 40q-129 0 -209 -102
l-64 45q96 133 271 133zM426 -135l1071 1587h100l-1071 -1587h-100zM1513 381h80v-254h146v-78h-146v-219h-80v219h-452v74l442 645h101l-449 -641h358v254z" />
    <glyph glyph-name="Korea1.209" unicode="&#xbf;" horiz-adv-x="1019" vert-adv-y="2263" 
d="M639 1446v-172h-143v172h143zM524 1055h86v-99q0 -143 -143 -279q-59 -57 -119 -111q-144 -130 -145 -263v-39q0 -135 92 -208t229 -72q205 0 357 161l59 -59q-170 -188 -412 -188q-192 0 -304 98t-111 266v41q0 86 42 163t103 132q62 54 122 108q144 128 144 257v92z
" />
    <glyph glyph-name="Korea1.666" unicode="&#xc6;" horiz-adv-x="1988" vert-adv-y="2263" 
d="M1024 504v852q-51 -113 -215 -369l-307 -483h522zM1833 1423v-84h-719v-594h676v-81h-676v-633h733v-84h-823v477h-573l-304 -477h-106l944 1476h848z" />
    <glyph glyph-name="Korea1.667" unicode="&#xd0;" horiz-adv-x="1357" vert-adv-y="2263" 
d="M301 1337v-579h426v-86h-426v-639h356q211 0 349 142q137 142 137 405v200q0 276 -126 416t-362 141h-354zM31 672v86h180v665h436q285 1 437 -163t151 -469v-211q0 -301 -160 -467t-428 -166h-436v725h-180z" />
    <glyph glyph-name="Korea1.131" unicode="&#xd7;" horiz-adv-x="1208" vert-adv-y="2263" 
d="M246 1118l368 -387l371 387l72 -74l-371 -387l371 -387l-72 -73l-371 387l-368 -387l-72 73l371 387l-371 387z" />
    <glyph glyph-name="Korea1.673" unicode="&#xd8;" horiz-adv-x="1339" vert-adv-y="2263" 
d="M1133 594v182q0 197 -68 338l-758 -952q125 -154 349 -154t350 152t127 434zM182 594q0 -217 76 -358l762 956q-126 170 -356 170t-356 -152t-126 -434v-182zM90 778q0 300 146 484t419 184q272 0 422 -182l135 170l66 -54l-152 -188q98 -168 99 -414v-186
q-1 -301 -147 -484q-146 -184 -412 -184t-416 166l-123 -153l-66 53l136 170q-106 170 -107 432v186z" />
    <glyph glyph-name="Korea1.676" unicode="&#xde;" horiz-adv-x="1177" vert-adv-y="2263" 
d="M639 1055h-369v-711h346q399 0 400 334v37q0 152 -87 246t-290 94zM180 -53v1476h90v-286h381q225 0 341 -113t116 -307v-43q0 -186 -124 -299t-333 -113h-381v-315h-90z" />
    <glyph glyph-name="Korea1.768" unicode="&#xdf;" horiz-adv-x="1167" vert-adv-y="2263" 
d="M641 758v-13q0 -59 35 -99q36 -40 162 -104t180 -118q54 -56 53 -150v-41q0 -141 -81 -222q-80 -81 -246 -81t-310 115l49 70q119 -104 265 -105q233 0 233 228v28q0 74 -45 117t-163 98t-170 109t-52 151v19q0 107 106 196q45 37 89 74q106 89 106 182v31q0 90 -62 137
t-214 47q-152 -1 -236 -83t-84 -238v-1159h-88v1145q0 232 122 323q122 92 298 92q176 1 265 -69t89 -183v-26q0 -134 -106 -230q-45 -39 -90 -74q-105 -86 -105 -167z" />
    <glyph glyph-name="Korea1.757" unicode="&#xe6;" horiz-adv-x="1804" vert-adv-y="2263" 
d="M1266 983q-162 0 -255 -111t-93 -305v-12h692q0 428 -344 428zM829 264v215h-331q-276 0 -277 -200v-33q0 -123 78 -180q79 -58 191 -58t187 38q152 77 152 218zM1280 8q217 0 348 109l43 -66q-143 -121 -389 -121q-281 0 -391 230q-53 -109 -178 -174q-102 -56 -246 -56
t-241 82t-97 234v30q0 129 91 204t276 75h333v152q0 274 -290 274q-156 0 -320 -111l-43 68q174 123 369 123q131 0 222 -55t128 -158q115 213 371 213q210 0 320 -135t110 -369v-74h-778v-63q0 -200 97 -306t265 -106z" />
    <glyph glyph-name="Korea1.759" unicode="&#xf0;" horiz-adv-x="1114" vert-adv-y="2263" 
d="M205 424q0 -416 354 -416t354 412v176q0 162 -101 272t-267 109q-340 0 -340 -416v-137zM995 424q1 -236 -113 -365t-325 -129t-325 129t-113 365v137q0 236 110 365q111 129 316 129q94 0 180 -35t135 -105q-59 207 -287 371l-280 -117l-29 74l230 96q-66 44 -181 101
l41 71q145 -78 232 -133l221 92l29 -73l-174 -74q126 -96 206 -223t104 -246t23 -272v-158z" />
    <glyph glyph-name="Korea1.132" unicode="&#xf7;" horiz-adv-x="1208" vert-adv-y="2263" 
d="M545 178v137h141v-137h-141zM545 995v138h141v-138h-141zM123 610v90h983v-90h-983z" />
    <glyph glyph-name="Korea1.766" unicode="&#xf8;" horiz-adv-x="1077" vert-adv-y="2263" 
d="M533 6q172 0 267 106t95 312v143q0 135 -45 236l-584 -690q95 -107 267 -107zM174 424q0 -143 47 -242l584 690q-92 113 -266 113q-173 0 -269 -105t-96 -313v-143zM86 424v143q0 236 118 365t327 129t329 -125l105 125l61 -49l-119 -140q76 -123 76 -305v-143
q0 -234 -118 -364q-117 -130 -323 -130t-329 119l-100 -119l-62 50l113 133q-78 121 -78 311z" />
    <glyph glyph-name="Korea1.769" unicode="&#xfe;" horiz-adv-x="1146" vert-adv-y="2263" 
d="M254 645v-371q0 -108 97 -186t250 -78t246 104t93 294v176q0 397 -340 397q-130 0 -238 -92t-108 -244zM256 1495v-635q43 88 137 144t215 57q196 0 308 -121t112 -344v-201q0 -221 -119 -343t-315 -122q-102 0 -198 41t-142 115v-578h-86v1987h88z" />
    <glyph glyph-name="Korea1.758" unicode="&#x111;" horiz-adv-x="1161" vert-adv-y="2263" 
d="M893 346v371q0 109 -97 187t-250 77q-153 0 -246 -104t-93 -293v-176q0 -397 340 -398q131 0 239 92t107 244zM555 1231v80h336v184h88v-184h141v-80h-141v-1284h-86v184q-43 -86 -139 -143t-217 -58q-199 0 -309 121t-109 344v201q0 221 119 343t315 122q103 0 197 -41
t141 -115v326h-336z" />
    <glyph glyph-name="Korea1.669" unicode="&#x126;" horiz-adv-x="1402" vert-adv-y="2263" 
d="M291 721h825v307h-825v-307zM43 1028v82h158v313h90v-313h825v313h90v-313h158v-82h-158v-1081h-90v690h-825v-690h-90v1081h-158z" />
    <glyph glyph-name="Korea1.760" unicode="&#x127;" horiz-adv-x="1226" vert-adv-y="2263" 
d="M72 1231v80h159v184h88v-184h318v-80h-318v-361q37 72 129 131t230 60q193 1 286 -103t93 -260v-751h-88v725q0 309 -305 309q-158 0 -251 -100t-94 -193v-741h-88v1284h-159z" />
    <glyph glyph-name="Korea1.761" unicode="&#x131;" horiz-adv-x="415" vert-adv-y="2263" 
d="M164 1038h88v-1091h-88v1091z" />
    <glyph glyph-name="Korea1.670" unicode="&#x132;" horiz-adv-x="1333" vert-adv-y="2263" 
d="M1165 1423v-1116q0 -197 -98 -290q-99 -93 -279 -93t-315 105l45 71q123 -94 281 -94q276 0 276 303v1114h90zM180 1423h90v-1476h-90v1476z" />
    <glyph glyph-name="Korea1.762" unicode="&#x133;" horiz-adv-x="860" vert-adv-y="2263" 
d="M592 1397h104v-121h-104v121zM688 1038v-1247q0 -176 -66 -236q-66 -61 -170 -61t-180 27l17 73q79 -24 161 -24t116 50t34 179v1239h88zM164 1397h104v-121h-104v121zM172 1038h88v-1091h-88v1091z" />
    <glyph glyph-name="Korea1.763" unicode="&#x138;" horiz-adv-x="1052" vert-adv-y="2263" 
d="M256 -53h-88v1091h88v-604l578 604h120l-440 -452l500 -639h-111l-450 575l-197 -203v-372z" />
    <glyph glyph-name="Korea1.671" unicode="&#x13f;" horiz-adv-x="1085" vert-adv-y="2263" 
d="M180 1423h90v-1392h766v-84h-856v1476zM768 657v154h154v-154h-154z" />
    <glyph glyph-name="Korea1.764" unicode="&#x140;" horiz-adv-x="835" vert-adv-y="2263" 
d="M184 1495h88v-1548h-88v1548zM510 696v174h156v-174h-156z" />
    <glyph glyph-name="Korea1.672" unicode="&#x141;" horiz-adv-x="1165" vert-adv-y="2263" 
d="M260 1423h90v-737l438 248l41 -74l-479 -272v-557h766v-84h-856v590l-190 -107l-41 74l231 131v788z" />
    <glyph glyph-name="Korea1.765" unicode="&#x142;" horiz-adv-x="563" vert-adv-y="2263" 
d="M242 1495h88v-659l182 102l41 -74l-223 -127v-790h-88v741l-185 -102l-41 73l226 127v709z" />
    <glyph glyph-name="Korea1.772" unicode="&#x149;" horiz-adv-x="1153" vert-adv-y="2263" 
d="M993 698v-751h-88v725q0 309 -305 309q-158 0 -251 -100t-93 -193v-741h-88v1091h86v-168q37 72 130 131t230 60q193 1 286 -103t93 -260zM43 1065h-74l41 365h115z" />
    <glyph glyph-name="Korea1.678" unicode="&#x14a;" horiz-adv-x="1370" vert-adv-y="2263" 
d="M180 1423h123l735 -1233q20 -33 64 -124v1357h88v-1640q0 -169 -67 -231t-174 -62t-177 25l14 77q74 -22 161 -22t121 57t34 170v119l-770 1282q-25 43 -64 125v-1376h-88v1476z" />
    <glyph glyph-name="Korea1.771" unicode="&#x14b;" horiz-adv-x="1153" vert-adv-y="2263" 
d="M993 698v-901q-1 -178 -65 -241t-193 -64q-82 0 -164 25l15 77q74 -20 164 -20t122 54q33 54 33 182v862q0 309 -305 309q-158 0 -251 -100t-93 -193v-741h-88v1091h86v-168q37 72 130 131t230 60q193 1 286 -103t93 -260z" />
    <glyph glyph-name="Korea1.674" unicode="&#x152;" horiz-adv-x="1949" vert-adv-y="2263" 
d="M215 618q0 -588 545 -587h225v1308h-213q-557 0 -557 -587v-134zM768 1423h1026v-84h-719v-594h676v-81h-676v-633h733v-84h-1040q-328 0 -486 170t-159 487v162q1 311 159 484t486 173z" />
    <glyph glyph-name="Korea1.767" unicode="&#x153;" horiz-adv-x="1886" vert-adv-y="2263" 
d="M1346 983q-160 0 -251 -105t-96 -292v-39h689q0 436 -342 436zM559 6q170 0 261 104t91 314v143q0 209 -91 313t-261 105q-170 0 -261 -104t-91 -314v-143q0 -210 91 -314t261 -104zM1360 8q215 0 346 109l43 -66q-143 -121 -387 -121q-295 0 -401 263
q-49 -123 -153 -193t-247 -70q-207 0 -325 130t-117 364v143q0 233 117 363t325 131q143 0 249 -71t151 -193q47 121 146 193t239 71q208 0 318 -136t110 -368v-82h-775v-59q5 -200 99 -304t262 -104z" />
    <glyph glyph-name="Korea1.677" unicode="&#x166;" horiz-adv-x="1163" vert-adv-y="2263" 
d="M627 -53h-90v710h-328v88h328v594h-492v84h1073v-84h-491v-594h327v-88h-327v-710z" />
    <glyph glyph-name="Korea1.770" unicode="&#x167;" horiz-adv-x="794" vert-adv-y="2263" 
d="M78 618v74h190v273h-190v73h190v283h88v-283h310v-73h-310v-273h310v-74h-310v-358q0 -131 35 -188q35 -58 125 -58t170 23l14 -72q-76 -27 -186 -27t-178 62q-68 61 -68 238v380h-190z" />
    <glyph glyph-name="Korea1.8275" unicode="&#x2bc;" horiz-adv-x="2764" vert-adv-y="2263" 
 />
    <glyph glyph-name="Korea1.201" unicode="&#x2c7;" horiz-adv-x="1208" vert-adv-y="2263" 
d="M563 1159l-198 266h77l166 -196l156 196h82l-203 -266h-80z" />
    <glyph glyph-name="Korea1.210" unicode="&#x2d0;" vert-adv-y="2263" 
d="M774 1108h318l-162 -195zM930 346l162 -192h-318z" />
    <glyph glyph-name="Korea1.202" unicode="&#x2d8;" horiz-adv-x="1208" vert-adv-y="2263" 
d="M604 1145q-106 -1 -178 69t-76 179h72q8 -76 58 -120t125 -44t124 43t57 121h72q-4 -109 -76 -179t-178 -69z" />
    <glyph glyph-name="Korea1.205" unicode="&#x2d9;" horiz-adv-x="1208" vert-adv-y="2263" 
d="M549 1233v123h110v-123h-110z" />
    <glyph glyph-name="Korea1.204" unicode="&#x2da;" horiz-adv-x="1208" vert-adv-y="2263" 
d="M604 1219q47 1 74 33t27 78t-27 75t-74 29t-75 -28q-27 -28 -27 -75t27 -80q28 -32 75 -32zM605 1155q-79 0 -129 52t-50 123t50 122t128 51t129 -51t51 -122t-50 -123t-129 -52z" />
    <glyph glyph-name="Korea1.207" unicode="&#x2db;" horiz-adv-x="1208" vert-adv-y="2263" 
d="M668 -393q-207 0 -207 143q0 125 172 221h86q-67 -47 -95 -69t-54 -61q-26 -38 -25 -81q0 -92 121 -92q55 0 100 17v-62q-41 -16 -98 -16z" />
    <glyph glyph-name="Korea1.200" unicode="&#x2dc;" horiz-adv-x="1208" vert-adv-y="2263" 
d="M483 1376q55 0 132 -43t112 -43q82 0 92 86h62q-9 -74 -53 -116t-100 -41q-56 0 -133 43t-110 43q-33 -1 -57 -25t-33 -61h-65q12 73 55 115t98 42z" />
    <glyph glyph-name="Korea1.203" unicode="&#x2dd;" horiz-adv-x="1208" vert-adv-y="2263" 
d="M629 1180l116 272h97l-133 -272h-80zM373 1180l114 272h95l-133 -272h-76z" />
    <glyph glyph-name="Korea1.471" unicode="&#x391;" horiz-adv-x="1280" vert-adv-y="2263" 
d="M520 981l-182 -477h606l-176 477q-123 340 -125 346q-27 -90 -123 -346zM1151 -53l-176 477h-668l-180 -477h-98l569 1476h90l563 -1476h-100z" />
    <glyph glyph-name="Korea1.472" unicode="&#x392;" horiz-adv-x="1241" vert-adv-y="2263" 
d="M645 1341h-377v-581h387q160 0 251 66t91 198v41q0 135 -83 205t-269 71zM268 680v-651h445q350 0 350 305v49q0 149 -95 223t-311 74h-389zM180 -53v1476h457q231 0 341 -88t109 -270v-47q0 -104 -58 -184t-183 -111q309 -41 309 -334v-55q0 -387 -450 -387h-525z" />
    <glyph glyph-name="Korea1.473" unicode="&#x393;" horiz-adv-x="1085" vert-adv-y="2263" 
d="M270 -53h-90v1476h856v-84h-766v-1392z" />
    <glyph glyph-name="Korea1.474" unicode="&#x394;" horiz-adv-x="1292" vert-adv-y="2263" 
d="M156 31h925l-456 1300zM33 -53l542 1476h101l538 -1476h-1181z" />
    <glyph glyph-name="Korea1.475" unicode="&#x395;" horiz-adv-x="1198" vert-adv-y="2263" 
d="M180 1423h862v-84h-772v-594h729v-81h-729v-633h787v-84h-877v1476z" />
    <glyph glyph-name="Korea1.476" unicode="&#x396;" horiz-adv-x="1216" vert-adv-y="2263" 
d="M1096 1423v-71l-920 -1323h959v-82h-1069v71l919 1323h-868v82h979z" />
    <glyph glyph-name="Korea1.477" unicode="&#x397;" horiz-adv-x="1366" vert-adv-y="2263" 
d="M1096 1423h90v-1476h-90v733h-826v-733h-90v1476h90v-659h826v659z" />
    <glyph glyph-name="Korea1.478" unicode="&#x398;" horiz-adv-x="1380" vert-adv-y="2263" 
d="M1165 594v182q0 282 -126 434t-349 152t-349 -152t-126 -434v-182q0 -282 126 -434t349 -152t349 152t126 434zM1257 778v-186q0 -301 -146 -484q-147 -184 -421 -184t-420 184t-147 484v186q0 300 146 484q147 184 421 184t421 -183q146 -184 146 -485zM1053 735v-92
h-705v92h705z" />
    <glyph glyph-name="Korea1.479" unicode="&#x399;" horiz-adv-x="450" vert-adv-y="2263" 
d="M180 1423h90v-1476h-90v1476z" />
    <glyph glyph-name="Korea1.480" unicode="&#x39a;" horiz-adv-x="1284" vert-adv-y="2263" 
d="M270 -53h-90v1476h90v-813l785 813h123l-611 -624l647 -852h-110l-600 788l-234 -239v-549z" />
    <glyph glyph-name="Korea1.481" unicode="&#x39b;" horiz-adv-x="1257" vert-adv-y="2263" 
d="M1221 -53h-101l-495 1368l-492 -1368h-96l538 1476h105z" />
    <glyph glyph-name="Korea1.482" unicode="&#x39c;" horiz-adv-x="1671" vert-adv-y="2263" 
d="M268 -53h-88v1476h103l557 -1128l544 1128h107v-1476h-88v1317q-43 -100 -121 -252l-405 -819h-78l-416 845q-66 127 -115 242v-1333z" />
    <glyph glyph-name="Korea1.483" unicode="&#x39d;" horiz-adv-x="1370" vert-adv-y="2263" 
d="M180 1423h123l735 -1251q20 -33 64 -125v1376h88v-1476h-123l-735 1251q-25 43 -64 125v-1376h-88v1476z" />
    <glyph glyph-name="Korea1.484" unicode="&#x39e;" horiz-adv-x="1075" vert-adv-y="2263" 
d="M965 1343h-854v80h854v-80zM156 666v79h764v-79h-764zM102 27h871v-80h-871v80z" />
    <glyph glyph-name="Korea1.485" unicode="&#x39f;" horiz-adv-x="1380" vert-adv-y="2263" 
d="M1165 594v182q0 282 -126 434t-349 152t-349 -152t-126 -434v-182q0 -282 126 -434t349 -152t349 152t126 434zM1257 778v-186q0 -301 -146 -484q-147 -184 -421 -184t-420 184t-147 484v186q0 300 146 484q147 184 421 184t421 -183q146 -184 146 -485z" />
    <glyph glyph-name="Korea1.486" unicode="&#x3a0;" horiz-adv-x="1337" vert-adv-y="2263" 
d="M1157 1423v-1476h-90v1392h-797v-1392h-90v1476h977z" />
    <glyph glyph-name="Korea1.487" unicode="&#x3a1;" horiz-adv-x="1185" vert-adv-y="2263" 
d="M641 1339h-371v-714h355q213 0 306 87t93 251v38q0 338 -383 338zM180 -53v1476h461q231 0 353 -106t122 -311v-45q0 -207 -124 -313t-357 -107h-365v-594h-90z" />
    <glyph glyph-name="Korea1.488" unicode="&#x3a3;" horiz-adv-x="1222" vert-adv-y="2263" 
d="M217 1423h848v-82h-733l436 -661l-444 -651h755v-82h-862v63l453 668l-453 688v57z" />
    <glyph glyph-name="Korea1.489" unicode="&#x3a4;" horiz-adv-x="1163" vert-adv-y="2263" 
d="M627 -53h-90v1392h-492v84h1073v-84h-491v-1392z" />
    <glyph glyph-name="Korea1.490" unicode="&#x3a5;" horiz-adv-x="1196" vert-adv-y="2263" 
d="M649 -53h-90v612l-510 864h96l461 -782l443 782h98l-498 -864v-612z" />
    <glyph glyph-name="Korea1.491" unicode="&#x3a6;" horiz-adv-x="1499" vert-adv-y="2263" 
d="M219 758v-84q0 -221 133 -332t355 -121v989q-221 -10 -355 -120q-133 -111 -133 -332zM1280 674v84q0 221 -134 332t-355 120v-989q221 10 355 120t134 333zM133 662v108q1 236 147 371t427 147v182h84v-182q279 -8 427 -145t148 -373v-108q0 -236 -148 -373t-427 -146
v-196h-84v196q-281 9 -427 145t-147 374z" />
    <glyph glyph-name="Korea1.492" unicode="&#x3a7;" horiz-adv-x="1234" vert-adv-y="2263" 
d="M1157 1423l-467 -708l496 -768h-111l-448 708l-471 -708h-107l520 764l-493 712h106l449 -657l424 657h102z" />
    <glyph glyph-name="Korea1.493" unicode="&#x3a8;" horiz-adv-x="1425" vert-adv-y="2263" 
d="M756 1382v-942q208 14 324 135t116 383v424h86v-440q0 -306 -160 -445q-144 -127 -366 -143v-407h-86v407q-223 16 -375 150t-152 438v440h86v-424q0 -262 116 -383t325 -135v942h86z" />
    <glyph glyph-name="Korea1.494" unicode="&#x3a9;" horiz-adv-x="1503" vert-adv-y="2263" 
d="M752 1446q274 0 412 -177t139 -474v-183q0 -244 -66 -376t-199 -207h404v-82h-514v94q113 70 167 128q117 125 115 445v177q0 274 -118 421q-119 148 -340 148t-340 -148t-119 -421v-177q0 -318 116 -445q54 -58 166 -128v-94h-514v82h404q-133 76 -199 208t-65 375v183
q0 297 138 474q139 177 413 177z" />
    <glyph glyph-name="Korea1.495" unicode="&#x3b1;" horiz-adv-x="1146" vert-adv-y="2263" 
d="M893 346v371q0 109 -97 187t-250 77q-153 0 -246 -104t-93 -293v-176q0 -397 340 -398q131 0 239 92t107 244zM893 -53v184q-43 -86 -139 -143t-217 -58q-199 0 -309 121t-109 344v201q0 221 119 343t315 122q103 0 197 -41t141 -115v133h88v-1091h-86z" />
    <glyph glyph-name="Korea1.496" unicode="&#x3b2;" horiz-adv-x="1107" vert-adv-y="2263" 
d="M256 1100v-834q0 -96 106 -174t271 -78q246 0 306 222q13 47 13 90v77q0 322 -415 306v84q177 2 243 88t66 233v37q0 131 -79 202t-213 71t-216 -84t-82 -240zM936 1161v-53q0 -274 -234 -348q160 -12 250 -102t90 -248v-88q0 -180 -114 -286q-115 -105 -295 -106
q-135 0 -233 48t-144 118v-588h-88v1606q0 203 111 298t289 95t274 -98q94 -98 94 -248z" />
    <glyph glyph-name="Korea1.497" unicode="&#x3b3;" horiz-adv-x="989" vert-adv-y="2263" 
d="M543 -492h-88v420l-414 1110h102l355 -989l356 989h94l-405 -1106v-424z" />
    <glyph glyph-name="Korea1.498" unicode="&#x3b4;" horiz-adv-x="1155" vert-adv-y="2263" 
d="M578 10q174 0 270 104t96 310v125q0 152 -107 256q-108 104 -247 104q-379 0 -379 -409v-76q1 -206 97 -310t270 -104zM389 1292v-10q0 -64 62 -113q38 -31 170 -108q131 -77 170 -104t95 -77t80 -92q68 -120 66 -268v-96q0 -234 -121 -364t-333 -130t-334 130
q-121 130 -121 364v76q0 250 126 366t314 117q39 0 66 -6q-182 83 -255 151t-73 148v24q0 84 81 146q82 62 238 61q156 0 287 -71l-30 -72q-121 63 -256 63q-232 0 -232 -135z" />
    <glyph glyph-name="Korea1.499" unicode="&#x3b5;" horiz-adv-x="917" vert-adv-y="2263" 
d="M532 973q-308 0 -309 -164v-16q0 -111 82 -164t207 -54h129v-88h-149q-135 0 -214 -58t-79 -169v-24q0 -94 72 -158q73 -63 216 -64q215 0 367 101l45 -66q-152 -119 -393 -119q-188 0 -293 79q-104 79 -104 231v22q0 227 262 270q-238 59 -238 254v19q1 125 107 187
t276 62t313 -63l-30 -71q-117 53 -267 53z" />
    <glyph glyph-name="Korea1.500" unicode="&#x3b6;" horiz-adv-x="866" vert-adv-y="2263" 
d="M102 449v32q0 508 582 932h-438v82h524l6 -90q-303 -239 -443 -445t-140 -483v-26q0 -173 130 -262q67 -45 133 -73t188 -67t172 -77t50 -98t-24 -102t-40 -57q-18 -14 -75 -57l-51 61q68 51 90 78t20 62q0 74 -182 121q-372 95 -464 287q-38 79 -38 182z" />
    <glyph glyph-name="Korea1.501" unicode="&#x3b7;" horiz-adv-x="1153" vert-adv-y="2263" 
d="M993 698v-1190h-88v1164q0 309 -305 309q-158 0 -251 -100t-93 -193v-741h-88v1091h86v-168q37 72 130 131t230 60q193 1 286 -103t93 -260z" />
    <glyph glyph-name="Korea1.502" unicode="&#x3b8;" horiz-adv-x="1089" vert-adv-y="2263" 
d="M213 760h664v74q0 311 -84 451t-248 140t-248 -140t-84 -451v-74zM545 8q332 0 332 602v72h-664v-72q0 -602 332 -602zM545 -74q-188 0 -305 158t-117 467v332q0 307 116 466t306 159t306 -160q116 -158 116 -465v-332q0 -309 -117 -467t-305 -158z" />
    <glyph glyph-name="Korea1.503" unicode="&#x3b9;" horiz-adv-x="471" vert-adv-y="2263" 
d="M164 119v919h90v-915q0 -59 22 -85t70 -26q49 0 86 15l19 -76q-43 -20 -109 -21q-178 0 -178 189z" />
    <glyph glyph-name="Korea1.504" unicode="&#x3ba;" horiz-adv-x="1054" vert-adv-y="2263" 
d="M256 -53h-88v1091h88v-604l578 604h120l-440 -452l500 -639h-111l-450 575l-197 -203v-372z" />
    <glyph glyph-name="Korea1.505" unicode="&#x3bb;" horiz-adv-x="991" vert-adv-y="2263" 
d="M266 1427q-29 0 -57 -14l-27 74q45 20 94 20q96 0 140 -112l534 -1448h-94l-354 995l-369 -995h-92l412 1106l-111 303q-14 41 -30 56t-46 15z" />
    <glyph glyph-name="Korea1.506" unicode="&#x3bc;" horiz-adv-x="1144" vert-adv-y="2263" 
d="M162 -492v1530h86v-721q0 -155 70 -231t241 -76q117 0 225 87t107 227v714h86v-1091h-86v168q-27 -57 -125 -119t-215 -64q-117 0 -198 42t-105 104v-570h-86z" />
    <glyph glyph-name="Korea1.507" unicode="&#x3bd;" horiz-adv-x="985" vert-adv-y="2263" 
d="M498 53l356 985h92l-407 -1091h-86l-414 1091h94z" />
    <glyph glyph-name="Korea1.508" unicode="&#x3be;" horiz-adv-x="913" vert-adv-y="2263" 
d="M195 453v-23q0 -151 98 -224q39 -30 63 -45t98 -43q73 -28 198 -67q124 -39 172 -74t48 -96t-26 -104t-46 -63q-22 -19 -69 -54l-51 61q111 74 111 140q0 74 -183 121q-116 30 -196 60t-155 80q-151 101 -151 304v37q0 297 332 350q-118 19 -198 107t-80 237v19
q0 147 98 239t288 92t322 -80l-39 -63q-100 68 -286 68q-125 0 -211 -62t-86 -190v-21q0 -135 94 -223t242 -88h135v-80h-142q-170 0 -275 -84t-105 -231z" />
    <glyph glyph-name="Korea1.509" unicode="&#x3bf;" horiz-adv-x="1142" vert-adv-y="2263" 
d="M571 6q169 0 265 106t96 312v143q0 207 -95 313t-265 105q-170 0 -266 -105q-95 -105 -95 -313v-143q0 -206 95 -312t265 -106zM571 1061q213 0 331 -130t118 -364v-143q0 -234 -118 -364t-331 -130t-331 130t-117 364v143q-1 236 117 365t331 129z" />
    <glyph glyph-name="Korea1.510" unicode="&#x3c0;" horiz-adv-x="1155" vert-adv-y="2263" 
d="M770 123v833h-385v-1009h-88v1009h-248v82h1057v-82h-248v-831q0 -117 90 -117q51 0 88 12l15 -71q-47 -18 -111 -19q-170 0 -170 193z" />
    <glyph glyph-name="Korea1.511" unicode="&#x3c1;" horiz-adv-x="1179" vert-adv-y="2263" 
d="M612 6q170 0 266 106t95 312v143q0 207 -95 313q-96 106 -266 105q-170 0 -265 -105t-95 -313v-143q0 -206 95 -312t265 -106zM612 1061q213 0 331 -130t118 -364v-143q0 -234 -118 -364t-331 -130q-123 0 -219 50t-143 141v-613h-86v1059q0 236 118 365t330 129z" />
    <glyph glyph-name="Korea1.512" unicode="&#x3c3;" horiz-adv-x="1114" vert-adv-y="2263" 
d="M567 6q169 0 265 106t96 312v121q0 207 -95 312t-265 105t-266 -104q-95 -106 -95 -313v-121q0 -206 95 -312t265 -106zM567 1038h527v-77h-267q188 -121 189 -416v-121q0 -234 -118 -364t-331 -130t-331 130t-117 364v121q-1 237 117 365t331 128z" />
    <glyph glyph-name="Korea1.513" unicode="&#x3c4;" horiz-adv-x="1073" vert-adv-y="2263" 
d="M473 956h-440v82h1007v-82h-479v-790q0 -158 125 -158q68 0 129 19l16 -72q-68 -25 -151 -25q-207 0 -207 234v792z" />
    <glyph glyph-name="Korea1.514" unicode="&#x3c5;" horiz-adv-x="1159" vert-adv-y="2263" 
d="M580 -70q-195 0 -306 120t-110 366v622h86v-596q0 -219 80 -324q80 -106 250 -106t250 106t79 324v596h86v-622q0 -246 -110 -366t-305 -120z" />
    <glyph glyph-name="Korea1.515" unicode="&#x3c6;" horiz-adv-x="1351" vert-adv-y="2263" 
d="M197 555v-119q1 -186 119 -300t319 -130v981q-199 -12 -319 -128t-119 -304zM1155 436v119q0 186 -119 302t-319 130v-981q199 18 319 133t119 297zM717 -492h-82v424q-227 10 -373 144t-147 352v135q0 227 159 363q160 135 401 135t401 -136t161 -362v-135
q0 -215 -147 -349t-373 -147v-424z" />
    <glyph glyph-name="Korea1.516" unicode="&#x3c7;" horiz-adv-x="1073" vert-adv-y="2263" 
d="M163 977q-24 0 -61 -16l-26 69q53 25 104 25t83 -26t59 -93l227 -563l297 667h94l-340 -733l281 -657q20 -49 35 -64q11 -10 35 -10t61 16l26 -69q-53 -25 -104 -25t-83 26t-58 93l-258 619l-351 -728h-94l391 795l-250 604q-21 50 -32 60q-12 10 -36 10z" />
    <glyph glyph-name="Korea1.517" unicode="&#x3c8;" horiz-adv-x="1445" vert-adv-y="2263" 
d="M766 1038v-1028q428 29 428 475v553h88v-549q0 -260 -131 -404t-385 -157v-420h-86v420q-254 12 -385 156t-131 405v549h88v-553q0 -446 428 -475v1028h86z" />
    <glyph glyph-name="Korea1.518" unicode="&#x3c9;" horiz-adv-x="1458" vert-adv-y="2263" 
d="M113 434v74q0 293 170 543l63 -35q-78 -139 -113 -247t-34 -269v-49q0 -280 95 -369q44 -41 84 -55t91 -15q90 0 154 70q63 70 63 170v514h86v-514q0 -100 64 -170t158 -70q95 0 170 70q96 89 96 369v49q0 162 -35 270t-113 246l64 35q170 -250 170 -543v-74
q0 -272 -98 -388t-244 -116q-185 1 -273 179h-2q-88 -178 -274 -179q-145 0 -244 116q-98 116 -98 388z" />
    <glyph glyph-name="Korea1.1026" unicode="&#x401;" horiz-adv-x="1198" vert-adv-y="2263" 
d="M180 1423h862v-84h-772v-594h729v-81h-729v-633h787v-84h-877v1476zM438 1575v106h90v-106h-90zM719 1575v106h90v-106h-90z" />
    <glyph glyph-name="Korea1.1020" unicode="&#x410;" horiz-adv-x="1280" vert-adv-y="2263" 
d="M520 981l-182 -477h606l-176 477q-123 340 -125 346q-27 -90 -123 -346zM1151 -53l-176 477h-668l-180 -477h-98l569 1476h90l563 -1476h-100z" />
    <glyph glyph-name="Korea1.1021" unicode="&#x411;" horiz-adv-x="1232" vert-adv-y="2263" 
d="M1022 1423v-82h-754v-563h422q465 0 465 -377v-71q0 -182 -120 -282t-341 -101h-514v1476h842zM268 698v-669h416q195 0 287 82t92 221v65q0 150 -87 226t-280 75h-428z" />
    <glyph glyph-name="Korea1.1022" unicode="&#x412;" horiz-adv-x="1241" vert-adv-y="2263" 
d="M645 1341h-377v-581h387q160 0 251 66t91 198v41q0 135 -83 205t-269 71zM268 680v-651h445q350 0 350 305v49q0 149 -95 223t-311 74h-389zM180 -53v1476h457q231 0 341 -88t109 -270v-47q0 -104 -58 -184t-183 -111q309 -41 309 -334v-55q0 -387 -450 -387h-525z" />
    <glyph glyph-name="Korea1.1023" unicode="&#x413;" horiz-adv-x="1085" vert-adv-y="2263" 
d="M270 -53h-90v1476h856v-84h-766v-1392z" />
    <glyph glyph-name="Korea1.1024" unicode="&#x414;" horiz-adv-x="1314" vert-adv-y="2263" 
d="M471 1341v-186q0 -367 -37 -621t-164 -505h764v1312h-563zM383 1423h739v-1394h123v-430h-90v348h-1008v-348h-90v430h109q158 262 191 589q26 260 26 539v266z" />
    <glyph glyph-name="Korea1.1025" unicode="&#x415;" horiz-adv-x="1198" vert-adv-y="2263" 
d="M180 1423h862v-84h-772v-594h729v-81h-729v-633h787v-84h-877v1476z" />
    <glyph glyph-name="Korea1.1027" unicode="&#x416;" horiz-adv-x="1871" vert-adv-y="2263" 
d="M891 -53v729h-80q-96 0 -161 -50t-140 -167l-334 -512h-110l397 598q94 141 184 176q-109 51 -196 254l-72 164q-48 108 -77 147q-30 39 -56 49q-26 11 -68 11q-41 0 -72 -11l-30 86q43 14 80 15q109 0 168 -45t116 -172l80 -172q9 -19 27 -59q17 -40 33 -70t22 -37
q6 -8 22 -31t28 -30t30 -20q46 -32 125 -32h84v655h90v-655h84q82 0 125 32q18 13 30 20q11 7 27 30t23 31q6 8 21 38q15 31 19 39t21 44q16 36 21 45l80 172q57 127 116 172t168 45q37 0 80 -15l-31 -86q-31 11 -89 11t-93 -42t-90 -165l-72 -164q-88 -203 -196 -254
q90 -35 184 -176l397 -598h-110l-334 512q-76 117 -140 167q-65 50 -161 50h-80v-729h-90z" />
    <glyph glyph-name="Korea1.1028" unicode="&#x417;" horiz-adv-x="1093" vert-adv-y="2263" 
d="M528 1446q197 0 314 -101t116 -268v-20q0 -66 -22 -124q-22 -59 -84 -119q-63 -60 -162 -93q154 -27 240 -119t86 -223v-31q0 -176 -118 -300t-380 -124t-469 164l51 76q193 -156 426 -156q109 0 191 32t125 85q82 101 84 221v27q0 91 -39 155t-101 94q-112 54 -239 54
h-164v82h160q121 0 223 77t102 228v16q0 127 -89 205t-249 78q-229 0 -352 -195l-72 50q55 97 163 163t259 66z" />
    <glyph glyph-name="Korea1.1029" unicode="&#x418;" horiz-adv-x="1370" vert-adv-y="2263" 
d="M1190 1423v-1476h-88v1376q-39 -82 -64 -125l-735 -1251h-123v1476h88v-1376q43 92 64 125l735 1251h123z" />
    <glyph glyph-name="Korea1.1030" unicode="&#x419;" horiz-adv-x="1370" vert-adv-y="2263" 
d="M1190 1423v-1476h-88v1376q-39 -82 -64 -125l-735 -1251h-123v1476h88v-1376q43 92 64 125l735 1251h123zM682 1479q-106 -1 -178 69t-76 178h72q8 -78 57 -124t125 -46t124 46t58 124h72q-4 -109 -76 -178t-178 -69z" />
    <glyph glyph-name="Korea1.1031" unicode="&#x41a;" horiz-adv-x="1202" vert-adv-y="2263" 
d="M180 -53v1476h90v-655h125q82 0 125 32q18 13 30 20q11 7 28 30q16 23 22 31t22 38l19 38q4 9 21 45l100 217q56 127 116 172t169 45q37 0 79 -15l-30 -86q-32 11 -90 11t-93 -42t-90 -165l-71 -164q-88 -203 -197 -254q90 -35 184 -176l398 -598h-111l-334 512
q-76 117 -140 167q-65 50 -161 50h-121v-729h-90z" />
    <glyph glyph-name="Korea1.1032" unicode="&#x41b;" horiz-adv-x="1349" vert-adv-y="2263" 
d="M387 1423h782v-1476h-90v1390h-602v-540q0 -352 -28 -478q-28 -127 -69 -175q-89 -106 -184 -154q-56 -29 -133 -56l-22 89q142 52 188 93q47 42 71 70q81 94 86 443q1 61 1 174v620z" />
    <glyph glyph-name="Korea1.1033" unicode="&#x41c;" horiz-adv-x="1671" vert-adv-y="2263" 
d="M268 -53h-88v1476h103l557 -1128l544 1128h107v-1476h-88v1317q-43 -100 -121 -252l-405 -819h-78l-416 845q-66 127 -115 242v-1333z" />
    <glyph glyph-name="Korea1.1034" unicode="&#x41d;" horiz-adv-x="1366" vert-adv-y="2263" 
d="M1096 1423h90v-1476h-90v733h-826v-733h-90v1476h90v-659h826v659z" />
    <glyph glyph-name="Korea1.1035" unicode="&#x41e;" horiz-adv-x="1380" vert-adv-y="2263" 
d="M1165 594v182q0 282 -126 434t-349 152t-349 -152t-126 -434v-182q0 -282 126 -434t349 -152t349 152t126 434zM1257 778v-186q0 -301 -146 -484q-147 -184 -421 -184t-420 184t-147 484v186q0 300 146 484q147 184 421 184t421 -183q146 -184 146 -485z" />
    <glyph glyph-name="Korea1.1036" unicode="&#x41f;" horiz-adv-x="1337" vert-adv-y="2263" 
d="M1157 1423v-1476h-90v1390h-797v-1390h-90v1476h977z" />
    <glyph glyph-name="Korea1.1037" unicode="&#x420;" horiz-adv-x="1185" vert-adv-y="2263" 
d="M641 1339h-371v-714h355q213 0 306 87t93 251v38q0 338 -383 338zM180 -53v1476h461q231 0 353 -106t122 -311v-45q0 -207 -124 -313t-357 -107h-365v-594h-90z" />
    <glyph glyph-name="Korea1.1038" unicode="&#x421;" horiz-adv-x="1251" vert-adv-y="2263" 
d="M693 -76q-290 0 -430 186t-140 517v157q0 310 142 486q141 176 411 176t457 -137l-50 -70q-94 63 -186 92t-219 29q-219 0 -341 -148t-122 -403v-205q0 -290 125 -442q126 -152 366 -152t410 150l53 -68q-186 -168 -476 -168z" />
    <glyph glyph-name="Korea1.1039" unicode="&#x422;" horiz-adv-x="1163" vert-adv-y="2263" 
d="M627 -53h-90v1392h-492v84h1073v-84h-491v-1392z" />
    <glyph glyph-name="Korea1.1040" unicode="&#x423;" horiz-adv-x="1110" vert-adv-y="2263" 
d="M35 1423h98l449 -966l399 966h96l-635 -1499l-82 29l177 407z" />
    <glyph glyph-name="Korea1.1041" unicode="&#x424;" horiz-adv-x="1458" vert-adv-y="2263" 
d="M203 758v-84q0 -225 130 -334t353 -119v987q-483 -20 -483 -450zM1255 674v84q0 428 -483 450v-987q221 10 352 119t131 334zM113 662v108q0 236 146 371t427 147v182h86v-182q279 -8 426 -145t148 -373v-108q0 -236 -148 -373t-426 -146v-196h-86v196q-281 9 -427 145
t-146 374z" />
    <glyph glyph-name="Korea1.1042" unicode="&#x425;" horiz-adv-x="1234" vert-adv-y="2263" 
d="M1157 1423l-467 -708l496 -768h-111l-448 708l-471 -708h-107l520 764l-493 712h106l449 -657l424 657h102z" />
    <glyph glyph-name="Korea1.1043" unicode="&#x426;" horiz-adv-x="1337" vert-adv-y="2263" 
d="M180 1423h90v-1390h777v1390h90v-1390h131v-434h-90v348h-998v1476z" />
    <glyph glyph-name="Korea1.1044" unicode="&#x427;" horiz-adv-x="1232" vert-adv-y="2263" 
d="M143 1423h90v-510q-1 -175 93 -247t294 -72t343 94v735h90v-1476h-90v655q-143 -98 -388 -98q-432 0 -432 418v501z" />
    <glyph glyph-name="Korea1.1045" unicode="&#x428;" horiz-adv-x="1912" vert-adv-y="2263" 
d="M180 1423h90v-1392h641v1392h90v-1392h641v1392h91v-1476h-1553v1476z" />
    <glyph glyph-name="Korea1.1046" unicode="&#x429;" horiz-adv-x="1931" vert-adv-y="2263" 
d="M180 1423h90v-1392h641v1392h90v-1392h641v1392h91v-1392h129v-432h-90v348h-1592v1476z" />
    <glyph glyph-name="Korea1.1047" unicode="&#x42a;" horiz-adv-x="1325" vert-adv-y="2263" 
d="M377 801h422q465 0 465 -377v-94q0 -182 -120 -282t-341 -101h-514v1394h-264v82h352v-622zM377 721v-692h416q195 0 287 82t91 221v88q0 150 -87 226t-279 75h-428z" />
    <glyph glyph-name="Korea1.1048" unicode="&#x42b;" horiz-adv-x="1642" vert-adv-y="2263" 
d="M268 801h422q465 0 465 -377v-94q0 -182 -120 -282t-341 -101h-514v1476h88v-622zM268 721v-692h416q195 0 287 82t92 221v88q0 150 -87 226t-280 75h-428zM1462 -53h-90v1476h90v-1476z" />
    <glyph glyph-name="Korea1.1049" unicode="&#x42c;" horiz-adv-x="1216" vert-adv-y="2263" 
d="M268 801h422q465 0 465 -377v-94q0 -182 -120 -282t-341 -101h-514v1476h88v-622zM268 721v-692h416q195 0 287 82t92 221v88q0 150 -87 226t-280 75h-428z" />
    <glyph glyph-name="Korea1.1050" unicode="&#x42d;" horiz-adv-x="1236" vert-adv-y="2263" 
d="M297 651v86h715v72q0 256 -119 403t-338 148q-127 0 -217 -29t-184 -92l-50 70q186 137 454 137t406 -175q140 -175 140 -487v-157q0 -702 -574 -703q-276 0 -462 168l53 68q169 -150 407 -150t361 152t123 442v47h-715z" />
    <glyph glyph-name="Korea1.1051" unicode="&#x42e;" horiz-adv-x="1826" vert-adv-y="2263" 
d="M1602 594v182q0 286 -117 436t-338 150t-338 -151t-117 -435v-182q0 -286 117 -436t338 -150t338 150t117 436zM1694 778v-186q0 -304 -138 -486t-409 -182q-272 0 -410 181q-137 181 -137 487v47h-330v-692h-90v1476h90v-700h330v55q0 304 137 486t409 182t410 -182
t138 -486z" />
    <glyph glyph-name="Korea1.1052" unicode="&#x42f;" horiz-adv-x="1251" vert-adv-y="2263" 
d="M981 1339h-358q-393 0 -394 -301v-39q0 -317 410 -317h342v657zM1071 1423v-1476h-90v651h-352q-59 0 -113 6l-319 -657h-97l326 676q-289 76 -289 374v45q0 381 486 381h448z" />
    <glyph glyph-name="Korea1.1053" unicode="&#x430;" horiz-adv-x="1064" vert-adv-y="2263" 
d="M815 264v234h-332q-147 0 -214 -60t-66 -159v-33q0 -123 80 -180q81 -58 193 -58t187 38q152 77 152 218zM454 -70q-144 0 -244 83q-99 83 -99 233v30q0 131 93 214t277 83h334v134q0 274 -291 274q-160 0 -323 -111l-43 68q174 123 359 123t285 -92t101 -258v-764h-88
v153h-2q-39 -72 -127 -121t-232 -49z" />
    <glyph glyph-name="Korea1.1054" unicode="&#x431;" horiz-adv-x="1130" vert-adv-y="2263" 
d="M565 6q358 0 359 436v33q0 436 -358 436t-359 -436v-33q0 -436 358 -436zM567 987q207 0 326 -133t119 -379v-33q0 -248 -115 -380t-332 -132t-332 132t-114 380v64q0 365 65 553q37 106 92 176q152 194 625 270l8 -80q-175 -29 -287 -65q-254 -83 -341 -284
q-47 -110 -64 -275q104 186 350 186z" />
    <glyph glyph-name="Korea1.1055" unicode="&#x432;" horiz-adv-x="1024" vert-adv-y="2263" 
d="M551 973h-297v-410h315q276 0 277 191v34q0 113 -75 149t-220 36zM254 487v-460h360q281 0 281 211v28q0 113 -75 167t-240 54h-326zM168 -53v1104h410q184 -1 269 -63t85 -197v-39q0 -80 -45 -140t-139 -84q109 -16 172 -79t63 -175v-30q0 -143 -96 -220t-262 -77h-457z
" />
    <glyph glyph-name="Korea1.1056" unicode="&#x433;" horiz-adv-x="802" vert-adv-y="2263" 
d="M168 1051h625v-80h-537v-1024h-88v1104z" />
    <glyph glyph-name="Korea1.1057" unicode="&#x434;" horiz-adv-x="1140" vert-adv-y="2263" 
d="M389 973v-203q0 -252 -27 -399t-131 -346h650v948h-492zM303 1051h664v-1026h100v-359h-88v281h-850v-281h-88v359h88q129 217 151 378q23 161 23 367v281z" />
    <glyph glyph-name="Korea1.1058" unicode="&#x435;" horiz-adv-x="1116" vert-adv-y="2263" 
d="M575 8q221 0 353 109l43 -66q-143 -121 -381 -121t-352 136q-115 136 -115 356v156q0 217 119 350q118 133 324 133t318 -136t111 -368v-82h-786v-39q0 -208 97 -318t269 -110zM909 547q0 215 -89 325t-256 111q-167 0 -261 -112t-94 -304v-20h700z" />
    <glyph glyph-name="Korea1.1060" unicode="&#x436;" horiz-adv-x="1509" vert-adv-y="2263" 
d="M715 -53v540h-78q-76 -1 -128 -31t-103 -106l-267 -403h-98l297 446q72 106 160 135q-106 45 -158 168l-53 127q-39 92 -72 128t-71 36t-60 -6l-14 72q27 8 83 8t102 -34t85 -126l66 -151q37 -88 88 -136t137 -49h84v486h80v-486h84q86 0 137 48t88 137l65 151
q39 92 85 126t102 34t84 -8l-15 -72q-20 6 -59 6t-72 -36t-71 -128l-54 -127q-51 -123 -157 -168q88 -29 159 -135l297 -446h-98l-266 403q-52 76 -104 107t-128 30h-77v-540h-80z" />
    <glyph glyph-name="Korea1.1061" unicode="&#x437;" horiz-adv-x="878" vert-adv-y="2263" 
d="M436 1071q164 0 258 -69t94 -197v-23q0 -209 -235 -254q125 -6 204 -70t79 -192v-22q0 -138 -106 -226t-318 -88q-213 0 -367 121l43 74q150 -115 327 -115t255 71t78 155v22q0 225 -324 225h-111v84h115q113 -1 193 57t79 164v21q0 92 -71 138q-72 46 -193 46
q-176 1 -301 -151l-59 57q125 172 360 172z" />
    <glyph glyph-name="Korea1.1062" unicode="&#x438;" horiz-adv-x="1173" vert-adv-y="2263" 
d="M168 -53v1104h86v-994q37 72 72 123l577 871h103v-1104h-86v993q-41 -76 -72 -123l-578 -870h-102z" />
    <glyph glyph-name="Korea1.1063" unicode="&#x439;" horiz-adv-x="1173" vert-adv-y="2263" 
d="M168 -53v1104h86v-994q37 72 72 123l577 871h103v-1104h-86v993q-41 -76 -72 -123l-578 -870h-102zM602 1163q-108 0 -176 66t-72 174h74q16 -160 176 -160t178 160h74q-4 -109 -75 -175t-179 -65z" />
    <glyph glyph-name="Korea1.1064" unicode="&#x43a;" horiz-adv-x="1003" vert-adv-y="2263" 
d="M168 -53v1104h80v-486h125q86 0 137 48t88 137l66 151q39 92 85 126t102 34t83 -8l-14 -72q-23 6 -61 6t-71 -36t-71 -128l-53 -127q-51 -123 -158 -168q88 -29 160 -135l297 -446h-99l-266 403q-51 76 -103 107t-128 30h-119v-540h-80z" />
    <glyph glyph-name="Korea1.1065" unicode="&#x43b;" horiz-adv-x="1155" vert-adv-y="2263" 
d="M281 1051h706v-1104h-88v1024h-530v-414q0 -305 -55 -416t-146 -158q-57 -30 -135 -49l-19 84q172 45 219 160t48 397v476z" />
    <glyph glyph-name="Korea1.1066" unicode="&#x43c;" horiz-adv-x="1366" vert-adv-y="2263" 
d="M248 -53h-80v1104h115l401 -854l397 854h117v-1104h-78v1030q-18 -59 -51 -127l-352 -741h-68l-342 712q-41 88 -59 142v-1016z" />
    <glyph glyph-name="Korea1.1067" unicode="&#x43d;" horiz-adv-x="1179" vert-adv-y="2263" 
d="M168 1051h88v-494h668v494h88v-1104h-88v530h-668v-530h-88v1104z" />
    <glyph glyph-name="Korea1.1068" unicode="&#x43e;" horiz-adv-x="1142" vert-adv-y="2263" 
d="M571 6q169 0 265 106t96 312v143q0 207 -95 313t-265 105q-170 0 -266 -105q-95 -105 -95 -313v-143q0 -206 95 -312t265 -106zM571 1061q213 0 331 -130t118 -364v-143q0 -234 -118 -364t-331 -130t-331 130t-117 364v143q-1 236 117 365t331 129z" />
    <glyph glyph-name="Korea1.1069" unicode="&#x43f;" horiz-adv-x="1146" vert-adv-y="2263" 
d="M168 1051h811v-1104h-88v1024h-635v-1024h-88v1104z" />
    <glyph glyph-name="Korea1.1070" unicode="&#x440;" horiz-adv-x="1159" vert-adv-y="2263" 
d="M260 645v-371q0 -108 98 -186t251 -78t246 104t93 294v176q0 397 -340 397q-132 0 -240 -92t-108 -244zM262 1038v-178q43 88 138 144t216 57q197 0 309 -121t111 -344v-201q0 -221 -118 -343t-316 -122q-102 0 -196 41t-142 115v-578h-88v1530h86z" />
    <glyph glyph-name="Korea1.1071" unicode="&#x441;" horiz-adv-x="999" vert-adv-y="2263" 
d="M123 573q-1 223 115 355t325 133q209 0 344 -103l-39 -67q-133 90 -306 90t-262 -109t-89 -292v-156q0 -190 90 -302q91 -112 281 -112t321 109l43 -68q-142 -121 -364 -121t-340 126t-119 370v147z" />
    <glyph glyph-name="Korea1.1072" unicode="&#x442;" horiz-adv-x="833" vert-adv-y="2263" 
d="M25 1051h784v-80h-348v-1024h-88v1024h-348v80z" />
    <glyph glyph-name="Korea1.1073" unicode="&#x443;" horiz-adv-x="987" vert-adv-y="2263" 
d="M500 43l354 995h94l-569 -1542l-82 29l154 407l-412 1106h92z" />
    <glyph glyph-name="Korea1.1074" unicode="&#x444;" horiz-adv-x="1339" vert-adv-y="2263" 
d="M207 559v-117q-1 -196 107 -308t317 -126v985q-213 -13 -319 -125t-105 -309zM1133 442v117q-1 197 -107 309t-317 125v-985q211 10 317 124t107 310zM631 1423h78v-350q243 -10 377 -143t135 -363v-133q1 -229 -135 -362t-377 -144v-393h-78v393q-242 10 -377 144
t-135 362v133q0 229 134 363t378 143v350z" />
    <glyph glyph-name="Korea1.1075" unicode="&#x445;" horiz-adv-x="993" vert-adv-y="2263" 
d="M928 1038l-371 -528l397 -563h-110l-344 504l-353 -504h-108l401 555l-370 536h104l326 -477l323 477h105z" />
    <glyph glyph-name="Korea1.1076" unicode="&#x446;" horiz-adv-x="1118" vert-adv-y="2263" 
d="M168 -53v1104h88v-1022h596v1022h88v-1022h104v-363h-88v281h-788z" />
    <glyph glyph-name="Korea1.1077" unicode="&#x447;" horiz-adv-x="1017" vert-adv-y="2263" 
d="M82 1051h80v-375q0 -114 79 -180t216 -66q211 0 321 86v535h80v-1121h-80v510q-125 -84 -306 -84t-286 80q-104 80 -104 246v369z" />
    <glyph glyph-name="Korea1.1078" unicode="&#x448;" horiz-adv-x="1583" vert-adv-y="2263" 
d="M1415 -53h-1247v1104h88v-1022h492v1022h88v-1022h491v1022h88v-1104z" />
    <glyph glyph-name="Korea1.1079" unicode="&#x449;" horiz-adv-x="1593" vert-adv-y="2263" 
d="M168 -53v1104h88v-1022h492v1022h88v-1022h491v1022h88v-1022h121v-363h-88v281h-1280z" />
    <glyph glyph-name="Korea1.1080" unicode="&#x44a;" horiz-adv-x="1085" vert-adv-y="2263" 
d="M332 524v-499h364q131 0 186 57q54 57 54 164v49q0 115 -52 172t-179 57h-373zM332 1051v-449h350q172 0 257 -68t85 -235v-55q0 -152 -85 -225t-267 -72h-428v1024h-211v80h299z" />
    <glyph glyph-name="Korea1.1081" unicode="&#x44b;" horiz-adv-x="1345" vert-adv-y="2263" 
d="M168 1051h88v-449h350q172 0 257 -68t85 -235v-55q0 -152 -85 -225t-267 -72h-428v1104zM256 524v-499h365q131 0 185 57t54 164v49q0 115 -52 172t-179 57h-373zM1090 1051h88v-1104h-88v1104z" />
    <glyph glyph-name="Korea1.1082" unicode="&#x44c;" horiz-adv-x="1009" vert-adv-y="2263" 
d="M168 1051h88v-449h350q172 0 257 -68t85 -235v-55q0 -152 -85 -225t-267 -72h-428v1104zM256 524v-499h365q131 0 185 57t54 164v49q0 115 -52 172t-179 57h-373z" />
    <glyph glyph-name="Korea1.1083" unicode="&#x44d;" horiz-adv-x="983" vert-adv-y="2263" 
d="M424 1061q209 0 325 -132t115 -356v-147q0 -244 -119 -370t-340 -126t-364 121l43 68q132 -109 322 -109t280 112t90 302v45h-510v78h510v33q0 184 -89 292t-262 109q-173 0 -306 -90l-39 67q135 103 344 103z" />
    <glyph glyph-name="Korea1.1084" unicode="&#x44e;" horiz-adv-x="1484" vert-adv-y="2263" 
d="M932 6q346 0 346 418v143q0 418 -346 418t-346 -418v-143q0 -418 346 -418zM932 1061q210 0 322 -129t112 -365v-143q0 -236 -112 -365t-322 -129t-323 129q-112 129 -111 365v43h-242v-520h-88v1104h88v-506h242v22q0 236 111 365q112 129 323 129z" />
    <glyph glyph-name="Korea1.1085" unicode="&#x44f;" horiz-adv-x="1067" vert-adv-y="2263" 
d="M811 973h-313q-289 0 -289 -209v-19q1 -119 67 -176t238 -57h297v461zM899 1051v-1104h-88v487h-299q-55 0 -97 -32t-85 -121l-162 -334h-102l178 358q59 123 125 148q-250 47 -250 288v27q0 145 105 214t257 69h418z" />
    <glyph glyph-name="Korea1.1059" unicode="&#x451;" horiz-adv-x="1116" vert-adv-y="2263" 
d="M575 8q221 0 353 109l43 -66q-143 -121 -381 -121t-352 136q-115 136 -115 356v156q0 217 119 350q118 133 324 133t318 -136t111 -368v-82h-786v-39q0 -208 97 -318t269 -110zM909 547q0 215 -89 325t-256 111q-167 0 -261 -112t-94 -304v-20h700zM641 1233v106h90v-106
h-90zM360 1233v106h91v-106h-91z" />
    <glyph glyph-name="Korea1.97" unicode="&#x2010;" horiz-adv-x="854" vert-adv-y="2263" 
d="M78 545v100h698v-100h-698z" />
    <glyph glyph-name="Korea1.110" unicode="&#x2014;" horiz-adv-x="1634" vert-adv-y="2263" 
d="M1634 682v-94h-1634v94h1634z" />
    <glyph glyph-name="Korea1.111" unicode="&#x2016;" vert-adv-y="2263" 
d="M1169 1597v-1966h-116v1966h116zM809 1597v-1966h-115v1966h115z" />
    <glyph glyph-name="Korea1.114" unicode="&#x2018;" horiz-adv-x="409" vert-adv-y="2263" 
d="M332 1575l-88 -451h-115l133 451h70z" />
    <glyph glyph-name="Korea1.115" unicode="&#x2019;" horiz-adv-x="409" vert-adv-y="2263" 
d="M78 1098l88 450h115l-134 -450h-69z" />
    <glyph glyph-name="Korea1.8238" unicode="&#x201b;" horiz-adv-x="2764" vert-adv-y="2263" 
 />
    <glyph glyph-name="Korea1.116" unicode="&#x201c;" horiz-adv-x="716" vert-adv-y="2263" 
d="M346 1575l-86 -451h-121l133 451h74zM625 1575l-86 -451h-121l133 451h74z" />
    <glyph glyph-name="Korea1.117" unicode="&#x201d;" horiz-adv-x="716" vert-adv-y="2263" 
d="M371 1098l86 450h121l-134 -450h-73zM92 1098l86 450h121l-133 -450h-74z" />
    <glyph glyph-name="Korea1.8237" unicode="&#x201f;" horiz-adv-x="2764" vert-adv-y="2263" 
 />
    <glyph glyph-name="Korea1.245" unicode="&#x2020;" horiz-adv-x="1013" vert-adv-y="2263" 
d="M461 -186v1106h-326v75h326v422h88v-422h330v-75h-330v-1106h-88z" />
    <glyph glyph-name="Korea1.246" unicode="&#x2021;" horiz-adv-x="1013" vert-adv-y="2263" 
d="M135 236v75h326v609h-326v75h326v422h88v-422h330v-75h-330v-609h330v-75h-330v-422h-88v422h-326z" />
    <glyph glyph-name="Korea1.8607" unicode="&#x2022;" horiz-adv-x="1802" vert-adv-y="2263" 
 />
    <glyph glyph-name="Korea1.105" unicode="&#x2025;" vert-adv-y="2263" 
d="M1143 530v185h172v-185h-172zM547 530v185h172v-185h-172z" />
    <glyph glyph-name="Korea1.106" unicode="&#x2026;" vert-adv-y="2263" 
d="M846 530v185h172v-185h-172zM1391 530v185h172v-185h-172zM301 530v185h172v-185h-172z" />
    <glyph glyph-name="Korea1.216" unicode="&#x2030;" horiz-adv-x="2447" vert-adv-y="2263" 
d="M1997 6q225 0 225 262v90q0 262 -225 263q-225 0 -225 -263v-90q0 -262 225 -262zM1997 696q145 0 226 -87t81 -247v-98q0 -160 -81 -247t-226 -87t-227 87q-81 87 -80 247v98q0 160 80 247q82 87 227 87zM1274 6q225 0 225 262v90q0 262 -225 263q-225 0 -225 -263v-90
q0 -262 225 -262zM1274 696q145 0 226 -87t81 -247v-98q0 -160 -81 -247t-226 -87t-226 87t-81 247v98q0 160 81 247t226 87zM451 743q225 0 225 263v90q0 262 -225 262t-226 -262v-90q1 -263 226 -263zM451 1434q145 0 226 -87t81 -247v-99q0 -161 -81 -247t-226 -86
t-227 87q-81 87 -81 246v99q0 160 81 247q82 87 227 87zM463 -51h-90l895 1474h88z" />
    <glyph glyph-name="Korea1.139" unicode="&#x2032;" horiz-adv-x="995" vert-adv-y="2263" 
d="M328 1006l209 483h131l-269 -483h-71z" />
    <glyph glyph-name="Korea1.140" unicode="&#x2033;" horiz-adv-x="1198" vert-adv-y="2263" 
d="M307 1006l209 483h121l-268 -483h-62zM561 1006l209 483h121l-268 -483h-62z" />
    <glyph glyph-name="Korea1.8582" unicode="&#x2034;" horiz-adv-x="2521" vert-adv-y="2263" 
 />
    <glyph glyph-name="Korea1.9326" unicode="&#x2035;" horiz-adv-x="1802" vert-adv-y="2263" 
 />
    <glyph glyph-name="Korea1.9324" unicode="&#x2036;" horiz-adv-x="1802" vert-adv-y="2263" 
 />
    <glyph glyph-name="Korea1.8612" unicode="&#x2039;" horiz-adv-x="1802" vert-adv-y="2263" 
 />
    <glyph glyph-name="Korea1.8613" unicode="&#x203a;" horiz-adv-x="1802" vert-adv-y="2263" 
 />
    <glyph glyph-name="Korea1.156" unicode="&#x203b;" vert-adv-y="2263" 
d="M1432 659q0 53 35 90q36 35 87 35t87 -36t36 -88q0 -54 -36 -90t-87 -36t-87 36q-35 36 -35 89zM811 1262q0 53 36 89q36 35 87 35t87 -36t36 -88q0 -54 -36 -90t-87 -36t-87 37q-36 36 -36 89zM811 53q0 53 36 89t87 36t87 -36t36 -89t-36 -89t-87 -36t-87 36t-36 89z
M190 659q0 53 36 89t87 36t87 -36t36 -88q0 -54 -36 -90t-87 -36t-87 36t-36 89zM289 1382l643 -661l655 661l60 -61l-654 -662l656 -661q-10 -12 -35 -35t-35 -35l-647 666l-649 -666l-62 64l651 665l-647 658z" />
    <glyph glyph-name="Korea1.8763" unicode="&#x203c;" horiz-adv-x="1802" vert-adv-y="2263" 
 />
    <glyph glyph-name="Korea1.357" unicode="&#x203e;" vert-adv-y="2263" 
d="M1853 1561v-80h-1843v80h1843z" />
    <glyph glyph-name="Korea1.8599" unicode="&#x2042;" horiz-adv-x="1802" vert-adv-y="2263" 
 />
    <glyph glyph-name="Korea1.845" unicode="&#x2074;" horiz-adv-x="819" vert-adv-y="2263" 
d="M518 1133h80v-254h145v-78h-145v-219h-80v219h-452v73l442 646h100l-448 -641h358v254z" />
    <glyph glyph-name="Korea1.8239" unicode="&#x207a;" horiz-adv-x="2764" vert-adv-y="2263" 
 />
    <glyph glyph-name="Korea1.8240" unicode="&#x207b;" horiz-adv-x="2764" vert-adv-y="2263" 
 />
    <glyph glyph-name="Korea1.8248" unicode="&#x207c;" horiz-adv-x="2764" vert-adv-y="2263" 
 />
    <glyph glyph-name="Korea1.8250" unicode="&#x207d;" horiz-adv-x="2764" vert-adv-y="2263" 
 />
    <glyph glyph-name="Korea1.8251" unicode="&#x207e;" horiz-adv-x="2764" vert-adv-y="2263" 
 />
    <glyph glyph-name="Korea1.846" unicode="&#x207f;" horiz-adv-x="933" vert-adv-y="2263" 
d="M487 1489q171 0 251 -83t81 -220v-604h-90v581q0 242 -242 242q-117 0 -193 -79t-75 -152v-592h-86v888h88v-129q95 148 266 148z" />
    <glyph glyph-name="Korea1.847" unicode="&#x2081;" horiz-adv-x="819" vert-adv-y="2263" 
d="M535 -229h-84v833l-244 -145l-39 69l295 181h72v-938z" />
    <glyph glyph-name="Korea1.848" unicode="&#x2082;" horiz-adv-x="819" vert-adv-y="2263" 
d="M594 485v15q0 70 -48 110t-138 39q-150 0 -230 -149l-65 43q94 182 288 182q135 0 205 -60t70 -163v-17q0 -65 -32 -121t-95 -128l-336 -386h494v-79h-598v73l374 430q111 129 111 211z" />
    <glyph glyph-name="Korea1.849" unicode="&#x2083;" horiz-adv-x="819" vert-adv-y="2263" 
d="M401 725q113 0 190 -59t77 -166v-21q0 -61 -35 -123t-123 -94q201 -41 201 -225v-21q0 -104 -76 -184t-241 -80t-290 103l43 65q123 -92 241 -92t176 53t59 135v19q1 86 -55 135t-160 49h-111v80h104q90 0 137 56q46 56 46 126v19q0 70 -52 110t-129 39q-128 0 -208 -102
l-64 45q96 133 270 133z" />
    <glyph glyph-name="Korea1.850" unicode="&#x2084;" horiz-adv-x="819" vert-adv-y="2263" 
d="M518 322h80v-254h145v-78h-145v-219h-80v219h-452v73l442 646h100l-448 -641h358v254z" />
    <glyph glyph-name="Korea1.96" unicode="&#x20a9;" horiz-adv-x="1914" vert-adv-y="2263" 
d="M969 1313l-127 -512h256zM418 723l160 -662l165 662h-325zM1198 723l168 -660l160 660h-328zM92 723v78h223l-155 622h90l149 -622h365l158 622h98l158 -622h368l152 622h84l-156 -622h229v-78h-249l-193 -776h-100l-197 776h-295l-192 -776h-101l-194 776h-242z" />
    <glyph glyph-name="Korea1.141" unicode="&#x2103;" horiz-adv-x="1570" vert-adv-y="2263" 
d="M1067 -76q-567 0 -567 703v157q0 310 138 486t398 176t447 -137l-49 -72q-94 63 -182 92t-210 29q-214 0 -332 -146t-118 -403v-205q0 -292 122 -442t352 -150t400 150l54 -70q-186 -168 -453 -168zM297 1096q-84 0 -133 50t-49 128t49 128t133 50t133 -50t49 -128
t-49 -128t-133 -50zM297 1157q53 0 84 33t31 85t-31 85t-84 33t-84 -33t-31 -85t31 -85t84 -33z" />
    <glyph glyph-name="Korea1.215" unicode="&#x2109;" horiz-adv-x="1669" vert-adv-y="2263" 
d="M317 1096q-84 0 -133 50t-49 128t49 128t133 50q83 0 133 -50t50 -128t-50 -128t-133 -50zM668 1423h843v-84h-753v-632h710v-82h-710v-678h-90v1476zM317 1157q53 0 84 33t31 85t-31 85t-84 33t-84 -33t-31 -85t32 -85q30 -33 83 -33z" />
    <glyph glyph-name="Korea1.590" unicode="&#x2113;" vert-adv-y="2263" 
d="M842 1042v-712q122 29 200 169t78 382v161q0 238 -65 290q-29 24 -74 24q-89 0 -117 -95q-22 -75 -22 -219zM977 -70q-78 0 -149 50t-70 157v920q0 389 223 389q129 0 177 -104t48 -285v-174q0 -270 -90 -424t-274 -226v-49q0 -80 38 -121t105 -40q107 0 160 61l45 -68
q-59 -86 -213 -86z" />
    <glyph glyph-name="Korea1.258" unicode="&#x2116;" horiz-adv-x="1884" vert-adv-y="2263" 
d="M1106 -53v104h584v-104h-584zM1163 594q-1 -156 55 -232t178 -75q122 -1 177 75t55 232v59q0 154 -55 229q-55 74 -177 74t-177 -74t-56 -229v-59zM184 1423h115l508 -1259q12 -39 20 -72v1331h91v-1476h-115l-508 1259q-14 35 -21 72v-1331h-90v1476zM1073 662
q0 382 323 382t322 -382v-78q0 -381 -322 -381t-323 381v78z" />
    <glyph glyph-name="Korea1.263" unicode="&#x2121;" horiz-adv-x="2146" vert-adv-y="2263" 
d="M1579 1051h90v-1022h453v-82h-543v1104zM512 -53h-88v1394h-399v82h895v-82h-408v-1394zM829 1051h560v-82h-469v-410h426v-82h-426v-448h483v-82h-574v1104z" />
    <glyph glyph-name="Korea1.260" unicode="&#x2122;" horiz-adv-x="1468" vert-adv-y="2263" 
d="M293 756v594h-232v73h541v-73h-231v-594h-78zM698 756v667h115l215 -454h2l209 454h117v-667h-76v585h-2l-209 -450h-80l-215 450h-2v-585h-74z" />
    <glyph glyph-name="Korea1.643" unicode="&#x2126;" vert-adv-y="2263" 
d="M932 1364q-240 0 -371 -150t-131 -419v-193q0 -410 324 -573v-82h-549v76h436q-301 184 -301 589v187q0 289 157 468t435 179t436 -179q156 -179 156 -468v-187q0 -406 -301 -589h436v-76h-549v82q324 164 324 573v193q0 269 -131 419t-371 150z" />
    <glyph glyph-name="Korea1.142" unicode="&#x212b;" horiz-adv-x="1316" vert-adv-y="2263" 
d="M662 1399q54 0 84 33t30 85t-31 85q-31 32 -83 32t-84 -32q-31 -32 -31 -85q0 -52 31 -85t84 -33zM539 981l-183 -477h607l-177 477q-123 340 -124 346q-27 -90 -123 -346zM844 1516q0 -127 -111 -166l537 -1403h-101l-176 477h-667l-181 -477h-98l541 1403
q-109 39 -109 166q0 78 49 128q50 50 134 50t133 -50t49 -128z" />
    <glyph glyph-name="Korea1.749" unicode="&#x2153;" horiz-adv-x="1884" vert-adv-y="2263" 
d="M1464 786q113 0 190 -59t77 -166v-20q0 -61 -35 -123t-123 -94q201 -41 201 -226v-20q0 -104 -76 -184t-241 -80t-290 102l43 66q123 -92 241 -92t176 52q58 54 59 136v18q0 86 -56 135t-160 50h-110v79h104q90 0 136 56t47 127v18q1 70 -51 110t-130 40
q-129 -1 -209 -103l-63 45q96 133 270 133zM530 485h-84v834l-243 -145l-39 69l295 180h71v-938zM381 -135l1071 1587h100l-1071 -1587h-100z" />
    <glyph glyph-name="Korea1.750" unicode="&#x2154;" horiz-adv-x="1949" vert-adv-y="2263" 
d="M1536 786q114 0 190 -59t76 -166v-20q0 -61 -35 -123t-122 -94q201 -41 200 -226v-20q0 -104 -76 -184q-77 -80 -241 -80t-289 102l43 66q123 -92 241 -92t176 52q58 54 58 136v18q0 86 -55 135t-160 50h-110v79h104q90 0 136 56t46 127v18q0 70 -51 110t-129 40
q-129 -1 -209 -103l-63 45q96 133 270 133zM631 1200v14q0 70 -48 110t-139 40q-150 0 -229 -150l-65 43q94 182 288 183q135 0 205 -60t70 -163v-17q0 -66 -32 -122t-95 -128l-336 -385h493v-80h-598v74l375 430q111 129 111 211zM467 -135l1071 1587h100l-1071 -1587h-100
z" />
    <glyph glyph-name="Korea1.753" unicode="&#x215b;" horiz-adv-x="1929" vert-adv-y="2263" 
d="M535 485h-84v834l-244 -145l-39 69l295 180h72v-938zM381 -135l1071 1587h100l-1071 -1587h-100zM1180 68v20q0 80 51 141t137 82q-156 68 -156 211v25q0 102 76 170q76 67 195 67t195 -68t77 -169v-25q0 -145 -164 -211q87 -23 139 -83t52 -140v-20q0 -115 -83 -184
q-83 -68 -218 -68t-218 68t-83 184zM1264 84v-16q0 -78 59 -127t159 -49t157 48q58 48 59 128v16q0 86 -60 137t-156 51q-94 0 -156 -52t-62 -136zM1292 543v-13q0 -78 52 -129t139 -51q86 0 139 51t53 129v13q0 72 -53 119t-140 47q-86 0 -138 -47t-52 -119z" />
    <glyph glyph-name="Korea1.754" unicode="&#x215c;" horiz-adv-x="1957" vert-adv-y="2263" 
d="M1204 68v20q0 80 51 141t138 82q-156 68 -156 211v25q0 102 76 170q77 67 195 67t195 -68t77 -169v-25q0 -145 -164 -211q86 -23 138 -83t52 -140v-20q0 -115 -83 -184q-83 -68 -218 -68t-218 68t-83 184zM1288 84v-16q0 -78 60 -127t158 -49q100 0 158 48t58 128v16
q0 86 -60 137t-156 51t-156 -52q-62 -52 -62 -136zM1317 543v-13q0 -78 52 -129t138 -51t140 51q53 51 53 129v13q0 72 -53 119t-141 47t-138 -47q-51 -47 -51 -119zM401 1442q113 0 190 -60t77 -165v-21q0 -62 -35 -124t-123 -93q201 -41 201 -225v-21q0 -104 -76 -184
t-241 -80t-290 102l43 66q123 -92 241 -92t176 53t59 135v19q1 86 -55 135t-160 49h-111v80h104q90 0 137 56q46 56 46 126v19q0 69 -52 109t-129 40q-128 0 -208 -102l-64 45q96 133 270 133zM416 -135l1071 1587h100l-1071 -1587h-100z" />
    <glyph glyph-name="Korea1.755" unicode="&#x215d;" horiz-adv-x="1925" vert-adv-y="2263" 
d="M1180 68v20q0 80 51 141t137 82q-156 68 -156 211v25q0 102 76 170q76 67 195 67t195 -68t77 -169v-25q0 -145 -164 -211q87 -23 139 -83t52 -140v-20q0 -115 -83 -184q-83 -68 -218 -68t-218 68t-83 184zM1264 84v-16q0 -78 59 -127t159 -49t157 48q58 48 59 128v16
q0 86 -60 137t-156 51q-94 0 -156 -52t-62 -136zM1292 543v-13q0 -78 52 -129t139 -51q86 0 139 51t53 129v13q0 72 -53 119t-140 47q-86 0 -138 -47t-52 -119zM391 -135l1071 1587h101l-1071 -1587h-101zM625 760v20q0 211 -209 211q-117 0 -203 -76h-63l30 508h469v-73
h-395l-18 -344q70 59 198 59t201 -78q72 -78 72 -203v-20q0 -137 -81 -215t-238 -78t-294 109l43 63q121 -96 255 -96q134 1 184 65t49 148z" />
    <glyph glyph-name="Korea1.756" unicode="&#x215e;" horiz-adv-x="1779" vert-adv-y="2263" 
d="M1020 68v20q0 80 51 141t137 82q-156 68 -155 211v25q0 102 75 170q76 67 195 67t196 -68t76 -169v-25q0 -145 -163 -211q86 -23 138 -83t52 -140v-20q0 -115 -83 -184q-83 -68 -218 -68t-218 68t-83 184zM1104 84v-16q0 -78 59 -127t159 -49t158 48t58 128v16
q0 86 -60 137t-156 51t-156 -52q-62 -52 -62 -136zM1133 543v-13q0 -78 52 -129t138 -51t139 51t54 129v13q0 72 -54 119t-140 47q-87 0 -138 -47t-51 -119zM231 -135l1072 1587h100l-1071 -1587h-101zM102 1354v69h611v-57l-377 -881h-88l375 869h-521z" />
    <glyph glyph-name="Korea1.461" unicode="&#x2160;" vert-adv-y="2263" 
d="M887 1423h90v-1476h-90v1476z" />
    <glyph glyph-name="Korea1.462" unicode="&#x2161;" vert-adv-y="2263" 
d="M1133 1423h90v-1476h-90v1476zM641 1423h90v-1476h-90v1476z" />
    <glyph glyph-name="Korea1.463" unicode="&#x2162;" vert-adv-y="2263" 
d="M410 1423h90v-1476h-90v1476zM1364 1423h90v-1476h-90v1476zM887 1423h90v-1476h-90v1476z" />
    <glyph glyph-name="Korea1.464" unicode="&#x2163;" vert-adv-y="2263" 
d="M690 1423h98l396 -1368l379 1368h94l-424 -1476h-105zM416 1423h90v-1476h-90v1476z" />
    <glyph glyph-name="Korea1.465" unicode="&#x2164;" vert-adv-y="2263" 
d="M338 1423h100l496 -1368l491 1368h97l-539 -1476h-104z" />
    <glyph glyph-name="Korea1.466" unicode="&#x2165;" vert-adv-y="2263" 
d="M205 1423h98l395 -1368l379 1368h94l-423 -1476h-105zM1356 1423h90v-1476h-90v1476z" />
    <glyph glyph-name="Korea1.467" unicode="&#x2166;" vert-adv-y="2263" 
d="M1520 1423h90v-1476h-90v1476zM109 1423h96l346 -1370l340 1370h92l-383 -1476h-104zM1149 1423h90v-1476h-90v1476z" />
    <glyph glyph-name="Korea1.468" unicode="&#x2167;" vert-adv-y="2263" 
d="M1573 1423h90v-1476h-90v1476zM1251 1423h90v-1476h-90v1476zM123 1423h92l256 -1370l250 1370h88l-285 -1476h-112zM930 1423h90v-1476h-90v1476z" />
    <glyph glyph-name="Korea1.469" unicode="&#x2168;" vert-adv-y="2263" 
d="M1645 1423l-385 -708l421 -768h-104l-379 710l-373 -710h-104l418 764l-400 712h101l358 -659l346 659h101zM442 1423h90v-1476h-90v1476z" />
    <glyph glyph-name="Korea1.470" unicode="&#x2169;" vert-adv-y="2263" 
d="M1462 1423l-467 -708l504 -768h-106l-459 710l-465 -710h-107l512 764l-493 712h102l451 -659l426 659h102z" />
    <glyph glyph-name="Korea1.451" unicode="&#x2170;" vert-adv-y="2263" 
d="M881 1397h104v-121h-104v121zM889 1038h88v-1091h-88v1091z" />
    <glyph glyph-name="Korea1.452" unicode="&#x2171;" vert-adv-y="2263" 
d="M1141 1397h104v-121h-104v121zM1149 1038h88v-1091h-88v1091zM618 1397h105v-121h-105v121zM627 1038h88v-1091h-88v1091z" />
    <glyph glyph-name="Korea1.453" unicode="&#x2172;" vert-adv-y="2263" 
d="M1346 1397h104v-121h-104v121zM1354 1038h88v-1091h-88v1091zM881 1397h104v-121h-104v121zM889 1038h88v-1091h-88v1091zM414 1397h104v-121h-104v121zM422 1038h88v-1091h-88v1091z" />
    <glyph glyph-name="Korea1.454" unicode="&#x2173;" vert-adv-y="2263" 
d="M1139 53l278 985h88l-327 -1091h-82l-334 1091h90zM479 1397h105v-121h-105v121zM487 1038h88v-1091h-88v1091z" />
    <glyph glyph-name="Korea1.455" unicode="&#x2174;" vert-adv-y="2263" 
d="M936 53l356 985h92l-407 -1091h-86l-414 1091h94z" />
    <glyph glyph-name="Korea1.456" unicode="&#x2175;" vert-adv-y="2263" 
d="M735 53l279 985h88l-328 -1091h-82l-334 1091h91zM1286 1397h105v-121h-105v121zM1294 1038h88v-1091h-88v1091z" />
    <glyph glyph-name="Korea1.457" unicode="&#x2176;" vert-adv-y="2263" 
d="M1497 1397h105v-121h-105v121zM1505 1038h88v-1091h-88v1091zM571 53l279 985h88l-328 -1091h-82l-333 1091h90zM1122 1397h105v-121h-105v121zM1130 1038h89v-1091h-89v1091z" />
    <glyph glyph-name="Korea1.458" unicode="&#x2177;" vert-adv-y="2263" 
d="M1575 1397h104v-121h-104v121zM1583 1038h88v-1091h-88v1091zM1272 1397h104v-121h-104v121zM1280 1038h88v-1091h-88v1091zM483 53l252 985h88l-301 -1091h-82l-307 1091h90zM969 1397h104v-121h-104v121zM977 1038h88v-1091h-88v1091z" />
    <glyph glyph-name="Korea1.459" unicode="&#x2178;" vert-adv-y="2263" 
d="M1520 1038l-299 -528l325 -563h-100l-283 508l-289 -508h-100l330 555l-299 536h94l264 -481l260 481h97zM498 1397h104v-121h-104v121zM506 1038h88v-1091h-88v1091z" />
    <glyph glyph-name="Korea1.460" unicode="&#x2179;" vert-adv-y="2263" 
d="M1358 1038l-365 -528l391 -563h-106l-342 508l-350 -508h-107l398 555l-367 536h100l326 -481l319 481h103z" />
    <glyph glyph-name="Korea1.171" unicode="&#x2190;" vert-adv-y="2263" 
d="M1649 764v-121h-1133l154 -258l-31 -35l-426 355l426 354l31 -35l-154 -260h1133z" />
    <glyph glyph-name="Korea1.172" unicode="&#x2191;" vert-adv-y="2263" 
d="M991 0h-119v1133l-260 -154l-34 31l354 426l354 -426l-35 -31l-260 154v-1133z" />
    <glyph glyph-name="Korea1.170" unicode="&#x2192;" vert-adv-y="2263" 
d="M213 643v121h1133l-154 260l31 35l426 -354l-426 -355l-31 35l154 258h-1133z" />
    <glyph glyph-name="Korea1.173" unicode="&#x2193;" vert-adv-y="2263" 
d="M872 1407h119v-1131l260 152l35 -31l-354 -426l-354 426l34 31l260 -152v1131z" />
    <glyph glyph-name="Korea1.174" unicode="&#x2194;" vert-adv-y="2263" 
d="M424 643l154 -258l-31 -35l-426 355l426 354l31 -35l-154 -260h1016l-154 260l31 35l426 -354l-426 -355l-31 35l154 258h-1016z" />
    <glyph glyph-name="Korea1.247" unicode="&#x2195;" vert-adv-y="2263" 
d="M1251 979l-260 154v-857l260 152l35 -31l-354 -426l-354 426l34 31l260 -152v857l-260 -154l-34 31l354 426l354 -426z" />
    <glyph glyph-name="Korea1.250" unicode="&#x2196;" vert-adv-y="2263" 
d="M1655 63l-84 -86l-1192 1190l-74 -290l-47 -3l-51 551l551 -51l-2 -47l-291 -74z" />
    <glyph glyph-name="Korea1.248" unicode="&#x2197;" vert-adv-y="2263" 
d="M291 -23l-84 86l1190 1190l-291 74l-2 47l551 51l-51 -551l-48 3l-73 290z" />
    <glyph glyph-name="Korea1.251" unicode="&#x2198;" vert-adv-y="2263" 
d="M207 1346l84 84l1192 -1190l76 290l47 5l51 -553l-553 51l4 47l291 76z" />
    <glyph glyph-name="Korea1.249" unicode="&#x2199;" vert-adv-y="2263" 
d="M1573 1430l84 -84l-1192 -1190l291 -76l4 -47l-553 -51l51 553l47 -5l76 -290z" />
    <glyph glyph-name="Korea1.8868" unicode="&#x21b0;" horiz-adv-x="1802" vert-adv-y="2263" 
 />
    <glyph glyph-name="Korea1.8865" unicode="&#x21b1;" horiz-adv-x="1802" vert-adv-y="2263" 
 />
    <glyph glyph-name="Korea1.8864" unicode="&#x21b2;" horiz-adv-x="1802" vert-adv-y="2263" 
 />
    <glyph glyph-name="Korea1.8869" unicode="&#x21b3;" horiz-adv-x="1802" vert-adv-y="2263" 
 />
    <glyph glyph-name="Korea1.8867" unicode="&#x21b4;" horiz-adv-x="1802" vert-adv-y="2263" 
 />
    <glyph glyph-name="Korea1.8884" unicode="&#x21bc;" horiz-adv-x="1802" vert-adv-y="2263" 
 />
    <glyph glyph-name="Korea1.8885" unicode="&#x21c0;" horiz-adv-x="1802" vert-adv-y="2263" 
 />
    <glyph glyph-name="Korea1.8896" unicode="&#x21c4;" horiz-adv-x="1802" vert-adv-y="2263" 
 />
    <glyph glyph-name="Korea1.8897" unicode="&#x21c5;" horiz-adv-x="1802" vert-adv-y="2263" 
 />
    <glyph glyph-name="Korea1.8816" unicode="&#x21cd;" horiz-adv-x="1802" vert-adv-y="2263" 
 />
    <glyph glyph-name="Korea1.8815" unicode="&#x21cf;" horiz-adv-x="1802" vert-adv-y="2263" 
 />
    <glyph glyph-name="Korea1.8814" unicode="&#x21d0;" horiz-adv-x="1802" vert-adv-y="2263" 
 />
    <glyph glyph-name="Korea1.8854" unicode="&#x21d1;" horiz-adv-x="1802" vert-adv-y="2263" 
 />
    <glyph glyph-name="Korea1.195" unicode="&#x21d2;" vert-adv-y="2263" 
d="M20 397v74h1571l148 145l-148 148h-1571v74h1498l-240 233l55 55l510 -510l-510 -512l-55 54l242 239h-1500z" />
    <glyph glyph-name="Korea1.8855" unicode="&#x21d3;" horiz-adv-x="1802" vert-adv-y="2263" 
 />
    <glyph glyph-name="Korea1.196" unicode="&#x21d4;" vert-adv-y="2263" 
d="M1593 471l148 145l-148 148h-1327l-147 -148l147 -145h1327zM1337 1126l508 -510l-508 -512l-57 54l242 239h-1184l242 -239l-58 -54l-508 512l508 510l58 -55l-240 -233h1180l-240 233z" />
    <glyph glyph-name="Korea1.9190" unicode="&#x21e0;" horiz-adv-x="1802" vert-adv-y="2263" 
 />
    <glyph glyph-name="Korea1.9192" unicode="&#x21e1;" horiz-adv-x="1802" vert-adv-y="2263" 
 />
    <glyph glyph-name="Korea1.9191" unicode="&#x21e2;" horiz-adv-x="1802" vert-adv-y="2263" 
 />
    <glyph glyph-name="Korea1.9193" unicode="&#x21e3;" horiz-adv-x="1802" vert-adv-y="2263" 
 />
    <glyph glyph-name="Korea1.9198" unicode="&#x21e6;" horiz-adv-x="1802" vert-adv-y="2263" 
 />
    <glyph glyph-name="Korea1.9200" unicode="&#x21e7;" horiz-adv-x="1802" vert-adv-y="2263" 
 />
    <glyph glyph-name="Korea1.9199" unicode="&#x21e8;" horiz-adv-x="1802" vert-adv-y="2263" 
 />
    <glyph glyph-name="Korea1.9201" unicode="&#x21e9;" horiz-adv-x="1802" vert-adv-y="2263" 
 />
    <glyph glyph-name="Korea1.197" unicode="&#x2200;" vert-adv-y="2263" 
d="M1067 389l176 479h-618l182 -479q115 -301 129 -348q18 57 66 179q49 122 65 169zM322 1423h92l182 -479h676l178 479h94l-565 -1476h-86z" />
    <glyph glyph-name="Korea1.151" unicode="&#x2202;" horiz-adv-x="1024" vert-adv-y="2263" 
d="M490 803q-134 0 -234 -112t-100 -281t76 -258t222 -89q146 -1 258 147t136 365q-39 98 -132 163t-226 65zM956 757q0 -368 -150 -574t-374 -206q-182 0 -277 118q-95 119 -95 317t129 338q130 140 311 139q125 -1 222 -61t140 -138h2q2 29 2 90q0 307 -118 462
q-119 155 -281 155t-303 -86l-33 67q147 102 326 103q217 0 358 -178t141 -546z" />
    <glyph glyph-name="Korea1.198" unicode="&#x2203;" vert-adv-y="2263" 
d="M508 1423h862v-1476h-876v84h786v633h-729v81h729v594h-772v84z" />
    <glyph glyph-name="Korea1.8715" unicode="&#x2206;" horiz-adv-x="1802" vert-adv-y="2263" 
 />
    <glyph glyph-name="Korea1.152" unicode="&#x2207;" vert-adv-y="2263" 
d="M141 1214h1581l-790 -1253zM932 141l614 985h-1227z" />
    <glyph glyph-name="Korea1.184" unicode="&#x2208;" vert-adv-y="2263" 
d="M1628 719v-96h-1294q14 -162 129 -255t338 -94h831v-96h-819q-289 0 -436 138t-147 352t142 342q142 129 429 129h831v-97h-831q-221 0 -335 -89t-130 -234h1292z" />
    <glyph glyph-name="Korea1.8749" unicode="&#x2209;" horiz-adv-x="1802" vert-adv-y="2263" 
 />
    <glyph glyph-name="Korea1.185" unicode="&#x220b;" vert-adv-y="2263" 
d="M233 623v96h1291q-14 147 -127 236t-338 89h-830v95h830q289 0 431 -129t142 -343q0 -213 -147 -351t-436 -138h-820v94h830q225 0 340 94t127 257h-1293z" />
    <glyph glyph-name="Korea1.8750" unicode="&#x220c;" horiz-adv-x="1802" vert-adv-y="2263" 
 />
    <glyph glyph-name="Korea1.213" unicode="&#x220f;" horiz-adv-x="1271" vert-adv-y="2263" 
d="M1198 1348h-229v-1389h-84v1389h-498v-1389h-84v1389h-229v75h1124v-75z" />
    <glyph glyph-name="Korea1.212" unicode="&#x2211;" horiz-adv-x="1202" vert-adv-y="2263" 
d="M197 1423h847v-80h-733l437 -663l-447 -653h758v-80h-862v61l452 670l-452 690v55z" />
    <glyph glyph-name="Korea1.8726" unicode="&#x2213;" horiz-adv-x="1802" vert-adv-y="2263" 
 />
    <glyph glyph-name="Korea1.178" unicode="&#x221a;" horiz-adv-x="1101" vert-adv-y="2263" 
d="M111 578l-31 69l229 94l312 -850h2l430 1747h86l-475 -1892h-74l-334 899z" />
    <glyph glyph-name="Korea1.180" unicode="&#x221d;" vert-adv-y="2263" 
d="M1384 383q98 0 179 45l30 -115q-97 -51 -209 -51t-213 76q-100 76 -167 188q-68 -118 -154 -190t-235 -72t-265 102t-117 279q0 177 116 281t261 104q146 0 234 -74t160 -194q150 268 391 268q112 0 233 -88l-69 -100q-98 66 -164 65q-109 0 -183 -62t-145 -200
q74 -137 146 -200q73 -62 171 -62zM616 389q205 0 328 256q-129 258 -328 258q-114 0 -182 -72q-68 -71 -68 -187t66 -186q65 -70 184 -69z" />
    <glyph glyph-name="Korea1.136" unicode="&#x221e;" horiz-adv-x="1208" vert-adv-y="2263" 
d="M270 414q78 0 142 51q63 51 143 160q-47 61 -79 98t-88 76t-124 39t-122 -58q-52 -58 -52 -153q0 -213 180 -213zM922 414q90 0 145 59t55 155t-52 153t-125 57t-105 -22q-33 -22 -46 -30t-40 -38t-34 -36q-7 -7 -37 -46t-30 -43t24 -36t32 -42q53 -66 68 -76
q64 -43 90 -49t55 -6zM264 340q-116 0 -184 76t-68 205t76 209t193 79q69 0 121 -37q22 -14 35 -22t35 -28t31 -30q9 -9 28 -33t25 -30t26 -33l18 -24q10 12 42 52t43 51t39 42t45 40t55 31t114 21q120 -1 190 -75t70 -204t-80 -210t-189 -80q-110 0 -180 62t-145 176
q-147 -188 -238 -222q-46 -16 -102 -16z" />
    <glyph glyph-name="Korea1.8717" unicode="&#x221f;" horiz-adv-x="1802" vert-adv-y="2263" 
 />
    <glyph glyph-name="Korea1.148" unicode="&#x2220;" vert-adv-y="2263" 
d="M1556 115v-115h-1247v84l969 1128l94 -75l-883 -1022h1067z" />
    <glyph glyph-name="Korea1.8738" unicode="&#x2222;" horiz-adv-x="1802" vert-adv-y="2263" 
 />
    <glyph glyph-name="Korea1.8719" unicode="&#x2225;" horiz-adv-x="1802" vert-adv-y="2263" 
 />
    <glyph glyph-name="Korea1.8720" unicode="&#x2226;" horiz-adv-x="1802" vert-adv-y="2263" 
 />
    <glyph glyph-name="Korea1.192" unicode="&#x2227;" vert-adv-y="2263" 
d="M987 1210l602 -1167l-104 -49l-553 1077l-551 -1077l-105 49l603 1167h108z" />
    <glyph glyph-name="Korea1.193" unicode="&#x2228;" vert-adv-y="2263" 
d="M1589 1174l-602 -1168h-108l-603 1168l105 49l551 -1078l553 1078z" />
    <glyph glyph-name="Korea1.191" unicode="&#x2229;" vert-adv-y="2263" 
d="M932 1298q221 0 357 -147t136 -436v-819h-102v829q0 243 -105 363q-104 120 -284 120t-286 -121t-105 -362v-829h-103v819q0 289 135 436q136 147 357 147z" />
    <glyph glyph-name="Korea1.190" unicode="&#x222a;" vert-adv-y="2263" 
d="M438 1298h103v-829q0 -245 106 -361q107 -116 283 -116t286 118t109 359v829h102v-819q0 -287 -143 -435t-359 -148t-352 143q-135 143 -135 430v829z" />
    <glyph glyph-name="Korea1.182" unicode="&#x222b;" horiz-adv-x="589" vert-adv-y="2263" 
d="M109 -203q86 0 127 80q40 80 40 285l-18 1001q0 442 256 443q43 0 76 -15l-19 -75q-29 8 -51 8q-88 0 -129 -81t-41 -284l21 -1001q0 -442 -256 -443q-47 0 -80 15l18 75q29 -8 56 -8z" />
    <glyph glyph-name="Korea1.183" unicode="&#x222c;" horiz-adv-x="997" vert-adv-y="2263" 
d="M557 -203q86 0 127 80t41 285l-18 1001q0 442 256 443q43 0 75 -15l-18 -75q-29 8 -51 8q-88 0 -129 -81t-41 -284l20 -1001q0 -442 -256 -443q-47 0 -80 15l19 75q29 -8 55 -8zM109 -203q86 0 127 80q40 80 40 285l-18 1001q0 442 256 443q43 0 76 -15l-19 -75
q-29 8 -51 8q-88 0 -129 -81t-41 -284l21 -1001q0 -442 -256 -443q-47 0 -80 15l18 75q29 -8 56 -8z" />
    <glyph glyph-name="Korea1.211" unicode="&#x222e;" vert-adv-y="2263" 
d="M719 590q0 -84 37 -137t100 -72q6 67 12 227t13 232q-72 -27 -117 -96q-45 -70 -45 -154zM1159 637q0 80 -42 138t-113 73q-6 -59 -12 -225t-15 -244q76 19 125 81t57 152v25zM1161 1368q-45 0 -86 -122t-65 -337q110 -12 180 -83q70 -72 70 -196t-84 -210t-205 -103
q-66 -547 -279 -546q-125 0 -188 120l90 54q41 -84 104 -84q47 0 89 123t63 335q-100 16 -166 85t-66 188t77 203t192 108q68 555 280 555q127 0 193 -129l-96 -43q-37 82 -103 82z" />
    <glyph glyph-name="Korea1.137" unicode="&#x2234;" horiz-adv-x="1208" vert-adv-y="2263" 
d="M709 1069q0 -41 -26 -69t-69 -28q-42 0 -70 28t-28 69t29 69t69 28t68 -28q27 -28 27 -69zM299 233q0 -41 -29 -69q-30 -28 -70 -27q-40 0 -67 28q-27 29 -27 69t27 67t68 27t69 -27t29 -68zM1102 233q0 -41 -28 -69t-68 -27q-40 0 -69 28q-28 29 -28 69t28 67t69 27
q40 0 68 -27t28 -68z" />
    <glyph glyph-name="Korea1.181" unicode="&#x2235;" horiz-adv-x="1200" vert-adv-y="2263" 
d="M612 96q-42 0 -70 27t-28 68t30 73t68 31q38 0 70 -33q31 -34 31 -72t-30 -66t-71 -28zM1017 936q-43 0 -69 26t-26 71q0 44 26 72q27 28 69 28t73 -29q30 -29 30 -71q0 -41 -30 -69t-73 -28zM208 936q-42 0 -70 26t-27 71q0 44 27 72q28 28 70 28t72 -29t30 -71
q0 -41 -30 -69t-72 -28z" />
    <glyph glyph-name="Korea1.8321" unicode="&#x2237;" horiz-adv-x="1802" vert-adv-y="2263" 
 />
    <glyph glyph-name="Korea1.113" unicode="&#x223c;" vert-adv-y="2263" 
d="M1210 502q-144 0 -290 78t-275 77q-129 0 -217 -129l-84 56q49 78 136 135t173 57q147 0 290 -78t274 -77q131 0 219 129l84 -56q-48 -78 -136 -135t-174 -57z" />
    <glyph glyph-name="Korea1.179" unicode="&#x223d;" vert-adv-y="2263" 
d="M1325 1030q161 0 267 -114t106 -270t-106 -270t-265 -114q-123 0 -250 88l70 94q78 -61 182 -61t174 76t70 183t-70 186q-71 79 -177 79q-106 -1 -184 -69t-170 -242q-93 -174 -180 -243q-44 -33 -113 -61t-147 -28q-147 0 -257 102q-109 102 -109 280q0 177 108 281
q109 103 242 103t266 -86l-63 -96q-102 55 -174 55q-113 0 -183 -72q-70 -73 -70 -187t68 -184q66 -70 178 -71q112 0 181 61q37 32 61 56t55 74q30 49 38 67l34 68q158 315 418 315z" />
    <glyph glyph-name="Korea1.8500" unicode="&#x2243;" horiz-adv-x="1802" vert-adv-y="2263" 
 />
    <glyph glyph-name="Korea1.8499" unicode="&#x2245;" horiz-adv-x="1802" vert-adv-y="2263" 
 />
    <glyph glyph-name="Korea1.8501" unicode="&#x2248;" horiz-adv-x="1802" vert-adv-y="2263" 
 />
    <glyph glyph-name="Korea1.8739" unicode="&#x2250;" horiz-adv-x="1802" vert-adv-y="2263" 
 />
    <glyph glyph-name="Korea1.8723" unicode="&#x2251;" horiz-adv-x="1802" vert-adv-y="2263" 
 />
    <glyph glyph-name="Korea1.154" unicode="&#x2252;" horiz-adv-x="1208" vert-adv-y="2263" 
d="M682 188q0 54 39 94t90 40t91 -40t40 -92t-39 -92q-39 -39 -92 -39t-91 38t-38 91zM301 1090q0 53 39 91t91 38t91 -38t39 -91q0 -52 -39 -92t-91 -40t-91 40t-39 92zM111 756v102h987v-102h-987zM111 424v104h987v-104h-987z" />
    <glyph glyph-name="Korea1.8722" unicode="&#x2253;" horiz-adv-x="1802" vert-adv-y="2263" 
 />
    <glyph glyph-name="Korea1.8753" unicode="&#x225a;" horiz-adv-x="1802" vert-adv-y="2263" 
 />
    <glyph glyph-name="Korea1.133" unicode="&#x2260;" horiz-adv-x="1208" vert-adv-y="2263" 
d="M152 825v93h577l195 294h86l-195 -294h242v-93h-299l-226 -340h525v-92h-582l-190 -291h-86l190 291h-237v92h294l226 340h-520z" />
    <glyph glyph-name="Korea1.153" unicode="&#x2261;" horiz-adv-x="1208" vert-adv-y="2263" 
d="M1085 610h-962v82h962v-82zM1085 899h-962v84h962v-84zM1085 322h-962v84h962v-84z" />
    <glyph glyph-name="Korea1.8734" unicode="&#x2262;" horiz-adv-x="1802" vert-adv-y="2263" 
 />
    <glyph glyph-name="Korea1.134" unicode="&#x2264;" horiz-adv-x="1208" vert-adv-y="2263" 
d="M1083 123h-958v76h958v-76zM1083 442v-86l-952 412v76l952 405v-86l-852 -358z" />
    <glyph glyph-name="Korea1.135" unicode="&#x2265;" horiz-adv-x="1208" vert-adv-y="2263" 
d="M1083 123h-958v76h958v-76zM125 356v86l852 363l-852 358v86l952 -405v-76z" />
    <glyph glyph-name="Korea1.8724" unicode="&#x2266;" horiz-adv-x="1802" vert-adv-y="2263" 
 />
    <glyph glyph-name="Korea1.8725" unicode="&#x2267;" horiz-adv-x="1802" vert-adv-y="2263" 
 />
    <glyph glyph-name="Korea1.8745" unicode="&#x226e;" horiz-adv-x="1802" vert-adv-y="2263" 
 />
    <glyph glyph-name="Korea1.8746" unicode="&#x226f;" horiz-adv-x="1802" vert-adv-y="2263" 
 />
    <glyph glyph-name="Korea1.8481" unicode="&#x2270;" horiz-adv-x="1802" vert-adv-y="2263" 
 />
    <glyph glyph-name="Korea1.8482" unicode="&#x2271;" horiz-adv-x="1802" vert-adv-y="2263" 
 />
    <glyph glyph-name="Korea1.8483" unicode="&#x2272;" horiz-adv-x="1802" vert-adv-y="2263" 
 />
    <glyph glyph-name="Korea1.8484" unicode="&#x2273;" horiz-adv-x="1802" vert-adv-y="2263" 
 />
    <glyph glyph-name="Korea1.8489" unicode="&#x2276;" horiz-adv-x="1802" vert-adv-y="2263" 
 />
    <glyph glyph-name="Korea1.8490" unicode="&#x2277;" horiz-adv-x="1802" vert-adv-y="2263" 
 />
    <glyph glyph-name="Korea1.8491" unicode="&#x2279;" horiz-adv-x="1802" vert-adv-y="2263" 
 />
    <glyph glyph-name="Korea1.8475" unicode="&#x227a;" horiz-adv-x="1802" vert-adv-y="2263" 
 />
    <glyph glyph-name="Korea1.8476" unicode="&#x227b;" horiz-adv-x="1802" vert-adv-y="2263" 
 />
    <glyph glyph-name="Korea1.8479" unicode="&#x2280;" horiz-adv-x="1802" vert-adv-y="2263" 
 />
    <glyph glyph-name="Korea1.8480" unicode="&#x2281;" horiz-adv-x="1802" vert-adv-y="2263" 
 />
    <glyph glyph-name="Korea1.188" unicode="&#x2282;" vert-adv-y="2263" 
d="M1632 1124v-94h-831q-242 0 -355 -106q-112 -106 -112 -282t114 -287q114 -110 353 -109h831v-94h-819q-287 0 -435 140t-148 355t142 346t429 131h831z" />
    <glyph glyph-name="Korea1.189" unicode="&#x2283;" vert-adv-y="2263" 
d="M229 1071v94h830q287 0 430 -132t143 -346t-148 -354t-435 -140h-820v94h830q241 1 355 109t114 285t-114 283t-355 107h-830z" />
    <glyph glyph-name="Korea1.8748" unicode="&#x2284;" horiz-adv-x="1802" vert-adv-y="2263" 
 />
    <glyph glyph-name="Korea1.8747" unicode="&#x2285;" horiz-adv-x="1802" vert-adv-y="2263" 
 />
    <glyph glyph-name="Korea1.186" unicode="&#x2286;" vert-adv-y="2263" 
d="M1628 96v-94h-1321v94h1321zM1632 1268v-94h-831q-244 0 -357 -100q-112 -100 -112 -272q0 -171 114 -276q115 -104 355 -104h831v-94h-819q-289 0 -436 132t-147 343t140 338q142 127 431 127h831z" />
    <glyph glyph-name="Korea1.187" unicode="&#x2287;" vert-adv-y="2263" 
d="M233 2v94h1321v-94h-1321zM229 1174v94h832q289 0 430 -127t141 -338t-147 -343t-436 -132h-820v94h832q241 0 355 104t114 276t-113 271q-113 100 -356 101h-832z" />
    <glyph glyph-name="Korea1.8486" unicode="&#x228a;" horiz-adv-x="1802" vert-adv-y="2263" 
 />
    <glyph glyph-name="Korea1.8488" unicode="&#x228b;" horiz-adv-x="1802" vert-adv-y="2263" 
 />
    <glyph glyph-name="Korea1.8727" unicode="&#x2295;" horiz-adv-x="1802" vert-adv-y="2263" 
 />
    <glyph glyph-name="Korea1.8728" unicode="&#x2296;" horiz-adv-x="1802" vert-adv-y="2263" 
 />
    <glyph glyph-name="Korea1.8729" unicode="&#x2297;" horiz-adv-x="1802" vert-adv-y="2263" 
 />
    <glyph glyph-name="Korea1.227" unicode="&#x2299;" vert-adv-y="2263" 
d="M1722 612q0 -330 -230 -560t-558 -230t-560 231t-233 559q1 328 233 559t560 231t558 -230t230 -560zM1677 613q0 305 -220 525t-524 220t-523 -220q-220 -220 -220 -526t218 -523q218 -218 524 -218q305 0 525 219t220 523zM1249 612q0 -133 -92 -225t-223 -92t-225 93
t-95 224q0 130 94 224t226 94q131 0 223 -92t92 -226z" />
    <glyph glyph-name="Korea1.8742" unicode="&#x22a3;" horiz-adv-x="1802" vert-adv-y="2263" 
 />
    <glyph glyph-name="Korea1.8503" unicode="&#x22a4;" horiz-adv-x="1802" vert-adv-y="2263" 
 />
    <glyph glyph-name="Korea1.149" unicode="&#x22a5;" vert-adv-y="2263" 
d="M1585 121v-121h-1306v121h593v1053h121v-1053h592z" />
    <glyph glyph-name="Korea1.8751" unicode="&#x22bb;" horiz-adv-x="1802" vert-adv-y="2263" 
 />
    <glyph glyph-name="Korea1.8752" unicode="&#x22bc;" horiz-adv-x="1802" vert-adv-y="2263" 
 />
    <glyph glyph-name="Korea1.8477" unicode="&#x22ce;" horiz-adv-x="1802" vert-adv-y="2263" 
 />
    <glyph glyph-name="Korea1.8478" unicode="&#x22cf;" horiz-adv-x="1802" vert-adv-y="2263" 
 />
    <glyph glyph-name="Korea1.8492" unicode="&#x22da;" horiz-adv-x="1802" vert-adv-y="2263" 
 />
    <glyph glyph-name="Korea1.8493" unicode="&#x22db;" horiz-adv-x="1802" vert-adv-y="2263" 
 />
    <glyph glyph-name="Korea1.8320" unicode="&#x22ee;" horiz-adv-x="1802" vert-adv-y="1863" 
 />
    <glyph glyph-name="Korea1.8754" unicode="&#x2306;" horiz-adv-x="1802" vert-adv-y="2263" 
 />
    <glyph glyph-name="Korea1.150" unicode="&#x2312;" vert-adv-y="2263" 
d="M932 1508q348 0 526 -328h-123q-59 104 -161 171t-240 67t-243 -68q-103 -68 -161 -170h-127q181 328 529 328z" />
    <glyph glyph-name="Korea1.8731" unicode="&#x2314;" horiz-adv-x="1802" vert-adv-y="2263" 
 />
    <glyph glyph-name="Korea1.733" unicode="&#x2460;" vert-adv-y="2263" 
d="M1737 627q1 348 -229 577q-230 230 -576 230t-576 -230t-229 -577q0 -347 229 -577q230 -230 576 -230t576 230t229 577zM1810 627q0 -379 -250 -630t-628 -251q-379 0 -629 251t-250 630t250 629t629 251q378 -1 628 -251t250 -629zM1020 84h-86v956l-270 -159l-41 71
l335 207h62v-1075z" />
    <glyph glyph-name="Korea1.734" unicode="&#x2461;" vert-adv-y="2263" 
d="M1737 627q1 348 -229 577q-230 230 -576 230t-576 -230t-229 -577q0 -347 229 -577q230 -230 576 -230t576 230t229 577zM1810 627q0 -379 -250 -630t-628 -251q-379 0 -629 251t-250 630t250 629t629 251q378 -1 628 -251t250 -629zM1151 909v13q0 84 -58 131t-153 47
q-154 0 -252 -164l-76 47q113 203 326 203q133 0 220 -70t87 -192v-15q0 -96 -89 -216q-30 -38 -91 -111l-338 -402h559v-88h-674v80l400 481q139 168 139 256z" />
    <glyph glyph-name="Korea1.735" unicode="&#x2462;" vert-adv-y="2263" 
d="M1737 627q1 348 -229 577q-230 230 -576 230t-576 -230t-229 -577q0 -347 229 -577q230 -230 576 -230t576 230t229 577zM1810 627q0 -379 -250 -630t-628 -251q-379 0 -629 251t-250 630t250 629t629 251q378 -1 628 -251t250 -629zM932 1186q143 0 227 -72t84 -194v-15
q0 -180 -184 -243q109 -20 167 -90t58 -164v-27q0 -125 -86 -215t-268 -90t-336 117l47 81q150 -108 286 -108q137 0 201 64t64 149v22q0 115 -74 163t-172 48h-125v82h133q92 0 143 68q50 68 50 149v15q1 80 -59 126t-156 46q-147 0 -225 -129l-74 51q96 166 299 166z" />
    <glyph glyph-name="Korea1.736" unicode="&#x2463;" vert-adv-y="2263" 
d="M1737 627q1 348 -229 577q-230 230 -576 230t-576 -230t-229 -577q0 -347 229 -577q230 -230 576 -230t576 230t229 577zM1810 627q0 -379 -250 -630t-628 -251q-379 0 -629 251t-250 630t250 629t629 251q378 -1 628 -251t250 -629zM1038 768h95v-342h163v-88h-163v-240
h-95v240h-542v92l530 744h109l-533 -748h436v342z" />
    <glyph glyph-name="Korea1.737" unicode="&#x2464;" vert-adv-y="2263" 
d="M1737 627q1 348 -229 577q-230 230 -576 230t-576 -230t-229 -577q0 -347 229 -577q230 -230 576 -230t576 230t229 577zM1810 627q0 -379 -250 -630t-628 -251q-379 0 -629 251t-250 630t250 629t629 251q378 -1 628 -251t250 -629zM1210 375v16q0 264 -252 264
q-129 0 -210 -86h-101l33 586h551v-86h-461l-18 -407q36 36 102 58t123 21q153 0 237 -97t84 -249v-18q0 -129 -89 -222t-277 -93t-340 116l53 78q139 -106 287 -106t214 68q64 69 64 157z" />
    <glyph glyph-name="Korea1.738" unicode="&#x2465;" vert-adv-y="2263" 
d="M1737 627q1 348 -229 577q-230 230 -576 230t-576 -230t-229 -577q0 -347 229 -577q230 -230 576 -230t576 230t229 577zM1810 627q0 -379 -250 -630t-628 -251q-379 0 -629 251t-250 630t250 629t629 251q378 -1 628 -251t250 -629zM680 459v-21q0 -124 72 -202t184 -78
t184 68t72 186v24q0 121 -77 193q-77 71 -176 71t-179 -70t-80 -171zM968 784q122 0 220 -93t98 -247v-32q0 -158 -99 -248t-255 -90t-257 110t-102 326v31q0 643 394 643q143 0 276 -70l-49 -76q-111 64 -247 64t-202 -122t-79 -353q20 57 100 107t202 50z" />
    <glyph glyph-name="Korea1.739" unicode="&#x2466;" vert-adv-y="2263" 
d="M1737 627q1 348 -229 577q-230 230 -576 230t-576 -230t-229 -577q0 -347 229 -577q230 -230 576 -230t576 230t229 577zM1810 627q0 -379 -250 -630t-628 -251q-379 0 -629 251t-250 630t250 629t629 251q378 -1 628 -251t250 -629zM588 1053v84h723v-70l-443 -1008
h-108l440 994h-612z" />
    <glyph glyph-name="Korea1.740" unicode="&#x2467;" vert-adv-y="2263" 
d="M1737 627q1 348 -229 577q-230 230 -576 230t-576 -230t-229 -577q0 -347 229 -577q230 -230 576 -230t576 230t229 577zM1810 627q0 -379 -250 -630t-628 -251q-379 0 -629 251t-250 630t250 629t629 251q378 -1 628 -251t250 -629zM586 354v25q0 88 56 157t146 97
q-162 72 -161 254v26q0 113 87 188t218 75t220 -75t89 -188v-26q0 -182 -168 -254q90 -29 148 -97q57 -69 57 -157v-25q0 -129 -97 -209q-97 -79 -250 -79t-249 80t-96 208zM682 375v-19q0 -88 69 -148t181 -60t182 60q68 60 68 148v19q0 94 -70 154q-70 61 -180 61
t-180 -58t-70 -157zM711 905v-16q0 -94 60 -160q61 -65 159 -65t160 65q61 66 61 160v16q0 86 -60 136q-61 51 -161 51t-160 -50t-59 -137z" />
    <glyph glyph-name="Korea1.741" unicode="&#x2468;" vert-adv-y="2263" 
d="M1737 627q1 348 -229 577q-230 230 -576 230t-576 -230t-229 -577q0 -347 229 -577q230 -230 576 -230t576 230t229 577zM1810 627q0 -379 -250 -630t-628 -251q-379 0 -629 251t-250 630t250 629t629 251q378 -1 628 -251t250 -629zM1200 793v22q0 125 -71 206t-183 81
t-184 -72t-72 -196v-27q0 -119 76 -190t177 -71t179 73q78 72 78 174zM922 467q-124 0 -226 90q-100 90 -100 242v39q0 156 100 250t252 94t256 -110t105 -327v-38q-1 -347 -95 -491t-301 -144q-141 -1 -268 69l39 82q111 -66 231 -65q166 0 228 117q61 118 69 354
q-25 -61 -95 -112q-71 -50 -195 -50z" />
    <glyph glyph-name="Korea1.742" unicode="&#x2469;" vert-adv-y="2263" 
d="M1737 627q1 348 -229 577q-230 230 -576 230t-576 -230t-229 -577q0 -347 229 -577q230 -230 576 -230t576 230t229 577zM1810 627q0 -379 -250 -630t-628 -251q-379 0 -629 251t-250 630t250 629t629 251q378 -1 628 -251t250 -629zM1159 1092q-84 0 -135 -96t-51 -287
v-174q0 -193 51 -288t135 -95t135 95t52 288v174q0 193 -52 288t-135 95zM1159 68q-129 0 -199 122t-69 349v166q0 227 70 349q71 122 199 122t198 -122t69 -349v-166q0 -227 -69 -350q-70 -121 -199 -121zM727 84h-82v975l-264 -164l-41 55l330 211h57v-1077z" />
    <glyph glyph-name="Korea1.743" unicode="&#x246a;" vert-adv-y="2263" 
d="M1737 627q1 348 -229 577q-230 230 -576 230t-576 -230t-229 -577q0 -347 229 -577q230 -230 576 -230t576 230t229 577zM1810 627q0 -379 -250 -630t-628 -251q-379 0 -629 251t-250 630t250 629t629 251q378 -1 628 -251t250 -629zM1309 84h-82v963l-223 -152l-41 55
l288 211h58v-1077zM770 84h-82v963l-223 -152l-41 55l289 211h57v-1077z" />
    <glyph glyph-name="Korea1.744" unicode="&#x246b;" vert-adv-y="2263" 
d="M1737 627q1 348 -229 577q-230 230 -576 230t-576 -230t-229 -577q0 -347 229 -577q230 -230 576 -230t576 230t229 577zM1810 627q0 -379 -250 -630t-628 -251q-379 0 -629 251t-250 630t250 629t629 251q378 -1 628 -251t250 -629zM686 84h-82v963l-223 -152l-41 55
l289 211h57v-1077zM1305 903q0 78 -45 135q-46 58 -126 58t-130 -31t-99 -117l-76 43q88 186 293 187q119 0 192 -78t72 -197v-14q0 -90 -22 -158t-86 -149l-315 -414h469v-84h-580v76l358 461q94 121 95 251v31z" />
    <glyph glyph-name="Korea1.745" unicode="&#x246c;" vert-adv-y="2263" 
d="M1737 627q1 348 -229 577q-230 230 -576 230t-576 -230t-229 -577q0 -347 229 -577q230 -230 576 -230t576 230t229 577zM1810 627q0 -379 -250 -630t-628 -251q-379 0 -629 251t-250 630t250 629t629 251q378 -1 628 -251t250 -629zM686 84h-82v963l-223 -152l-41 55
l289 211h57v-1077zM1124 1178q139 0 213 -75t74 -192v-14q0 -77 -42 -145t-138 -101q105 -16 163 -86t58 -166v-26q0 -123 -86 -214t-251 -91t-294 116l47 82q115 -108 241 -108t193 66t66 147v22q0 115 -72 163t-168 48h-102v82h104q90 0 142 66q51 66 51 157v15
q0 74 -49 120q-50 46 -152 46t-188 -129l-74 51q96 166 264 166z" />
    <glyph glyph-name="Korea1.746" unicode="&#x246d;" vert-adv-y="2263" 
d="M1737 627q1 348 -229 577q-230 230 -576 230t-576 -230t-229 -577q0 -347 229 -577q230 -230 576 -230t576 230t229 577zM1810 627q0 -379 -250 -630t-628 -251q-379 0 -629 251t-250 630t250 629t629 251q378 -1 628 -251t250 -629zM686 84h-82v963l-223 -152l-41 55
l289 211h57v-1077zM1264 754h90v-338h151v-92h-151v-240h-90v240h-433v96l363 739h104l-364 -743h330v338z" />
    <glyph glyph-name="Korea1.747" unicode="&#x246e;" vert-adv-y="2263" 
d="M1737 627q1 348 -229 577q-230 230 -576 230t-576 -230t-229 -577q0 -347 229 -577q230 -230 576 -230t576 230t229 577zM1810 627q0 -379 -250 -630t-628 -251q-379 0 -629 251t-250 630t250 629t629 251q378 -1 628 -251t250 -629zM1370 383v16q0 258 -199 258
q-45 1 -101 -23t-93 -65h-90l35 586h464v-86h-382l-19 -407q27 32 77 56t103 23q135 0 212 -82t77 -256v-18q0 -131 -83 -227t-241 -97q-94 0 -157 29t-139 88l53 76q113 -106 235 -106t186 69q62 70 62 166zM686 84h-82v963l-223 -152l-41 55l289 211h57v-1077z" />
    <glyph glyph-name="Korea1.8791" unicode="&#x246f;" horiz-adv-x="1802" vert-adv-y="2263" 
 />
    <glyph glyph-name="Korea1.8792" unicode="&#x2470;" horiz-adv-x="1802" vert-adv-y="2263" 
 />
    <glyph glyph-name="Korea1.8793" unicode="&#x2471;" horiz-adv-x="1802" vert-adv-y="2263" 
 />
    <glyph glyph-name="Korea1.8794" unicode="&#x2472;" horiz-adv-x="1802" vert-adv-y="2263" 
 />
    <glyph glyph-name="Korea1.8795" unicode="&#x2473;" horiz-adv-x="1802" vert-adv-y="2263" 
 />
    <glyph glyph-name="Korea1.827" unicode="&#x2474;" vert-adv-y="2263" 
d="M1069 31h-92v1059l-285 -177l-41 70l357 229h61v-1181zM1806 670v-74q0 -442 -229 -743h-98q217 322 217 733v94q0 402 -217 721h98q229 -305 229 -731zM168 680v-94q0 -412 217 -733h-98q-229 301 -230 743v74q1 426 230 731h98q-217 -319 -217 -721z" />
    <glyph glyph-name="Korea1.828" unicode="&#x2475;" vert-adv-y="2263" 
d="M1190 930v12q0 94 -65 148t-169 55q-174 0 -284 -180l-72 43q119 223 350 223q146 0 240 -76t94 -209v-16q0 -98 -82 -210q-25 -34 -38 -53t-79 -100l-374 -450h616v-86h-731v80l440 534q154 184 154 285zM1806 670v-74q0 -442 -229 -743h-98q217 322 217 733v94
q0 402 -217 721h98q229 -305 229 -731zM168 680v-94q0 -412 217 -733h-98q-229 301 -230 743v74q1 426 230 731h98q-217 -319 -217 -721z" />
    <glyph glyph-name="Korea1.829" unicode="&#x2476;" vert-adv-y="2263" 
d="M1288 936v-16q0 -84 -55 -164t-158 -105q119 -20 187 -97t67 -183v-25q0 -144 -89 -240t-293 -96t-367 131l43 74q167 -121 323 -121t226 75t69 173v20q0 180 -192 229q-43 11 -86 11h-140v86h140q97 0 163 67t66 169v12q0 94 -65 150t-175 57q-166 0 -254 -150l-80 49
q109 186 332 187q158 0 248 -80t90 -213zM1806 670v-74q0 -442 -229 -743h-98q217 322 217 733v94q0 402 -217 721h98q229 -305 229 -731zM168 680v-94q0 -412 217 -733h-98q-229 301 -230 743v74q1 426 230 731h98q-217 -319 -217 -721z" />
    <glyph glyph-name="Korea1.830" unicode="&#x2477;" vert-adv-y="2263" 
d="M1104 762h90v-377h176v-88h-176v-266h-90v266h-592v96l582 819h106l-586 -827h490v377zM1806 670v-74q0 -442 -229 -743h-98q217 322 217 733v94q0 402 -217 721h98q229 -305 229 -731zM168 680v-94q0 -412 217 -733h-98q-229 301 -230 743v74q1 426 230 731h98
q-217 -319 -217 -721z" />
    <glyph glyph-name="Korea1.831" unicode="&#x2478;" vert-adv-y="2263" 
d="M1276 1208v-88h-512q-10 -372 -14 -458q34 42 108 66t148 24q172 0 259 -102t87 -269v-29q0 -141 -94 -242q-94 -102 -300 -102t-374 129l49 80q155 -125 319 -125t238 79t74 177v25q0 293 -281 293q-131 0 -233 -95h-103l41 637h588zM1806 670v-74q0 -442 -229 -743h-98
q217 322 217 733v94q0 402 -217 721h98q229 -305 229 -731zM168 680v-94q0 -412 217 -733h-98q-229 301 -230 743v74q1 426 230 731h98q-217 -319 -217 -721z" />
    <glyph glyph-name="Korea1.832" unicode="&#x2479;" vert-adv-y="2263" 
d="M674 430v-18q0 -140 82 -232t209 -92t209 80t81 219v25q0 135 -88 215q-87 80 -199 80t-203 -80t-91 -197zM659 602q93 180 327 180q140 0 248 -96q110 -96 109 -262v-41q-1 -172 -109 -273q-108 -102 -272 -102t-276 121q-113 121 -113 356v27q0 371 108 543t316 172
q139 0 299 -82l-47 -70q-131 70 -237 70t-169 -39t-101 -116q-66 -131 -83 -388zM1806 670v-74q0 -442 -229 -743h-98q217 322 217 733v94q0 402 -217 721h98q229 -305 229 -731zM168 680v-94q0 -412 217 -733h-98q-229 301 -230 743v74q1 426 230 731h98
q-217 -319 -217 -721z" />
    <glyph glyph-name="Korea1.833" unicode="&#x247a;" vert-adv-y="2263" 
d="M578 1106v86h780v-70l-486 -1112h-106l487 1096h-675zM1806 670v-74q0 -442 -229 -743h-98q217 322 217 733v94q0 402 -217 721h98q229 -305 229 -731zM168 680v-94q0 -412 217 -733h-98q-229 301 -230 743v74q1 426 230 731h98q-217 -319 -217 -721z" />
    <glyph glyph-name="Korea1.834" unicode="&#x247b;" vert-adv-y="2263" 
d="M563 324v28q1 98 61 173t164 104q-184 88 -184 282v29q0 123 96 205t236 82t236 -82q97 -82 98 -205v-29q0 -203 -189 -282q101 -29 165 -105t65 -172v-28q1 -140 -105 -228t-270 -88t-268 88t-105 228zM653 344v-22q0 -96 78 -164t205 -68t205 68t78 164v22
q0 110 -79 180t-204 70t-204 -70t-79 -180zM688 938v-20q0 -106 68 -182t182 -74q114 0 180 74q68 74 68 182v20q0 92 -69 149t-181 57t-180 -56q-68 -58 -68 -150zM1806 670v-74q0 -442 -229 -743h-98q217 322 217 733v94q0 402 -217 721h98q229 -305 229 -731zM168 680
v-94q0 -412 217 -733h-98q-229 301 -230 743v74q1 426 230 731h98q-217 -319 -217 -721z" />
    <glyph glyph-name="Korea1.835" unicode="&#x247c;" vert-adv-y="2263" 
d="M1231 797v22q0 141 -82 233t-208 93q-126 0 -209 -83t-83 -222v-25q0 -135 88 -216q89 -81 199 -81t203 82q92 82 92 197zM909 92q195 0 270 142t68 395q-31 -70 -109 -128q-78 -59 -216 -59q-140 0 -250 98t-111 265v43q0 172 110 275q109 103 271 103t278 -123
q116 -124 115 -362v-41q0 -384 -100 -538t-330 -154q-148 0 -293 78l43 76q119 -70 254 -70zM1806 670v-74q0 -442 -229 -743h-98q217 322 217 733v94q0 402 -217 721h98q229 -305 229 -731zM168 680v-94q0 -412 217 -733h-98q-229 301 -230 743v74q1 426 230 731h98
q-217 -319 -217 -721z" />
    <glyph glyph-name="Korea1.836" unicode="&#x247d;" vert-adv-y="2263" 
d="M1358 526v187q0 223 -45 324t-145 101t-145 -102q-44 -104 -44 -323v-187q0 -221 44 -325q44 -105 144 -105q99 0 145 102t46 328zM1454 713v-185q0 -262 -66 -390t-222 -128q-158 0 -222 128t-63 390v185q0 256 66 386q67 130 221 130t220 -129t66 -387zM698 31h-86
v1050l-233 -168l-47 68l307 231h59v-1181zM1806 670v-74q0 -442 -229 -743h-98q217 322 217 733v94q0 402 -217 721h98q229 -305 229 -731zM168 680v-94q0 -412 217 -733h-98q-229 301 -230 743v74q1 426 230 731h98q-217 -319 -217 -721z" />
    <glyph glyph-name="Korea1.837" unicode="&#x247e;" vert-adv-y="2263" 
d="M1354 31h-86v1067l-267 -185l-47 68l340 231h60v-1181zM766 31h-86v1067l-266 -185l-47 68l340 231h59v-1181zM1806 670v-74q0 -442 -229 -743h-98q217 322 217 733v94q0 402 -217 721h98q229 -305 229 -731zM168 680v-94q0 -412 217 -733h-98q-229 301 -230 743v74
q1 426 230 731h98q-217 -319 -217 -721z" />
    <glyph glyph-name="Korea1.838" unicode="&#x247f;" vert-adv-y="2263" 
d="M1368 956v13q0 86 -52 131t-138 45q-147 0 -250 -199l-72 47q45 96 128 167t192 71q108 1 196 -63t88 -195v-17q0 -90 -34 -164t-117 -200l-328 -479h508v-82h-617v75l381 560q75 112 95 164t20 126zM698 31h-86v1050l-233 -168l-47 68l307 231h59v-1181zM1806 670v-74
q0 -442 -229 -743h-98q217 322 217 733v94q0 402 -217 721h98q229 -305 229 -731zM168 680v-94q0 -412 217 -733h-98q-229 301 -230 743v74q1 426 230 731h98q-217 -319 -217 -721z" />
    <glyph glyph-name="Korea1.839" unicode="&#x2480;" vert-adv-y="2263" 
d="M1155 1229q133 0 203 -80t69 -213v-16q0 -157 -73 -218q-37 -31 -94 -51q213 -35 213 -284v-21q0 -336 -314 -336q-166 0 -317 131l51 66q55 -59 130 -86t132 -27q121 0 177 75t57 173v16q0 140 -73 192t-194 52h-98v82h111q133 0 166 76q34 76 34 164v12q0 207 -182 207
q-121 0 -201 -135l-80 47q41 72 115 123t168 51zM698 31h-86v1050l-233 -168l-47 68l307 231h59v-1181zM1806 670v-74q0 -442 -229 -743h-98q217 322 217 733v94q0 402 -217 721h98q229 -305 229 -731zM168 680v-94q0 -412 217 -733h-98q-229 301 -230 743v74q1 426 230 731
h98q-217 -319 -217 -721z" />
    <glyph glyph-name="Korea1.840" unicode="&#x2481;" vert-adv-y="2263" 
d="M1284 762h92v-381h156v-84h-156v-266h-92v266h-473v74l440 841h97l-435 -831h371v381zM698 31h-86v1050l-233 -168l-47 68l307 231h59v-1181zM1806 670v-74q0 -442 -229 -743h-98q217 322 217 733v94q0 402 -217 721h98q229 -305 229 -731zM168 680v-94q0 -412 217 -733
h-98q-229 301 -230 743v74q1 426 230 731h98q-217 -319 -217 -721z" />
    <glyph glyph-name="Korea1.841" unicode="&#x2482;" vert-adv-y="2263" 
d="M1411 1208v-88h-395l-19 -458q70 90 201 90t206 -98t75 -261v-16q0 -199 -83 -284t-252 -85t-292 133q10 12 31 38q20 26 30 38q101 -125 233 -125t186 69t54 212v12q0 154 -53 215q-53 62 -135 62t-130 -28q-50 -28 -67 -63h-102l41 637h471zM1806 670v-74
q0 -442 -229 -743h-98q217 322 217 733v94q0 402 -217 721h98q229 -305 229 -731zM168 680v-94q0 -412 217 -733h-98q-229 301 -230 743v74q1 426 230 731h98q-217 -319 -217 -721zM698 1212v-1181h-86v1050l-233 -168l-47 68l307 231h59z" />
    <glyph glyph-name="Korea1.9042" unicode="&#x2483;" horiz-adv-x="1802" vert-adv-y="2263" 
 />
    <glyph glyph-name="Korea1.9043" unicode="&#x2484;" horiz-adv-x="1802" vert-adv-y="2263" 
 />
    <glyph glyph-name="Korea1.9044" unicode="&#x2485;" horiz-adv-x="1802" vert-adv-y="2263" 
 />
    <glyph glyph-name="Korea1.9045" unicode="&#x2486;" horiz-adv-x="1802" vert-adv-y="2263" 
 />
    <glyph glyph-name="Korea1.9046" unicode="&#x2487;" horiz-adv-x="1802" vert-adv-y="2263" 
 />
    <glyph glyph-name="Korea1.801" unicode="&#x249c;" vert-adv-y="2263" 
d="M1180 436v187h-267q-115 0 -170 -45t-55 -125v-27q0 -92 65 -138t157 -46t181 54t89 140zM868 160q-110 0 -191 72t-81 192v31q0 111 82 179t233 66h269v97q0 104 -60 160q-60 57 -180 57q-119 0 -260 -92l-47 71q161 107 315 107t238 -77t84 -214v-635h-90v113
q-31 -63 -116 -95q-86 -32 -196 -32zM1806 670v-74q0 -442 -229 -743h-98q217 322 217 733v94q0 402 -217 721h98q229 -305 229 -731zM168 680v-94q0 -412 217 -733h-98q-229 301 -230 743v74q1 426 230 731h98q-217 -319 -217 -721z" />
    <glyph glyph-name="Korea1.802" unicode="&#x249d;" vert-adv-y="2263" 
d="M1806 670v-74q0 -442 -229 -743h-98q217 322 217 733v94q0 402 -217 721h98q229 -305 229 -731zM168 680v-94q0 -412 217 -733h-98q-229 301 -230 743v74q1 426 230 731h98q-217 -319 -217 -721zM1272 420v129q0 151 -73 233t-187 82t-203 -72q-88 -72 -88 -190v-278
q0 -90 79 -158q80 -68 202 -68t196 85t74 237zM1364 406q0 -184 -102 -287t-266 -103q-165 0 -273 121v-108h-94v1269h92v-503q41 75 115 117t163 42q165 0 265 -104t100 -287v-157z" />
    <glyph glyph-name="Korea1.803" unicode="&#x249e;" vert-adv-y="2263" 
d="M580 686q0 196 102 304t273 108t296 -94l-47 -74q-121 82 -250 82q-130 0 -204 -90t-74 -234v-110q0 -152 76 -243t214 -91t265 92l45 -76q-144 -102 -320 -102t-276 110t-100 310v108zM1806 670v-74q0 -442 -229 -743h-98q217 322 217 733v94q0 402 -217 721h98
q229 -305 229 -731zM168 680v-94q0 -412 217 -733h-98q-229 301 -230 743v74q1 426 230 731h98q-217 -319 -217 -721z" />
    <glyph glyph-name="Korea1.804" unicode="&#x249f;" vert-adv-y="2263" 
d="M1806 670v-74q0 -442 -229 -743h-98q217 322 217 733v94q0 402 -217 721h98q229 -305 229 -731zM168 680v-94q0 -412 217 -733h-98q-229 301 -230 743v74q1 426 230 731h98q-217 -319 -217 -721zM623 551v-129q1 -152 75 -237t198 -85t201 62t77 182v289q0 90 -81 165
q-81 74 -201 74t-194 -86t-75 -235zM1169 31v116q-43 -61 -117 -95t-153 -34q-162 0 -265 104t-104 288v157q0 181 102 285t271 104q168 0 271 -137v481h92v-1269h-97z" />
    <glyph glyph-name="Korea1.805" unicode="&#x24a0;" vert-adv-y="2263" 
d="M950 158q-176 0 -273 112t-97 305v115q0 186 95 297t267 111t263 -112t91 -304v-82h-622v-20q0 -158 77 -247t214 -89t272 90l45 -70q-156 -106 -332 -106zM674 680h530v6q0 160 -67 242q-68 82 -195 82q-162 0 -248 -146q-20 -59 -20 -159v-25zM1806 670v-74
q0 -442 -229 -743h-98q217 322 217 733v94q0 402 -217 721h98q229 -305 229 -731zM168 680v-94q0 -412 217 -733h-98q-229 301 -230 743v74q1 426 230 731h98q-217 -319 -217 -721z" />
    <glyph glyph-name="Korea1.806" unicode="&#x24a1;" vert-adv-y="2263" 
d="M856 8v819h-160v82h160v121q0 144 54 200t154 56t159 -18l-15 -78q-47 16 -122 16q-76 0 -108 -37t-32 -143v-117h256v-82h-256v-819h-90zM1806 670v-74q0 -442 -229 -743h-98q217 322 217 733v94q0 402 -217 721h98q229 -305 229 -731zM168 680v-94q0 -412 217 -733h-98
q-229 301 -230 743v74q1 426 230 731h98q-217 -319 -217 -721z" />
    <glyph glyph-name="Korea1.807" unicode="&#x24a2;" vert-adv-y="2263" 
d="M649 848v-113q0 -149 75 -235t198 -86q122 0 200 61t78 182v277q0 84 -85 160t-201 76t-191 -86q-74 -84 -74 -236zM936 41q262 0 262 299v133q-39 -69 -116 -105t-158 -36q-160 0 -264 105q-103 105 -103 290v135q0 184 100 286q99 102 275 103q176 0 270 -135v121h90
v-891q0 -188 -98 -290t-271 -103q-173 0 -292 94l45 70q68 -47 120 -61t140 -15zM1806 670v-74q0 -442 -229 -743h-98q217 322 217 733v94q0 402 -217 721h98q229 -305 229 -731zM168 680v-94q0 -412 217 -733h-98q-229 301 -230 743v74q1 426 230 731h98
q-217 -319 -217 -721z" />
    <glyph glyph-name="Korea1.808" unicode="&#x24a3;" vert-adv-y="2263" 
d="M995 932q162 0 248 -85t86 -222v-617h-94v590q0 250 -246 250q-121 0 -197 -80t-75 -160v-600h-94v1270h94v-498q31 59 103 106q73 46 175 46zM1806 670v-74q0 -442 -229 -743h-98q217 322 217 733v94q0 402 -217 721h98q229 -305 229 -731zM168 680v-94q0 -412 217 -733
h-98q-229 301 -230 743v74q1 426 230 731h98q-217 -319 -217 -721z" />
    <glyph glyph-name="Korea1.809" unicode="&#x24a4;" vert-adv-y="2263" 
d="M1806 670v-74q0 -442 -229 -743h-98q217 322 217 733v94q0 402 -217 721h98q229 -305 229 -731zM168 680v-94q0 -412 217 -733h-98q-229 301 -230 743v74q1 426 230 731h98q-217 -319 -217 -721zM883 1106v102h100v-102h-100zM885 10v910h96v-910h-96z" />
    <glyph glyph-name="Korea1.810" unicode="&#x24a5;" vert-adv-y="2263" 
d="M828 74q75 0 104 44t29 142v660h83v-664q0 -146 -50 -204t-152 -58t-158 20q3 8 14 76q55 -16 130 -16zM952 1106v102h101v-102h-101zM1806 670v-74q0 -442 -229 -743h-98q217 322 217 733v94q0 402 -217 721h98q229 -305 229 -731zM168 680v-94q0 -412 217 -733h-98
q-229 301 -230 743v74q1 426 230 731h98q-217 -319 -217 -721z" />
    <glyph glyph-name="Korea1.811" unicode="&#x24a6;" vert-adv-y="2263" 
d="M729 8h-90v1270h90v-805l465 442h125l-367 -340l404 -567h-107l-362 508l-158 -149v-359zM1806 670v-74q0 -442 -229 -743h-98q217 322 217 733v94q0 402 -217 721h98q229 -305 229 -731zM168 680v-94q0 -412 217 -733h-98q-229 301 -230 743v74q1 426 230 731h98
q-217 -319 -217 -721z" />
    <glyph glyph-name="Korea1.812" unicode="&#x24a7;" vert-adv-y="2263" 
d="M885 8v1270h96v-1270h-96zM1806 670v-74q0 -442 -229 -743h-98q217 322 217 733v94q0 402 -217 721h98q229 -305 229 -731zM168 680v-94q0 -412 217 -733h-98q-229 301 -230 743v74q1 426 230 731h98q-217 -319 -217 -721z" />
    <glyph glyph-name="Korea1.813" unicode="&#x24a8;" vert-adv-y="2263" 
d="M1220 1098q154 0 212 -77t59 -226v-621h-86v596q0 121 -37 183q-37 63 -141 63q-103 0 -163 -76t-60 -158v-608h-93v596q0 123 -32 184q-33 62 -141 62t-168 -80t-60 -166v-596h-86v907h92v-127q78 143 221 144q99 0 155 -40t93 -132q81 172 235 172zM1806 670v-74
q0 -442 -229 -743h-98q217 322 217 733v94q0 402 -217 721h98q229 -305 229 -731zM168 680v-94q0 -412 217 -733h-98q-229 301 -230 743v74q1 426 230 731h98q-217 -319 -217 -721z" />
    <glyph glyph-name="Korea1.814" unicode="&#x24a9;" vert-adv-y="2263" 
d="M964 1098q173 0 259 -85t86 -222v-617h-95v592q0 250 -245 250q-119 0 -196 -81t-77 -159v-602h-94v907h96v-131q93 148 266 148zM1806 670v-74q0 -442 -229 -743h-98q217 322 217 733v94q0 402 -217 721h98q229 -305 229 -731zM168 680v-94q0 -412 217 -733h-98
q-229 301 -230 743v74q1 426 230 731h98q-217 -319 -217 -721z" />
    <glyph glyph-name="Korea1.815" unicode="&#x24aa;" vert-adv-y="2263" 
d="M934 242q129 0 206 86t77 250v100q0 162 -78 249t-205 87t-206 -87t-79 -249v-100q0 -164 78 -250t207 -86zM557 682q1 200 99 308t277 108t277 -110t99 -306v-109q-1 -199 -99 -307t-277 -108t-278 108q-98 109 -98 307v109zM1806 670v-74q0 -442 -229 -743h-98
q217 322 217 733v94q0 402 -217 721h98q229 -305 229 -731zM168 680v-94q0 -412 217 -733h-98q-229 301 -230 743v74q1 426 230 731h98q-217 -319 -217 -721z" />
    <glyph glyph-name="Korea1.816" unicode="&#x24ab;" vert-adv-y="2263" 
d="M1284 690v131q0 150 -73 232t-187 82t-202 -72t-89 -191v-280q0 -88 80 -157t202 -69q121 0 195 86q74 84 74 238zM1376 676q0 -180 -102 -284t-265 -105q-163 0 -276 123v-469h-92v1267h94v-135q80 152 277 152q166 -1 265 -103t99 -288v-158zM1806 670v-74
q0 -442 -229 -743h-98q217 322 217 733v94q0 402 -217 721h98q229 -305 229 -731zM168 680v-94q0 -412 217 -733h-98q-229 301 -230 743v74q1 426 230 731h98q-217 -319 -217 -721z" />
    <glyph glyph-name="Korea1.817" unicode="&#x24ac;" vert-adv-y="2263" 
d="M629 821v-131q1 -152 75 -238t198 -85q124 0 201 61t77 182v291q0 88 -80 164t-201 76t-195 -85t-75 -235zM1180 -59v481q-39 -63 -117 -99t-160 -36q-156 0 -261 104t-105 285v160q0 180 102 284t271 104t272 -137v121h90v-1267h-92zM1806 670v-74q0 -442 -229 -743h-98
q217 322 217 733v94q0 402 -217 721h98q229 -305 229 -731zM168 680v-94q0 -412 217 -733h-98q-229 301 -230 743v74q1 426 230 731h98q-217 -319 -217 -721z" />
    <glyph glyph-name="Korea1.818" unicode="&#x24ad;" vert-adv-y="2263" 
d="M1161 1001q-121 0 -189 -89t-67 -230v-508h-90v907h92v-168q29 74 94 129q66 55 155 55t144 -18l-30 -96q-37 18 -109 18zM1806 670v-74q0 -442 -229 -743h-98q217 322 217 733v94q0 402 -217 721h98q229 -305 229 -731zM168 680v-94q0 -412 217 -733h-98
q-229 301 -230 743v74q1 426 230 731h98q-217 -319 -217 -721z" />
    <glyph glyph-name="Korea1.819" unicode="&#x24ae;" vert-adv-y="2263" 
d="M932 246q132 0 196 46q63 46 64 109v21q0 72 -64 113t-196 63q-145 29 -220 81t-75 150v27q0 104 83 173q84 69 254 69t294 -101l-45 -65q-119 78 -275 78q-100 0 -160 -44t-61 -112v-18q0 -113 244 -158q169 -31 243 -90t74 -162v-25q0 -111 -95 -177t-237 -66
q-188 0 -342 106l48 72q138 -90 270 -90zM1806 670v-74q0 -442 -229 -743h-98q217 322 217 733v94q0 402 -217 721h98q229 -305 229 -731zM168 680v-94q0 -412 217 -733h-98q-229 301 -230 743v74q1 426 230 731h98q-217 -319 -217 -721z" />
    <glyph glyph-name="Korea1.820" unicode="&#x24af;" vert-adv-y="2263" 
d="M813 307v578h-160v78h160v235h90v-235h256v-78h-256v-574q0 -98 30 -141q29 -43 109 -43t125 14l17 -78q-43 -16 -156 -16q-113 1 -164 57t-51 203zM1806 670v-74q0 -442 -229 -743h-98q217 322 217 733v94q0 402 -217 721h98q229 -305 229 -731zM168 680v-94
q0 -412 217 -733h-98q-229 301 -230 743v74q1 426 230 731h98q-217 -319 -217 -721z" />
    <glyph glyph-name="Korea1.821" unicode="&#x24b0;" vert-adv-y="2263" 
d="M915 162q-159 0 -239 83t-80 220v614h90v-585q0 -111 49 -181q49 -69 177 -69t208 79q78 79 78 152v604h94v-907h-92v131q-29 -55 -105 -98t-180 -43zM1806 670v-74q0 -442 -229 -743h-98q217 322 217 733v94q0 402 -217 721h98q229 -305 229 -731zM168 680v-94
q0 -412 217 -733h-98q-229 301 -230 743v74q1 426 230 731h98q-217 -319 -217 -721z" />
    <glyph glyph-name="Korea1.822" unicode="&#x24b1;" vert-adv-y="2263" 
d="M983 174h-98l-342 905h102l295 -800l283 800h96zM1806 670v-74q0 -442 -229 -743h-98q217 322 217 733v94q0 402 -217 721h98q229 -305 229 -731zM168 680v-94q0 -412 217 -733h-98q-229 301 -230 743v74q1 426 230 731h98q-217 -319 -217 -721z" />
    <glyph glyph-name="Korea1.823" unicode="&#x24b2;" vert-adv-y="2263" 
d="M1806 670v-74q0 -442 -229 -743h-98q217 322 217 733v94q0 402 -217 721h98q229 -305 229 -731zM168 680v-94q0 -412 217 -733h-98q-229 301 -230 743v74q1 426 230 731h98q-217 -319 -217 -721zM1511 1079l-239 -905h-103l-229 801l-213 -801h-109q-101 373 -247 905h90
l211 -813l211 813h116l228 -811l198 811h86z" />
    <glyph glyph-name="Korea1.824" unicode="&#x24b3;" vert-adv-y="2263" 
d="M1329 1083l-313 -438l327 -471h-100l-282 420l-291 -420h-99l332 471l-313 438h98l268 -389l271 389h102zM1806 670v-74q0 -442 -229 -743h-98q217 322 217 733v94q0 402 -217 721h98q229 -305 229 -731zM168 680v-94q0 -412 217 -733h-98q-229 301 -230 743v74
q1 426 230 731h98q-217 -319 -217 -721z" />
    <glyph glyph-name="Korea1.825" unicode="&#x24b4;" vert-adv-y="2263" 
d="M1806 670v-74q0 -442 -229 -743h-98q217 322 217 733v94q0 402 -217 721h98q229 -305 229 -731zM168 680v-94q0 -412 217 -733h-98q-229 301 -230 743v74q1 426 230 731h98q-217 -319 -217 -721zM784 -39l123 334q-59 151 -177 457t-177 458h90l303 -786l287 786h96
l-465 -1276z" />
    <glyph glyph-name="Korea1.826" unicode="&#x24b5;" vert-adv-y="2263" 
d="M1282 1079v-55l-584 -780h607v-70h-705v74l567 760h-536v71h651zM1806 670v-74q0 -442 -229 -743h-98q217 322 217 733v94q0 402 -217 721h98q229 -305 229 -731zM168 680v-94q0 -412 217 -733h-98q-229 301 -230 743v74q1 426 230 731h98q-217 -319 -217 -721z" />
    <glyph glyph-name="Korea1.8388" unicode="&#x24b6;" horiz-adv-x="1802" vert-adv-y="2263" 
 />
    <glyph glyph-name="Korea1.8389" unicode="&#x24b7;" horiz-adv-x="1802" vert-adv-y="2263" 
 />
    <glyph glyph-name="Korea1.8390" unicode="&#x24b8;" horiz-adv-x="1802" vert-adv-y="2263" 
 />
    <glyph glyph-name="Korea1.8391" unicode="&#x24b9;" horiz-adv-x="1802" vert-adv-y="2263" 
 />
    <glyph glyph-name="Korea1.8392" unicode="&#x24ba;" horiz-adv-x="1802" vert-adv-y="2263" 
 />
    <glyph glyph-name="Korea1.8393" unicode="&#x24bb;" horiz-adv-x="1802" vert-adv-y="2263" 
 />
    <glyph glyph-name="Korea1.8394" unicode="&#x24bc;" horiz-adv-x="1802" vert-adv-y="2263" 
 />
    <glyph glyph-name="Korea1.8395" unicode="&#x24bd;" horiz-adv-x="1802" vert-adv-y="2263" 
 />
    <glyph glyph-name="Korea1.8396" unicode="&#x24be;" horiz-adv-x="1802" vert-adv-y="2263" 
 />
    <glyph glyph-name="Korea1.8397" unicode="&#x24bf;" horiz-adv-x="1802" vert-adv-y="2263" 
 />
    <glyph glyph-name="Korea1.8398" unicode="&#x24c0;" horiz-adv-x="1802" vert-adv-y="2263" 
 />
    <glyph glyph-name="Korea1.8399" unicode="&#x24c1;" horiz-adv-x="1802" vert-adv-y="2263" 
 />
    <glyph glyph-name="Korea1.8400" unicode="&#x24c2;" horiz-adv-x="1802" vert-adv-y="2263" 
 />
    <glyph glyph-name="Korea1.8401" unicode="&#x24c3;" horiz-adv-x="1802" vert-adv-y="2263" 
 />
    <glyph glyph-name="Korea1.8402" unicode="&#x24c4;" horiz-adv-x="1802" vert-adv-y="2263" 
 />
    <glyph glyph-name="Korea1.8403" unicode="&#x24c5;" horiz-adv-x="1802" vert-adv-y="2263" 
 />
    <glyph glyph-name="Korea1.8404" unicode="&#x24c6;" horiz-adv-x="1802" vert-adv-y="2263" 
 />
    <glyph glyph-name="Korea1.8405" unicode="&#x24c7;" horiz-adv-x="1802" vert-adv-y="2263" 
 />
    <glyph glyph-name="Korea1.8406" unicode="&#x24c8;" horiz-adv-x="1802" vert-adv-y="2263" 
 />
    <glyph glyph-name="Korea1.8407" unicode="&#x24c9;" horiz-adv-x="1802" vert-adv-y="2263" 
 />
    <glyph glyph-name="Korea1.8408" unicode="&#x24ca;" horiz-adv-x="1802" vert-adv-y="2263" 
 />
    <glyph glyph-name="Korea1.8409" unicode="&#x24cb;" horiz-adv-x="1802" vert-adv-y="2263" 
 />
    <glyph glyph-name="Korea1.8410" unicode="&#x24cc;" horiz-adv-x="1802" vert-adv-y="2263" 
 />
    <glyph glyph-name="Korea1.8411" unicode="&#x24cd;" horiz-adv-x="1802" vert-adv-y="2263" 
 />
    <glyph glyph-name="Korea1.8412" unicode="&#x24ce;" horiz-adv-x="1802" vert-adv-y="2263" 
 />
    <glyph glyph-name="Korea1.8413" unicode="&#x24cf;" horiz-adv-x="1802" vert-adv-y="2263" 
 />
    <glyph glyph-name="Korea1.707" unicode="&#x24d0;" vert-adv-y="2263" 
d="M1737 627q1 348 -229 577q-230 230 -576 230t-576 -230t-229 -577q0 -347 229 -577q230 -230 576 -230t576 230t229 577zM1810 627q0 -379 -250 -630t-628 -251q-379 0 -629 251t-250 630t250 629t629 251q378 -1 628 -251t250 -629zM1139 471v154h-238q-201 0 -201 -150
v-24q0 -82 56 -123t140 -41q83 0 163 53t80 131zM858 205q-104 1 -178 65t-74 172v37q0 101 77 163t214 63h242v81q1 92 -53 144t-162 51q-108 0 -238 -86l-49 76q154 100 295 100t222 -72t81 -198v-584h-96q0 16 -2 49t-2 51q-35 -45 -104 -79t-173 -33z" />
    <glyph glyph-name="Korea1.708" unicode="&#x24d1;" vert-adv-y="2263" 
d="M1737 627q1 348 -229 577q-230 230 -576 230t-576 -230t-229 -577q0 -347 229 -577q230 -230 576 -230t576 230t229 577zM1810 627q0 -379 -250 -630t-628 -251q-379 0 -629 251t-250 630t250 629t629 251q378 -1 628 -251t250 -629zM1227 430v119q0 135 -67 209t-166 74
t-176 -64q-77 -63 -77 -170v-254q0 -78 72 -140q73 -62 179 -62t170 76q64 77 65 212zM739 168v-98h-96v1161h94v-449q90 140 249 140t249 -96t90 -261v-151q0 -164 -93 -260t-247 -96t-244 110h-2z" />
    <glyph glyph-name="Korea1.709" unicode="&#x24d2;" vert-adv-y="2263" 
d="M1737 627q1 348 -229 577q-230 230 -576 230t-576 -230t-229 -577q0 -347 229 -577q230 -230 576 -230t576 230t229 577zM1810 627q0 -379 -250 -630t-628 -251q-379 0 -629 251t-250 630t250 629t629 251q378 -1 628 -251t250 -629zM592 676q0 178 95 280t255 101
q160 0 268 -84l-47 -74q-94 68 -217 68q-122 0 -188 -77t-66 -208v-107q0 -141 64 -218t190 -77q127 0 242 82l43 -75q-127 -97 -289 -97t-256 102t-94 281v103z" />
    <glyph glyph-name="Korea1.710" unicode="&#x24d3;" vert-adv-y="2263" 
d="M1737 627q1 348 -229 577q-230 230 -576 230t-576 -230t-229 -577q0 -347 229 -577q230 -230 576 -230t576 230t229 577zM1810 627q0 -379 -250 -630t-628 -251q-379 0 -629 251t-250 630t250 629t629 251q378 -1 628 -251t250 -629zM649 565v-119q0 -132 66 -210
q65 -78 173 -78t178 56t69 163v268q0 77 -75 143q-74 66 -178 66t-168 -76t-65 -213zM1137 86v109q-35 -55 -106 -89t-146 -32q-152 0 -243 94t-91 264v146q0 168 92 264t253 96t243 -125v434h94v-1161h-96z" />
    <glyph glyph-name="Korea1.711" unicode="&#x24d4;" vert-adv-y="2263" 
d="M1737 627q1 348 -229 577q-230 230 -576 230t-576 -230t-229 -577q0 -347 229 -577q230 -230 576 -230t576 230t229 577zM1810 627q0 -379 -250 -630t-628 -251q-379 0 -629 251t-250 630t250 629t629 251q378 -1 628 -251t250 -629zM941 197q-165 0 -256 102t-91 281
v108q0 174 88 274t249 99q161 1 248 -101t87 -282v-80h-574v-16q2 -142 69 -222t199 -80t242 85l41 -78q-137 -90 -302 -90zM692 682h473v18q0 135 -62 206q-63 71 -169 71t-174 -75t-68 -200v-20z" />
    <glyph glyph-name="Korea1.712" unicode="&#x24d5;" vert-adv-y="2263" 
d="M1737 627q1 348 -229 577q-230 230 -576 230t-576 -230t-229 -577q0 -347 229 -577q230 -230 576 -230t576 230t229 577zM1810 627q0 -379 -250 -630t-628 -251q-379 0 -629 251t-250 630t250 629t629 251q378 -1 628 -251t250 -629zM838 37v741h-144v84h144v109
q0 133 50 185t144 52t150 -22l-13 -78q-45 16 -112 16t-96 -32t-29 -125v-105h233v-84h-233v-741h-94z" />
    <glyph glyph-name="Korea1.713" unicode="&#x24d6;" vert-adv-y="2263" 
d="M1737 627q1 348 -229 577q-230 230 -576 230t-576 -230t-229 -577q0 -347 229 -577q230 -230 576 -230t576 230t229 577zM1810 627q0 -379 -250 -630t-628 -251q-379 0 -629 251t-250 630t250 629t629 251q378 -1 628 -251t250 -629zM674 819v-104q0 -133 66 -208
t174 -75q110 0 181 56t70 163v246q1 77 -75 145t-182 68t-170 -77t-64 -214zM1163 360v111q-33 -59 -103 -92t-147 -33q-145 0 -239 96t-94 263v126q0 169 92 265t239 96q178 0 256 -125v107h95v-820q0 -170 -94 -262t-256 -92q-164 0 -265 90l43 70q100 -68 236 -68
q237 0 237 268z" />
    <glyph glyph-name="Korea1.714" unicode="&#x24d7;" vert-adv-y="2263" 
d="M1737 627q1 348 -229 577q-230 230 -576 230t-576 -230t-229 -577q0 -347 229 -577q230 -230 576 -230t576 230t229 577zM1810 627q0 -379 -250 -630t-628 -251q-379 0 -629 251t-250 630t250 629t629 251q378 -1 628 -251t250 -629zM993 911q143 0 224 -78
q80 -79 79 -206v-568h-96v539q0 225 -217 225q-104 1 -177 -69t-73 -144v-551h-94v1162h94v-445q82 135 260 135z" />
    <glyph glyph-name="Korea1.715" unicode="&#x24d8;" vert-adv-y="2263" 
d="M1737 627q1 348 -229 577q-230 230 -576 230t-576 -230t-229 -577q0 -347 229 -577q230 -230 576 -230t576 230t229 577zM1810 627q0 -379 -250 -630t-628 -251q-379 0 -629 251t-250 630t250 629t629 251q378 -1 628 -251t250 -629zM872 1065v109h107v-109h-107zM881 61
v836h94v-836h-94z" />
    <glyph glyph-name="Korea1.716" unicode="&#x24d9;" vert-adv-y="2263" 
d="M1737 627q1 348 -229 577q-230 230 -576 230t-576 -230t-229 -577q0 -347 229 -577q230 -230 576 -230t576 230t229 577zM1810 627q0 -379 -250 -630t-628 -251q-379 0 -629 251t-250 630t250 629t629 251q378 -1 628 -251t250 -629zM936 1104v108h102v-108h-102z
M1034 936v-713q0 -131 -54 -187t-144 -56t-150 22l14 80q50 -18 114 -18t95 33q31 34 31 130v709h94z" />
    <glyph glyph-name="Korea1.717" unicode="&#x24da;" vert-adv-y="2263" 
d="M1737 627q1 348 -229 577q-230 230 -576 230t-576 -230t-229 -577q0 -347 229 -577q230 -230 576 -230t576 230t229 577zM1810 627q0 -379 -250 -630t-628 -251q-379 0 -629 251t-250 630t250 629t629 251q378 -1 628 -251t250 -629zM766 63h-96v1162h96v-725l416 401
h125l-336 -319l368 -519h-112l-324 457l-137 -133v-324z" />
    <glyph glyph-name="Korea1.718" unicode="&#x24db;" vert-adv-y="2263" 
d="M1737 627q1 348 -229 577q-230 230 -576 230t-576 -230t-229 -577q0 -347 229 -577q230 -230 576 -230t576 230t229 577zM1810 627q0 -379 -250 -630t-628 -251q-379 0 -629 251t-250 630t250 629t629 251q378 -1 628 -251t250 -629zM887 47v1161h94v-1161h-94z" />
    <glyph glyph-name="Korea1.719" unicode="&#x24dc;" vert-adv-y="2263" 
d="M1737 627q1 348 -229 577q-230 230 -576 230t-576 -230t-229 -577q0 -347 229 -577q230 -230 576 -230t576 230t229 577zM1810 627q0 -379 -250 -630t-628 -251q-379 0 -629 251t-250 630t250 629t629 251q378 -1 628 -251t250 -629zM1239 1049q264 0 264 -285v-567h-94
v536q0 229 -174 230q-90 0 -159 -66t-68 -147v-553h-95v534q0 231 -178 232q-92 0 -160 -67t-67 -151v-548h-94v833h100v-112q78 131 225 131q180 0 248 -156q98 156 252 156z" />
    <glyph glyph-name="Korea1.720" unicode="&#x24dd;" vert-adv-y="2263" 
d="M1737 627q1 348 -229 577q-230 230 -576 230t-576 -230t-229 -577q0 -347 229 -577q230 -230 576 -230t576 230t229 577zM1810 627q0 -379 -250 -630t-628 -251q-379 0 -629 251t-250 630t250 629t629 251q378 -1 628 -251t250 -629zM979 1049q143 0 223 -79t80 -206
v-567h-96v538q0 227 -217 228q-104 0 -177 -71t-73 -144v-551h-94v833h98v-117q82 136 256 136z" />
    <glyph glyph-name="Korea1.721" unicode="&#x24de;" vert-adv-y="2263" 
d="M1737 627q1 348 -229 577q-230 230 -576 230t-576 -230t-229 -577q0 -347 229 -577q230 -230 576 -230t576 230t229 577zM1810 627q0 -379 -250 -630t-628 -251q-379 0 -629 251t-250 630t250 629t629 251q378 -1 628 -251t250 -629zM682 586q0 -147 68 -226t183 -79
q115 1 185 79t70 226v88q0 147 -70 224t-184 77t-184 -77q-68 -77 -68 -224v-88zM580 682q0 180 93 280t259 101q166 0 258 -101t92 -280v-107q0 -178 -91 -278t-257 -100t-260 100t-94 278v107z" />
    <glyph glyph-name="Korea1.722" unicode="&#x24df;" vert-adv-y="2263" 
d="M1737 627q1 348 -229 577q-230 230 -576 230t-576 -230t-229 -577q0 -347 229 -577q230 -230 576 -230t576 230t229 577zM1810 627q0 -379 -250 -630t-628 -251q-379 0 -629 251t-250 630t250 629t629 251q378 -1 628 -251t250 -629zM1239 688v119q0 137 -63 210t-166 73
t-180 -64t-76 -170v-254q0 -78 72 -140t178 -62t171 76q64 77 64 212zM1006 315q-60 0 -140 33t-116 82v-430h-95v1163h97v-119q76 136 241 136t255 -94t89 -263v-151q0 -166 -93 -262t-238 -95z" />
    <glyph glyph-name="Korea1.723" unicode="&#x24e0;" vert-adv-y="2263" 
d="M1737 627q1 348 -229 577q-230 230 -576 230t-576 -230t-229 -577q0 -347 229 -577q230 -230 576 -230t576 230t229 577zM1810 627q0 -379 -250 -630t-628 -251q-379 0 -629 251t-250 630t250 629t629 251q378 -1 628 -251t250 -629zM633 807v-119q-1 -133 65 -211
t174 -78q108 1 177 57q70 56 69 162v265q0 77 -75 145t-179 68t-167 -76q-64 -76 -64 -213zM1122 0v442q-78 -127 -240 -127q-162 -1 -254 95q-93 96 -93 264v145q0 168 92 264q93 97 255 97t240 -125v108h95v-1163h-95z" />
    <glyph glyph-name="Korea1.724" unicode="&#x24e1;" vert-adv-y="2263" 
d="M1737 627q1 348 -229 577q-230 230 -576 230t-576 -230t-229 -577q0 -347 229 -577q230 -230 576 -230t576 230t229 577zM1810 627q0 -379 -250 -630t-628 -251q-379 0 -629 251t-250 630t250 629t629 251q378 -1 628 -251t250 -629zM879 176h-95v836h97v-148
q80 164 241 164q57 0 123 -16l-35 -99q-53 14 -98 15q-104 0 -169 -78t-64 -199v-475z" />
    <glyph glyph-name="Korea1.725" unicode="&#x24e2;" vert-adv-y="2263" 
d="M1737 627q1 348 -229 577q-230 230 -576 230t-576 -230t-229 -577q0 -347 229 -577q230 -230 576 -230t576 230t229 577zM1810 627q0 -379 -250 -630t-628 -251q-379 0 -629 251t-250 630t250 629t629 251q378 -1 628 -251t250 -629zM936 283q100 0 158 41q57 41 57 100
v14q0 66 -54 102t-182 60q-272 49 -272 215v21q0 96 77 160t222 65q145 0 279 -92l-41 -70q-120 74 -228 74t-160 -39t-53 -96v-21q0 -100 213 -139q158 -29 225 -83t66 -153v-20q0 -100 -85 -164t-216 -63q-195 0 -319 98l45 76q125 -86 268 -86z" />
    <glyph glyph-name="Korea1.726" unicode="&#x24e3;" vert-adv-y="2263" 
d="M1737 627q1 348 -229 577q-230 230 -576 230t-576 -230t-229 -577q0 -347 229 -577q230 -230 576 -230t576 230t229 577zM1810 627q0 -379 -250 -630t-628 -251q-379 0 -629 251t-250 630t250 629t629 251q378 -1 628 -251t250 -629zM823 356v506h-145v82h145v217h97
v-217h235v-82h-235v-514q0 -88 26 -125t96 -37t117 15l15 -80q-49 -17 -150 -17t-151 58t-50 194z" />
    <glyph glyph-name="Korea1.727" unicode="&#x24e4;" vert-adv-y="2263" 
d="M1737 627q1 348 -229 577q-230 230 -576 230t-576 -230t-229 -577q0 -347 229 -577q230 -230 576 -230t576 230t229 577zM1810 627q0 -379 -250 -630t-628 -251q-379 0 -629 251t-250 630t250 629t629 251q378 -1 628 -251t250 -629zM901 174q-145 0 -220 76t-75 207v559
h94v-533q0 -225 207 -225q109 0 181 70t71 143v545h94v-834h-98v119q-27 -51 -95 -89t-159 -38z" />
    <glyph glyph-name="Korea1.728" unicode="&#x24e5;" vert-adv-y="2263" 
d="M1737 627q1 348 -229 577q-230 230 -576 230t-576 -230t-229 -577q0 -347 229 -577q230 -230 576 -230t576 230t229 577zM1810 627q0 -379 -250 -630t-628 -251q-379 0 -629 251t-250 630t250 629t629 251q378 -1 628 -251t250 -629zM987 168h-102l-310 829h101
q39 -106 126 -349t134 -372l252 721h102z" />
    <glyph glyph-name="Korea1.729" unicode="&#x24e6;" vert-adv-y="2263" 
d="M1737 627q1 348 -229 577q-230 230 -576 230t-576 -230t-229 -577q0 -347 229 -577q230 -230 576 -230t576 230t229 577zM1810 627q0 -379 -250 -630t-628 -251q-379 0 -629 251t-250 630t250 629t629 251q378 -1 628 -251t250 -629zM731 168h-115l-227 829h96l191 -731
l211 731h108l219 -731l187 731h92l-227 -829h-111l-215 727z" />
    <glyph glyph-name="Korea1.730" unicode="&#x24e7;" vert-adv-y="2263" 
d="M1737 627q1 348 -229 577q-230 230 -576 230t-576 -230t-229 -577q0 -347 229 -577q230 -230 576 -230t576 230t229 577zM1810 627q0 -379 -250 -630t-628 -251q-379 0 -629 251t-250 630t250 629t629 251q378 -1 628 -251t250 -629zM1280 1020l-281 -399l297 -431h-112
l-248 373l-252 -373h-104l297 431l-283 399h106l240 -344l234 344h106z" />
    <glyph glyph-name="Korea1.731" unicode="&#x24e8;" vert-adv-y="2263" 
d="M1737 627q1 348 -229 577q-230 230 -576 230t-576 -230t-229 -577q0 -347 229 -577q230 -230 576 -230t576 230t229 577zM1810 627q0 -379 -250 -630t-628 -251q-379 0 -629 251t-250 630t250 629t629 251q378 -1 628 -251t250 -629zM807 -6q10 26 104 282
q-118 327 -319 861h96l270 -736q14 45 41 135t41 136q129 338 174 465h97l-428 -1174z" />
    <glyph glyph-name="Korea1.732" unicode="&#x24e9;" vert-adv-y="2263" 
d="M1737 627q1 348 -229 577q-230 230 -576 230t-576 -230t-229 -577q0 -347 229 -577q230 -230 576 -230t576 230t229 577zM1810 627q0 -379 -250 -630t-628 -251q-379 0 -629 251t-250 630t250 629t629 251q378 -1 628 -251t250 -629zM1245 1038v-63l-516 -694h539v-80
h-654v78l514 679h-483v80h600z" />
    <glyph glyph-name="Korea1.8683" unicode="&#x24eb;" horiz-adv-x="1802" vert-adv-y="2263" 
 />
    <glyph glyph-name="Korea1.8684" unicode="&#x24ec;" horiz-adv-x="1802" vert-adv-y="2263" 
 />
    <glyph glyph-name="Korea1.8685" unicode="&#x24ed;" horiz-adv-x="1802" vert-adv-y="2263" 
 />
    <glyph glyph-name="Korea1.8686" unicode="&#x24ee;" horiz-adv-x="1802" vert-adv-y="2263" 
 />
    <glyph glyph-name="Korea1.8687" unicode="&#x24ef;" horiz-adv-x="1802" vert-adv-y="2263" 
 />
    <glyph glyph-name="Korea1.8688" unicode="&#x24f0;" horiz-adv-x="1802" vert-adv-y="2263" 
 />
    <glyph glyph-name="Korea1.8689" unicode="&#x24f1;" horiz-adv-x="1802" vert-adv-y="2263" 
 />
    <glyph glyph-name="Korea1.8690" unicode="&#x24f2;" horiz-adv-x="1802" vert-adv-y="2263" 
 />
    <glyph glyph-name="Korea1.8691" unicode="&#x24f3;" horiz-adv-x="1802" vert-adv-y="2263" 
 />
    <glyph glyph-name="Korea1.8692" unicode="&#x24f4;" horiz-adv-x="1802" vert-adv-y="2263" 
 />
    <glyph glyph-name="Korea1.519" unicode="&#x2500;" horiz-adv-x="1884" vert-adv-y="2263" 
d="M1884 645v-59h-1884v59h1884z" />
    <glyph glyph-name="Korea1.530" unicode="&#x2501;" horiz-adv-x="1884" vert-adv-y="2263" 
d="M1884 666v-111h-1884v111h1884z" />
    <glyph glyph-name="Korea1.520" unicode="&#x2502;" horiz-adv-x="1884" vert-adv-y="2263" 
d="M973 1638v-2048h-60v2048h60z" />
    <glyph glyph-name="Korea1.531" unicode="&#x2503;" horiz-adv-x="1884" vert-adv-y="2263" 
d="M997 1638v-2048h-110v2048h110z" />
    <glyph glyph-name="Korea1.521" unicode="&#x250c;" horiz-adv-x="1884" vert-adv-y="2263" 
d="M1884 645v-59h-911v-996h-60v1055h971z" />
    <glyph glyph-name="Korea1.558" unicode="&#x250d;" horiz-adv-x="1884" vert-adv-y="2263" 
d="M1884 688v-147h-903v-951h-78v1098h981z" />
    <glyph glyph-name="Korea1.557" unicode="&#x250e;" horiz-adv-x="1884" vert-adv-y="2263" 
d="M1884 651v-73h-864v-988h-156v1061h1020z" />
    <glyph glyph-name="Korea1.532" unicode="&#x250f;" horiz-adv-x="1884" vert-adv-y="2263" 
d="M1884 666v-111h-887v-965h-110v1076h997z" />
    <glyph glyph-name="Korea1.522" unicode="&#x2510;" horiz-adv-x="1884" vert-adv-y="2263" 
d="M973 645v-1055h-60v996h-913v59h973z" />
    <glyph glyph-name="Korea1.552" unicode="&#x2511;" horiz-adv-x="1884" vert-adv-y="2263" 
d="M981 688v-1098h-78v951h-903v147h981z" />
    <glyph glyph-name="Korea1.551" unicode="&#x2512;" horiz-adv-x="1884" vert-adv-y="2263" 
d="M1020 651v-1061h-156v988h-864v73h1020z" />
    <glyph glyph-name="Korea1.533" unicode="&#x2513;" horiz-adv-x="1884" vert-adv-y="2263" 
d="M997 666v-1076h-110v965h-887v111h997z" />
    <glyph glyph-name="Korea1.524" unicode="&#x2514;" horiz-adv-x="1884" vert-adv-y="2263" 
d="M1884 645v-59h-971v1052h60v-993h911z" />
    <glyph glyph-name="Korea1.556" unicode="&#x2515;" horiz-adv-x="1884" vert-adv-y="2263" 
d="M1884 688v-147h-981v1097h78v-950h903z" />
    <glyph glyph-name="Korea1.555" unicode="&#x2516;" horiz-adv-x="1884" vert-adv-y="2263" 
d="M1884 651v-73h-1020v1060h156v-987h864z" />
    <glyph glyph-name="Korea1.535" unicode="&#x2517;" horiz-adv-x="1884" vert-adv-y="2263" 
d="M1884 666v-111h-997v1083h110v-972h887z" />
    <glyph glyph-name="Korea1.523" unicode="&#x2518;" horiz-adv-x="1884" vert-adv-y="2263" 
d="M973 1638v-1052h-973v59h913v993h60z" />
    <glyph glyph-name="Korea1.554" unicode="&#x2519;" horiz-adv-x="1884" vert-adv-y="2263" 
d="M981 1638v-1097h-981v147h903v950h78z" />
    <glyph glyph-name="Korea1.553" unicode="&#x251a;" horiz-adv-x="1884" vert-adv-y="2263" 
d="M1020 1638v-1060h-1020v73h864v987h156z" />
    <glyph glyph-name="Korea1.534" unicode="&#x251b;" horiz-adv-x="1884" vert-adv-y="2263" 
d="M997 1638v-1083h-997v111h887v972h110z" />
    <glyph glyph-name="Korea1.525" unicode="&#x251c;" horiz-adv-x="1884" vert-adv-y="2263" 
d="M1884 645v-59h-911v-996h-60v2048h60v-993h911z" />
    <glyph glyph-name="Korea1.546" unicode="&#x251d;" horiz-adv-x="1884" vert-adv-y="2263" 
d="M1884 688v-147h-903v-951h-78v2048h78v-950h903z" />
    <glyph glyph-name="Korea1.559" unicode="&#x251e;" horiz-adv-x="1884" vert-adv-y="2263" 
d="M1884 651v-73h-905l2 -988h-78v1024h-39v1024h156v-987h864z" />
    <glyph glyph-name="Korea1.560" unicode="&#x251f;" horiz-adv-x="1884" vert-adv-y="2263" 
d="M1884 651v-73h-864v-988h-156v1024h39v1024h78v-987h903z" />
    <glyph glyph-name="Korea1.541" unicode="&#x2520;" horiz-adv-x="1884" vert-adv-y="2263" 
d="M1884 651v-73h-866v-988h-156v2048h156v-987h866z" />
    <glyph glyph-name="Korea1.561" unicode="&#x2521;" horiz-adv-x="1884" vert-adv-y="2263" 
d="M1884 688v-147h-903v-951h-78v1024h-39v1024h156v-950h864z" />
    <glyph glyph-name="Korea1.562" unicode="&#x2522;" horiz-adv-x="1884" vert-adv-y="2263" 
d="M1884 688v-147h-864v-951h-156v1024h39v1024h78v-950h903z" />
    <glyph glyph-name="Korea1.536" unicode="&#x2523;" horiz-adv-x="1884" vert-adv-y="2263" 
d="M1884 666v-111h-887v-965h-110v2048h110v-972h887z" />
    <glyph glyph-name="Korea1.527" unicode="&#x2524;" horiz-adv-x="1884" vert-adv-y="2263" 
d="M973 1638v-2048h-60v996h-913v59h913v993h60z" />
    <glyph glyph-name="Korea1.548" unicode="&#x2525;" horiz-adv-x="1884" vert-adv-y="2263" 
d="M981 1638v-2048h-78v951h-903v147h903v950h78z" />
    <glyph glyph-name="Korea1.563" unicode="&#x2526;" horiz-adv-x="1884" vert-adv-y="2263" 
d="M1020 1638v-1024h-39v-1024h-78v988h-903v73h864v987h156z" />
    <glyph glyph-name="Korea1.564" unicode="&#x2527;" horiz-adv-x="1884" vert-adv-y="2263" 
d="M1020 614v-1024h-156v988h-864v73h903v987h78v-1024h39z" />
    <glyph glyph-name="Korea1.543" unicode="&#x2528;" horiz-adv-x="1884" vert-adv-y="2263" 
d="M1020 1638v-2048h-156v988h-864v73h864v987h156z" />
    <glyph glyph-name="Korea1.565" unicode="&#x2529;" horiz-adv-x="1884" vert-adv-y="2263" 
d="M1020 1638v-1024h-39v-1024h-78v951h-903v147h864v950h156z" />
    <glyph glyph-name="Korea1.566" unicode="&#x252a;" horiz-adv-x="1884" vert-adv-y="2263" 
d="M1020 614v-1024h-156v951h-864v147h903v950h78v-1024h39z" />
    <glyph glyph-name="Korea1.538" unicode="&#x252b;" horiz-adv-x="1884" vert-adv-y="2263" 
d="M997 1638v-2048h-110v965h-887v111h887v972h110z" />
    <glyph glyph-name="Korea1.526" unicode="&#x252c;" horiz-adv-x="1884" vert-adv-y="2263" 
d="M1884 645v-59h-911v-996h-60v996h-913v59h1884z" />
    <glyph glyph-name="Korea1.567" unicode="&#x252d;" horiz-adv-x="1884" vert-adv-y="2263" 
d="M1884 651v-73h-903v-988h-78v951h-903v147h942v-37h942z" />
    <glyph glyph-name="Korea1.568" unicode="&#x252e;" horiz-adv-x="1884" vert-adv-y="2263" 
d="M1884 688v-147h-903v-951h-78v988h-903v73h942v37h942z" />
    <glyph glyph-name="Korea1.542" unicode="&#x252f;" horiz-adv-x="1884" vert-adv-y="2263" 
d="M1884 688v-147h-903v-951h-78v951h-903v147h1884z" />
    <glyph glyph-name="Korea1.547" unicode="&#x2530;" horiz-adv-x="1884" vert-adv-y="2263" 
d="M1884 651v-73h-864v-988h-156v988h-864v73h1884z" />
    <glyph glyph-name="Korea1.569" unicode="&#x2531;" horiz-adv-x="1884" vert-adv-y="2263" 
d="M1884 651v-73h-864v-988h-156v951h-864v147h942v-37h942z" />
    <glyph glyph-name="Korea1.570" unicode="&#x2532;" horiz-adv-x="1884" vert-adv-y="2263" 
d="M1884 688v-147h-864v-951h-156v988h-864v73h942v37h942z" />
    <glyph glyph-name="Korea1.537" unicode="&#x2533;" horiz-adv-x="1884" vert-adv-y="2263" 
d="M1884 666v-111h-887v-965h-110v965h-887v111h1884z" />
    <glyph glyph-name="Korea1.528" unicode="&#x2534;" horiz-adv-x="1884" vert-adv-y="2263" 
d="M1884 645v-59h-1884v59h913v993h60v-993h911z" />
    <glyph glyph-name="Korea1.571" unicode="&#x2535;" horiz-adv-x="1884" vert-adv-y="2263" 
d="M1884 651v-73h-942v-37h-942v147h903v950h78v-987h903z" />
    <glyph glyph-name="Korea1.572" unicode="&#x2536;" horiz-adv-x="1884" vert-adv-y="2263" 
d="M1884 688v-147h-942v37h-942v73h903v987h78v-950h903z" />
    <glyph glyph-name="Korea1.544" unicode="&#x2537;" horiz-adv-x="1884" vert-adv-y="2263" 
d="M1884 688v-147h-1884v147h903v950h78v-950h903z" />
    <glyph glyph-name="Korea1.549" unicode="&#x2538;" horiz-adv-x="1884" vert-adv-y="2263" 
d="M1884 651v-73h-1884v73h864v987h156v-987h864z" />
    <glyph glyph-name="Korea1.573" unicode="&#x2539;" horiz-adv-x="1884" vert-adv-y="2263" 
d="M1884 651v-73h-942v-37h-942v147h864v950h156v-987h864z" />
    <glyph glyph-name="Korea1.574" unicode="&#x253a;" horiz-adv-x="1884" vert-adv-y="2263" 
d="M1884 688v-147h-942v37h-942v73h864v987h156v-950h864z" />
    <glyph glyph-name="Korea1.539" unicode="&#x253b;" horiz-adv-x="1884" vert-adv-y="2263" 
d="M1884 666v-111h-1884v111h887v972h110v-972h887z" />
    <glyph glyph-name="Korea1.529" unicode="&#x253c;" horiz-adv-x="1884" vert-adv-y="2263" 
d="M1884 643v-59h-911v-994h-60v994h-913v59h913v995h60v-995h911z" />
    <glyph glyph-name="Korea1.575" unicode="&#x253d;" horiz-adv-x="1884" vert-adv-y="2263" 
d="M1884 651v-73h-903v-988h-78v951h-903v155h903v942h78v-987h903z" />
    <glyph glyph-name="Korea1.576" unicode="&#x253e;" horiz-adv-x="1884" vert-adv-y="2263" 
d="M1884 688v-147h-903v-951h-78v988h-903v73h903v987h78v-950h903z" />
    <glyph glyph-name="Korea1.545" unicode="&#x253f;" horiz-adv-x="1884" vert-adv-y="2263" 
d="M1884 688v-147h-903v-951h-78v951h-903v147h903v950h78v-950h903z" />
    <glyph glyph-name="Korea1.577" unicode="&#x2540;" horiz-adv-x="1884" vert-adv-y="2263" 
d="M1884 651v-73h-903v-988h-78v988h-903v73h864v987h156v-987h864z" />
    <glyph glyph-name="Korea1.578" unicode="&#x2541;" horiz-adv-x="1884" vert-adv-y="2263" 
d="M1884 651v-73h-864v-988h-156v988h-864v73h903v987h78v-987h903z" />
    <glyph glyph-name="Korea1.550" unicode="&#x2542;" horiz-adv-x="1884" vert-adv-y="2263" 
d="M1884 651v-73h-864v-988h-156v988h-864v73h864v987h156v-987h864z" />
    <glyph glyph-name="Korea1.579" unicode="&#x2543;" horiz-adv-x="1884" vert-adv-y="2263" 
d="M1884 651v-73h-903v-988h-78v951h-903v147h864v950h156v-987h864z" />
    <glyph glyph-name="Korea1.580" unicode="&#x2544;" horiz-adv-x="1884" vert-adv-y="2263" 
d="M1884 688v-147h-903v-951h-78v988h-903v73h864v987h156v-950h864z" />
    <glyph glyph-name="Korea1.581" unicode="&#x2545;" horiz-adv-x="1884" vert-adv-y="2263" 
d="M1884 651v-73h-864v-988h-156v951h-864v147h903v950h78v-987h903z" />
    <glyph glyph-name="Korea1.582" unicode="&#x2546;" horiz-adv-x="1884" vert-adv-y="2263" 
d="M1884 688v-147h-864v-951h-156v988h-864v73h903v987h78v-950h903z" />
    <glyph glyph-name="Korea1.583" unicode="&#x2547;" horiz-adv-x="1884" vert-adv-y="2263" 
d="M1884 688v-147h-903v-951h-78v951h-903v147h864v950h156v-950h864z" />
    <glyph glyph-name="Korea1.584" unicode="&#x2548;" horiz-adv-x="1884" vert-adv-y="2263" 
d="M1884 688v-147h-864v-951h-156v951h-864v147h903v950h78v-950h903z" />
    <glyph glyph-name="Korea1.585" unicode="&#x2549;" horiz-adv-x="1884" vert-adv-y="2263" 
d="M1884 651v-73h-864v-988h-156v951h-864v147h864v950h156v-987h864z" />
    <glyph glyph-name="Korea1.586" unicode="&#x254a;" horiz-adv-x="1884" vert-adv-y="2263" 
d="M1884 688v-147h-864v-951h-156v988h-864v73h864v987h156v-950h864z" />
    <glyph glyph-name="Korea1.540" unicode="&#x254b;" horiz-adv-x="1884" vert-adv-y="2263" 
d="M1884 666v-111h-887v-965h-110v965h-887v111h887v972h110v-972h887z" />
    <glyph glyph-name="Korea1.232" unicode="&#x2592;" vert-adv-y="2263" 
d="M1694 1370v-1522h-1524v1522h1524zM238 -84h1388v1387h-1388v-1387zM1561 1190q1 -23 -15 -37t-39 -14q-51 0 -51 51q0 23 14 38t37 15t39 -15t15 -38zM1368 1190q0 -51 -51 -51t-51 51q0 23 14 38t37 15t37 -15t14 -38zM1561 998q1 -22 -15 -35q-16 -15 -39 -15t-37 14
t-14 36t14 37t37 15t39 -14q16 -16 15 -38zM1368 998q0 -22 -14 -35q-14 -15 -37 -15t-37 14t-14 36t14 37t37 15t37 -14q14 -16 14 -38zM1178 1190q0 -23 -16 -37t-38 -14q-23 0 -38 14t-15 37t15 38t38 15q22 0 38 -15t16 -38zM1561 807q1 -23 -15 -38t-39 -15t-37 15
t-14 38t14 38t37 15t39 -15t15 -38zM1178 998q0 -22 -16 -35q-16 -15 -38 -15q-23 0 -38 14t-15 36t15 37t38 15q22 0 38 -14q16 -16 16 -38zM1368 807q0 -23 -14 -38t-37 -15t-37 15t-14 38t14 38t37 15t37 -15t14 -38zM983 1190q0 -51 -51 -51q-20 0 -36 14q-15 14 -15 37
t15 38t37 15t36 -15t14 -38zM1561 616q1 -22 -15 -37t-39 -15t-37 14q-14 16 -14 36q0 51 51 52q23 0 39 -14t15 -36zM983 998q0 -22 -14 -35q-13 -15 -35 -15t-38 14t-15 36q0 22 15 37t37 15t36 -14q14 -16 14 -38zM1178 807q0 -23 -16 -38t-38 -15q-23 0 -38 15t-15 38
t15 38t38 15q22 0 38 -15t16 -38zM1368 614q0 -20 -14 -35t-37 -15t-37 14q-14 16 -14 36q0 51 51 52q51 -1 51 -52zM793 1190q1 -23 -15 -37t-39 -14q-51 0 -51 51q0 23 14 38t37 15t39 -15t15 -38zM1561 422q1 -23 -15 -38t-39 -15t-37 15t-14 38t14 38t37 15t39 -15
t15 -38zM793 998q1 -22 -15 -35q-16 -15 -39 -15t-37 14t-14 36t14 37t37 15t39 -14q16 -16 15 -38zM983 807q0 -23 -14 -38q-13 -15 -35 -15t-38 15q-15 15 -15 38t15 38t37 15t36 -15t14 -38zM1178 616q0 -22 -16 -37t-38 -15q-23 0 -38 14q-15 16 -15 38t15 35
q15 15 38 15q22 0 38 -14t16 -36zM1368 422q0 -23 -14 -38t-37 -15t-37 15t-14 38t14 38t37 15t37 -15t14 -38zM600 1190q0 -23 -15 -37t-37 -14t-37 14t-15 37t15 38t37 15t36 -15q16 -15 16 -38zM1561 230q1 -22 -15 -36t-39 -16q-23 0 -37 16t-14 36q0 22 14 36t37 14
t39 -14t15 -36zM358 1243q50 0 50 -52t-50 -52q-24 0 -38 14t-15 37t15 38t38 15zM600 998q0 -22 -15 -35q-15 -15 -37 -15t-37 14t-15 36t15 37t37 15t36 -14q16 -16 16 -38zM793 807q1 -23 -15 -38t-39 -15t-37 15t-14 38t14 38t37 15t39 -15t15 -38zM983 614
q0 -20 -14 -35q-13 -15 -35 -15t-38 14q-16 16 -15 38q0 22 15 35q15 14 36 15q51 -1 51 -52zM1178 422q0 -23 -16 -38t-38 -15q-23 0 -38 15t-15 38t15 38t38 15q22 0 38 -15t16 -38zM1368 230q0 -22 -14 -36t-37 -16q-23 0 -37 16t-14 36q0 22 14 36t37 14t37 -14t14 -36z
M1561 39q1 -23 -15 -38t-39 -15t-37 15t-14 38q0 51 51 51q23 0 39 -14t15 -37zM408 997q0 -20 -14 -34q-14 -15 -36 -15q-24 0 -38 14t-14 36t14 37q16 15 38 16q50 -1 50 -54zM1368 39q0 -23 -14 -38t-37 -15t-37 15t-14 38q0 51 51 51t51 -51zM600 807q0 -23 -15 -38
t-37 -15t-37 15t-15 38t15 38t37 15t36 -15q16 -15 16 -38zM793 616q1 -22 -15 -37t-39 -15t-37 14q-14 16 -14 36q0 51 51 52q23 0 39 -14t15 -36zM983 422q0 -23 -14 -38q-13 -15 -35 -15t-38 15q-15 15 -15 38t15 38t37 15t36 -15t14 -38zM1178 230q0 -22 -16 -36
t-38 -16q-23 0 -38 16t-15 36q0 22 15 36t38 14q22 0 38 -14t16 -36zM408 807q0 -53 -50 -53q-24 0 -38 15t-15 38t15 38t38 15q50 0 50 -53zM1178 39q0 -23 -16 -38t-38 -15q-23 0 -38 15t-15 38t15 37t38 14q22 0 38 -14t16 -37zM600 616q0 -22 -15 -37t-37 -15t-37 14
q-15 16 -15 38t15 35q15 15 37 15t36 -14q16 -14 16 -36zM793 422q1 -23 -15 -38t-39 -15t-37 15t-14 38t14 38t37 15t39 -15t15 -38zM983 230q0 -22 -14 -36q-13 -14 -35 -16q-22 0 -38 16t-15 36q0 22 15 36t37 14t36 -14t14 -36zM408 614q0 -20 -14 -35t-36 -15
q-24 0 -38 14q-14 16 -14 38t14 35q16 14 38 15q50 -1 50 -52zM983 39q0 -23 -14 -38q-13 -15 -35 -15t-38 15q-15 15 -15 38t15 37t36 14q51 0 51 -51zM600 422q0 -23 -15 -38t-37 -15t-37 15t-15 38t15 38t37 15t36 -15q16 -15 16 -38zM793 230q1 -22 -15 -36t-39 -16
q-23 0 -37 16t-14 36q0 22 14 36t37 14t39 -14t15 -36zM408 422q0 -53 -50 -53q-24 0 -38 15t-15 38t15 38t38 15q50 0 50 -53zM793 39q1 -23 -15 -38t-39 -15t-37 15t-14 38q0 51 51 51q23 0 39 -14t15 -37zM600 230q0 -22 -15 -36t-37 -16q-22 0 -37 16t-15 36q0 22 15 36
t37 14t36 -14q16 -14 16 -36zM408 231q0 -53 -50 -53q-24 0 -38 16t-14 36q0 22 14 36q16 14 38 14t36 -14q14 -15 14 -35zM600 39q0 -23 -15 -38t-37 -15t-37 15t-15 38t15 37t37 14t36 -14q16 -14 16 -37zM358 90q50 0 50 -52t-50 -52q-24 0 -38 15t-15 38t15 37t38 14z
" />
    <glyph glyph-name="Korea1.165" unicode="&#x25a0;" vert-adv-y="2263" 
d="M1630 29h-1394v1392h1394v-1392z" />
    <glyph glyph-name="Korea1.164" unicode="&#x25a1;" vert-adv-y="2263" 
d="M1546 1341h-1235v-1232h1235v1232zM233 29v1392h1393v-1392h-1393z" />
    <glyph glyph-name="Korea1.229" unicode="&#x25a3;" vert-adv-y="2263" 
d="M1688 1364v-1507h-1510v1507h1510zM242 -80h1382v1380h-1382v-1380zM1409 1085v-952h-952v952h952z" />
    <glyph glyph-name="Korea1.233" unicode="&#x25a4;" vert-adv-y="2263" 
d="M1694 1370v-1522h-1524v1522h1524zM238 1163h1388v140h-1388v-140zM238 948h1388v150h-1388v-150zM238 748h1388v135h-1388v-135zM238 537h1388v145h-1388v-145zM238 324h1388v147h-1388v-147zM238 119h1388v139h-1388v-139zM238 -84h1388v137h-1388v-137z" />
    <glyph glyph-name="Korea1.234" unicode="&#x25a5;" vert-adv-y="2263" 
d="M1694 1370v-1522h-1524v1522h1524zM1487 -84h139v1387h-139v-1387zM1282 -84h139v1387h-139v-1387zM1069 -84h148v1387h-148v-1387zM858 -84h146v1387h-146v-1387zM657 -84h136v1387h-136v-1387zM442 -84h150v1387h-150v-1387zM238 -84h139v1387h-139v-1387z" />
    <glyph glyph-name="Korea1.237" unicode="&#x25a6;" vert-adv-y="2263" 
d="M1694 1370v-1522h-1524v1522h1524zM1481 1157h145v146h-145v-146zM1481 950h145v146h-145v-146zM1272 1157h145v146h-145v-146zM1481 743h145v146h-145v-146zM1065 1157h145v146h-145v-146zM1272 950h145v146h-145v-146zM1481 537h145v145h-145v-145zM858 1157h146v146
h-146v-146zM1065 950h145v146h-145v-146zM1272 743h145v146h-145v-146zM1481 330h145v145h-145v-145zM651 1157h146v146h-146v-146zM858 950h146v146h-146v-146zM1065 743h145v146h-145v-146zM1272 537h145v145h-145v-145zM1481 123h145v145h-145v-145zM444 1157h146v146
h-146v-146zM651 950h146v146h-146v-146zM858 743h146v146h-146v-146zM1065 537h145v145h-145v-145zM1272 330h145v145h-145v-145zM1481 -84h145v145h-145v-145zM238 1157h145v146h-145v-146zM444 950h146v146h-146v-146zM651 743h146v146h-146v-146zM858 537h146v145h-146
v-145zM1065 330h145v145h-145v-145zM1272 123h145v145h-145v-145zM1272 -84h145v145h-145v-145zM238 950h145v146h-145v-146zM444 743h146v146h-146v-146zM651 537h146v145h-146v-145zM858 330h146v145h-146v-145zM1065 123h145v145h-145v-145zM1065 -84h145v145h-145v-145z
M238 743h145v146h-145v-146zM444 537h146v145h-146v-145zM651 330h146v145h-146v-145zM858 123h146v145h-146v-145zM858 -84h146v145h-146v-145zM238 537h145v145h-145v-145zM444 330h146v145h-146v-145zM651 123h146v145h-146v-145zM651 -84h146v145h-146v-145zM238 330
h145v145h-145v-145zM444 123h146v145h-146v-145zM444 -84h146v145h-146v-145zM238 123h145v145h-145v-145zM238 -84h145v145h-145v-145z" />
    <glyph glyph-name="Korea1.236" unicode="&#x25a7;" vert-adv-y="2263" 
d="M1694 1370v-1522h-1524v1522h1524zM1626 1303h-317l317 -316v316zM967 1303l659 -658v244l-416 414h-243zM627 1303l999 -998v242l-758 756h-241zM289 1303l1337 -1338v242l-1098 1096h-239zM1335 -84h242l-1339 1339v-241zM995 -84h242l-999 999v-241zM655 -84h242
l-659 659v-241zM238 -84h319l-319 320v-320z" />
    <glyph glyph-name="Korea1.235" unicode="&#x25a8;" vert-adv-y="2263" 
d="M1694 1370v-1522h-1524v1522h1524zM528 -84l1098 1098v241l-1339 -1339h241zM868 -84l758 758v241l-999 -999h241zM1208 -84l418 418v241l-659 -659h241zM1626 -84v320l-319 -320h319zM238 1303v-316l317 316h-317zM238 645l659 658h-244l-415 -414v-244zM238 305
l999 998h-242l-757 -756v-242zM238 -35l1337 1338h-240l-1097 -1096v-242z" />
    <glyph glyph-name="Korea1.238" unicode="&#x25a9;" vert-adv-y="2263" 
d="M1694 1370v-1522h-1524v1522h1524zM1489 1122l137 -135v273zM1440 1171l133 132h-264zM1454 815l123 123l-135 137l-125 -123zM1270 999l121 123l-131 131l-123 -120zM1090 1180l122 123h-245zM1503 766l123 -123v246zM918 1012l122 121l-122 120l-121 -120zM1100 831
l121 121l-134 129l-120 -118zM1284 645l121 123l-135 135l-121 -121zM1456 475l121 121l-123 121l-121 -121zM748 1182l120 121h-241zM1505 426l121 -121v242zM1114 477l123 119l-139 137l-119 -121zM578 1014l120 119l-123 122l-118 -120zM930 662l119 120l-131 131
l-119 -120zM1286 305l121 121l-123 121l-119 -119zM1456 135l121 121l-121 121l-121 -121zM750 842l118 121l-123 120l-118 -118zM408 1184l120 119h-239zM1505 86l121 -121v242zM1335 -84h242l-121 121zM238 1014l120 121l-120 120v-241zM944 307l123 119l-137 139
l-121 -123zM408 844l120 121l-120 120l-121 -120zM578 674l120 121l-120 120l-121 -120zM760 494l119 118l-131 133l-121 -120zM1116 135l121 121l-121 121l-121 -121zM1286 -35l121 121l-121 121l-121 -121zM995 -84h242l-121 121zM238 674l120 121l-120 120v-241zM408 504
l120 121l-120 120l-121 -120zM588 324l121 120l-131 131l-121 -120zM774 135l123 121l-137 139l-123 -121zM946 -35l121 121l-121 121l-121 -121zM238 336l120 119l-120 120v-239zM653 -84h244l-121 121zM418 154l121 120l-131 132l-121 -121zM606 -35l119 123l-137 137
l-121 -121zM238 -27l131 131l-131 132v-263zM281 -84h276l-139 139z" />
    <glyph glyph-name="Korea1.8736" unicode="&#x25b1;" horiz-adv-x="1802" vert-adv-y="2263" 
 />
    <glyph glyph-name="Korea1.167" unicode="&#x25b2;" vert-adv-y="2263" 
d="M1677 -174h-1489l744 1483z" />
    <glyph glyph-name="Korea1.166" unicode="&#x25b3;" vert-adv-y="2263" 
d="M332 -96h1194l-598 1192zM1679 -184h-1493l746 1482z" />
    <glyph glyph-name="Korea1.8780" unicode="&#x25b5;" horiz-adv-x="1802" vert-adv-y="2263" 
 />
    <glyph glyph-name="Korea1.220" unicode="&#x25b6;" vert-adv-y="2263" 
d="M305 1405l1254 -791l-1254 -786v1577z" />
    <glyph glyph-name="Korea1.219" unicode="&#x25b7;" vert-adv-y="2263" 
d="M305 1405l1254 -791l-1254 -786v1577zM338 -104l1149 718l-1149 723v-1441z" />
    <glyph glyph-name="Korea1.8781" unicode="&#x25b9;" horiz-adv-x="1802" vert-adv-y="2263" 
 />
    <glyph glyph-name="Korea1.169" unicode="&#x25bc;" vert-adv-y="2263" 
d="M188 1313h1489l-745 -1483z" />
    <glyph glyph-name="Korea1.168" unicode="&#x25bd;" vert-adv-y="2263" 
d="M1530 1223h-1194l596 -1192zM186 1313h1493l-747 -1483z" />
    <glyph glyph-name="Korea1.8779" unicode="&#x25bf;" horiz-adv-x="1802" vert-adv-y="2263" 
 />
    <glyph glyph-name="Korea1.218" unicode="&#x25c0;" vert-adv-y="2263" 
d="M1559 1405v-1577l-1254 786z" />
    <glyph glyph-name="Korea1.217" unicode="&#x25c1;" vert-adv-y="2263" 
d="M1559 1405v-1577l-1254 786zM379 614l1149 -718v1441z" />
    <glyph glyph-name="Korea1.8782" unicode="&#x25c3;" horiz-adv-x="1802" vert-adv-y="2263" 
 />
    <glyph glyph-name="Korea1.163" unicode="&#x25c6;" vert-adv-y="2263" 
d="M934 -66l-791 791l789 786l788 -788z" />
    <glyph glyph-name="Korea1.162" unicode="&#x25c7;" vert-adv-y="2263" 
d="M1589 723l-657 659l-658 -657l658 -659zM143 723l789 788l786 -788l-786 -789z" />
    <glyph glyph-name="Korea1.228" unicode="&#x25c8;" vert-adv-y="2263" 
d="M932 1491l880 -881l-882 -878l-877 876zM930 -186l796 796l-794 793l-797 -795zM932 1163l555 -555l-555 -553l-555 553z" />
    <glyph glyph-name="Korea1.8787" unicode="&#x25ca;" horiz-adv-x="1802" vert-adv-y="2263" 
 />
    <glyph glyph-name="Korea1.159" unicode="&#x25cb;" vert-adv-y="2263" 
d="M279 725q0 -269 190 -459q191 -190 461 -190t461 190q190 190 190 460t-191 460q-190 192 -460 192t-461 -192q-190 -193 -190 -461zM203 724q0 302 212 516t513 214t515 -214t214 -516t-213 -514t-515 -212t-514 212t-212 514z" />
    <glyph glyph-name="Korea1.8639" unicode="&#x25cc;" horiz-adv-x="1802" vert-adv-y="2263" 
 />
    <glyph glyph-name="Korea1.161" unicode="&#x25ce;" vert-adv-y="2263" 
d="M584 725q0 -141 101 -243t243 -101q142 0 246 101q102 100 102 242t-102 246t-244 103q-142 0 -245 -103q-101 -104 -101 -245zM487 725q0 182 129 311q130 129 312 129t311 -129t129 -311t-129 -311t-311 -129t-312 129q-129 129 -129 311zM283 725q0 -265 188 -455
q187 -190 457 -190t458 188t188 456t-188 458q-190 190 -457 190t-457 -190q-189 -191 -189 -457zM203 724q0 302 212 516t513 214t515 -214t214 -516t-213 -514t-515 -212t-514 212t-212 514z" />
    <glyph glyph-name="Korea1.160" unicode="&#x25cf;" vert-adv-y="2263" 
d="M203 724q0 302 212 516t513 214t515 -214t214 -516t-213 -514t-515 -212t-514 212t-212 514z" />
    <glyph glyph-name="Korea1.230" unicode="&#x25d0;" vert-adv-y="2263" 
d="M1731 612q1 -332 -233 -565t-564 -233t-566 234t-235 564q0 330 236 564q235 234 565 235t564 -233t233 -566zM1651 612q0 295 -212 507t-507 212v-1435q295 0 507 210t212 506z" />
    <glyph glyph-name="Korea1.231" unicode="&#x25d1;" vert-adv-y="2263" 
d="M1731 612q0 -330 -236 -564q-235 -234 -565 -234t-563 233t-234 565t233 566t564 233t566 -235t235 -564zM932 -104v1435q-295 0 -507 -212t-212 -507q0 -296 212 -506t507 -210z" />
    <glyph glyph-name="Korea1.8775" unicode="&#x25e6;" horiz-adv-x="1802" vert-adv-y="2263" 
 />
    <glyph glyph-name="Korea1.8633" unicode="&#x25ef;" horiz-adv-x="1802" vert-adv-y="2263" 
 />
    <glyph glyph-name="Korea1.158" unicode="&#x2605;" vert-adv-y="2263" 
d="M936 1577l219 -647h684l-553 -412l205 -653l-555 397l-565 -397l213 653l-557 412h692z" />
    <glyph glyph-name="Korea1.157" unicode="&#x2606;" vert-adv-y="2263" 
d="M1120 879l-186 542l-180 -542h-580l465 -347l-182 -548l477 333l467 -333l-172 548l465 347h-574zM936 1577l219 -647h684l-553 -412l205 -653l-555 397l-565 -397l213 653l-557 412h692z" />
    <glyph glyph-name="Korea1.241" unicode="&#x260e;" vert-adv-y="2263" 
d="M1604 -43h-1344q-68 0 -70 33q-6 51 4 102t39 62q0 225 144 346q53 42 81 70q75 73 110 205q36 132 20 251q-102 -16 -113 -76q-4 -18 18 -80t15 -82q-12 -63 -174 -110q-181 -44 -219 -36q-38 9 -49 30q-29 36 -13 144t70 175q94 123 319 185q226 62 490 63
q264 0 489 -62t320 -186q53 -68 69 -175t-12 -144q-33 -56 -268 6q-162 47 -174 110q-6 23 14 83t19 79q-10 59 -113 76q-16 -129 18 -252t112 -204q28 -28 81 -70q143 -121 143 -346q29 -10 39 -62t4 -102q-2 -33 -69 -33zM772 899h320v133q-78 -20 -160 -20t-160 20v-133z
M1233 426q0 125 -88 213t-213 88t-213 -88t-88 -213t88 -212t213 -87t213 87t88 212z" />
    <glyph glyph-name="Korea1.240" unicode="&#x260f;" vert-adv-y="2263" 
d="M1604 -43h-1344q-68 0 -70 33q-6 51 4 102t39 62q0 225 144 346q53 42 81 70q75 73 110 206q36 133 20 260q-104 -20 -117 -86q-5 -18 19 -80t18 -82q-12 -63 -174 -110q-181 -44 -219 -36q-38 9 -49 30q-29 38 -13 146t70 175q94 123 318 185q225 62 491 61
q266 0 490 -61t319 -185q53 -68 69 -176t-12 -145q-33 -56 -268 6q-162 47 -174 110q-6 23 16 83q23 60 21 79q-12 66 -117 86q-18 -137 22 -270q31 -116 108 -196q28 -28 81 -70q143 -121 143 -346q29 -10 39 -62t4 -102q-2 -33 -69 -33zM756 905h352v146q-180 -42 -352 0
v-146zM914 1214q-196 0 -406 -50q-209 -50 -291 -118t-112 -155q-29 -87 -23 -149t24 -66q72 -6 176 22t185 66q14 8 3 47t-24 81q-12 42 4 88t71 70q53 24 143 24t152 -13q62 -12 117 -12q53 0 115 12t151 12q89 -1 140 -23t76 -73q21 -56 -21 -166q-11 -29 5 -47
q72 -38 180 -66t180 -22q20 4 26 65q5 61 -25 149t-108 154t-310 118t-428 52zM225 -18h1413q10 0 14 28t-4 60q-9 33 -32 45q0 211 -92 299q-34 34 -76 73t-55 53q-12 15 -42 48t-55 102q-70 190 -55 359h-108v-168h-402v168h-106q14 -164 -58 -359q-34 -87 -110 -166
q-25 -26 -116 -112t-91 -297q-23 -12 -32 -45q-9 -32 -5 -60t12 -28zM1296 431q0 -151 -108 -259t-256 -106q-150 0 -258 108t-107 256q0 150 108 258q107 108 257 107t257 -107t107 -257zM1268 431q0 139 -100 237t-236 98t-236 -98t-100 -236t98 -237t238 -99t238 98
t98 237z" />
    <glyph glyph-name="Korea1.242" unicode="&#x261c;" vert-adv-y="2263" 
d="M956 647q0 33 -41 35q-180 10 -274 0q-43 -6 -39 -45q0 -15 11 -27t30 -12q158 -8 275 4q38 6 38 45zM1038 397q-2 37 -63 37q-143 4 -232 -2q-45 -4 -36 -49q4 -31 36 -37q100 -20 234 -8q67 4 61 59zM940 465q60 -1 64 45q2 24 -12 37q-14 12 -62 18q-50 6 -228 -2
q-20 -2 -33 -16t-14 -35q0 -33 52 -41q18 -4 123 -6t110 0zM1612 410h90v415h-90v-415zM162 838q0 -28 39 -38q39 -9 170 -18q313 -14 383 -16l43 65q35 48 82 64q-139 0 -381 -6q-242 -7 -289 -15t-47 -36zM1581 444v316q-47 -4 -90 6q10 -40 5 -38q-5 1 -15 11
q-39 47 -107 93t-195 59q-126 14 -196 5t-135 -50q-23 -12 -42 -51t-42 -54q-12 -16 9 -19q50 -7 100 38q24 20 36 32q13 12 21 3q8 -8 -12 -29q73 -28 158 25q9 4 11 0q8 -23 -28 -48q16 -23 73 -65t145 -56q87 -14 109 -17t23 -13q-2 -12 -64 -8t-114 18q-137 45 -205 137
q-12 -8 -51 -7t-82 13l-31 -26q121 0 133 -51q14 -53 -22 -84q57 -14 63 -58q4 -41 -30 -65q59 -11 64 -53t-26 -72q29 -6 72 0q250 23 414 127q12 10 14 -2l-4 -17h41zM1735 860v-483h-156v43h-59q-129 -78 -344 -113q-78 -10 -203 -10t-209 13q-84 14 -94 60t28 70
q-28 0 -52 20t-26 52q-2 33 23 57q-74 8 -74 68q0 45 39 63t129 19l-6 16q-495 14 -549 37q-55 22 -55 66q0 66 219 77q92 13 356 13h283q113 0 173 -4t150 -32t150 -85q66 -16 123 -12v65h154z" />
    <glyph glyph-name="Korea1.9222" unicode="&#x261d;" horiz-adv-x="1802" vert-adv-y="2263" 
 />
    <glyph glyph-name="Korea1.243" unicode="&#x261e;" vert-adv-y="2263" 
d="M905 647q0 -39 39 -45q117 -12 275 -4q17 0 29 12t12 27q4 39 -39 45q-94 10 -275 0q-41 -2 -41 -35zM1118 346q33 6 39 44t-39 42q-88 6 -231 2q-61 0 -64 -37q-6 -55 62 -59q133 -12 233 8zM1206 512q0 20 -13 34t-34 17q-177 8 -227 2t-63 -18q-13 -13 -11 -37
q4 -45 64 -45q4 -2 109 0t124 6q51 8 51 41zM160 410h90v415h-90v-415zM1700 838q0 28 -47 36q-128 20 -670 21q47 -16 82 -64l43 -65q70 2 383 16q173 12 191 26t18 30zM281 444h41l-5 17q-4 12 9 6q2 0 6 -4q164 -104 413 -127q39 -6 70 0q-11 0 -20 24q-8 24 -4 43
q6 45 65 58q-35 25 -31 65q10 43 64 58q-37 31 -23 84q16 51 133 51l-30 26q-43 -12 -82 -13t-51 7q-68 -92 -205 -137q-51 -14 -113 -18t-65 8q1 10 23 13q116 15 169 33q53 17 97 50t61 55q-37 25 -29 48q3 5 33 -11q73 -39 137 -14q-18 20 -11 28t19 -2q54 -50 99 -68
q44 -18 49 7q2 6 -2 10q-22 13 -42 53t-42 52q-66 41 -136 50t-195 -5q-127 -14 -195 -59t-107 -93q-14 -14 -15 -7q-2 7 5 34q-43 -10 -90 -6v-316zM1292 637q0 -59 -73 -68q25 -25 23 -57t-27 -52q-24 -19 -52 -20q39 -24 29 -70t-94 -60t-210 -13q-124 0 -202 10
q-215 35 -344 113h-59v-43h-156v483h154v-65q57 -4 122 12q61 57 151 85t149 32q60 4 126 4h76q461 0 611 -10t185 -30q34 -20 34 -48q1 -29 -15 -46q-33 -37 -207 -42l-22 -2h-10q-143 -8 -351 -15l-6 -16q90 -1 129 -19t39 -63z" />
    <glyph glyph-name="Korea1.9223" unicode="&#x261f;" horiz-adv-x="1802" vert-adv-y="2263" 
 />
    <glyph glyph-name="Korea1.8664" unicode="&#x262f;" horiz-adv-x="1802" vert-adv-y="2263" 
 />
    <glyph glyph-name="Korea1.147" unicode="&#x2640;" horiz-adv-x="1335" vert-adv-y="2263" 
d="M207 947q0 -196 133 -334t327 -138q193 0 327 138t134 334t-133 333t-327 137t-328 -137q-133 -137 -133 -333zM602 113v270q-215 31 -358 189q-144 158 -144 384t165 392t402 166t403 -166t165 -394q0 -228 -142 -385q-142 -158 -358 -186v-270h293v-121h-293v-297h-133
v297h-297v121h297z" />
    <glyph glyph-name="Korea1.146" unicode="&#x2642;" horiz-adv-x="1589" vert-adv-y="2263" 
d="M667 66q193 0 327 138t134 334t-133 332t-327 138q-194 0 -328 -137q-133 -137 -133 -333t133 -334t327 -138zM100 537q0 235 165 401t403 166q193 0 352 -123l260 258h-231v119h442v-440h-121v233l-260 -262q125 -158 125 -352q0 -236 -166 -402q-167 -166 -403 -166
t-401 166t-165 402z" />
    <glyph glyph-name="Korea1.222" unicode="&#x2660;" vert-adv-y="2263" 
d="M1595 418q1 -137 -77 -223t-205 -86q-80 0 -248 94q4 -80 35 -193t69 -188q18 -39 -28 -45q-92 -10 -207 -10t-211 10q-47 6 -29 45q88 180 107 381q-115 -63 -163 -78q-48 -16 -87 -16q-127 0 -204 86t-77 219q0 163 203 452q161 229 303 406q142 178 156 196
q367 -457 489 -643q174 -270 174 -407z" />
    <glyph glyph-name="Korea1.223" unicode="&#x2661;" vert-adv-y="2263" 
d="M1292 1370q142 0 246 -114t104 -266q0 -292 -247 -639q-201 -280 -463 -535q-262 258 -461 535q-248 345 -248 639q1 154 105 266q104 114 254 114q270 0 350 -364q43 190 131 277q87 87 229 87zM1589 974q0 152 -90 252t-237 101q-92 0 -168 -85t-107 -183
q-2 -10 -8 -45t-15 -46q-10 -12 -28 -12q-33 -1 -43 20t-15 47q-22 113 -103 208q-81 96 -173 96q-137 0 -231 -101q-171 -184 -33 -514q101 -244 373 -571q104 -125 221 -245q162 166 298 334t248 381q111 211 111 363z" />
    <glyph glyph-name="Korea1.226" unicode="&#x2663;" vert-adv-y="2263" 
d="M1407 797q143 0 239 -109q96 -108 95 -258q0 -150 -96 -262t-248 -111q-94 -1 -180 51t-144 115q78 -190 78 -411q0 -27 -37 -33t-87 -6h-75q-24 0 -108 -2q-131 -3 -131 41q-1 110 23 226t57 185q-156 -166 -316 -166t-257 112t-97 261t96 258t240 109q98 0 246 -74
q12 -6 28 -6q37 0 37 31q0 16 -22 38q-102 90 -143 162q-40 72 -40 178q0 144 109 236q108 92 258 92t258 -91t108 -237q0 -106 -40 -178t-142 -162q-23 -23 -22 -38q0 -31 36 -31q12 0 29 6q152 74 248 74z" />
    <glyph glyph-name="Korea1.221" unicode="&#x2664;" vert-adv-y="2263" 
d="M1595 418q1 -137 -77 -223t-205 -86q-80 0 -248 94q4 -80 35 -193t69 -188q18 -39 -28 -45q-92 -10 -207 -10t-211 10q-47 6 -29 45q88 180 107 381q-115 -63 -163 -78q-48 -16 -87 -16q-127 0 -204 86t-77 219q0 163 203 452q161 229 303 406q142 178 156 196
q367 -457 489 -643q174 -270 174 -407zM1540 412q0 242 -608 972q-608 -731 -608 -972q0 -92 51 -170t139 -78t184 52t119 52t37 -9t6 -77q-8 -115 -76 -329q-8 -37 49 -41q197 -14 234 12q14 10 10 29q-66 207 -73 329q-6 54 1 70t48 16q16 0 113 -52t184 -52t139 78
q51 78 51 170z" />
    <glyph glyph-name="Korea1.224" unicode="&#x2665;" vert-adv-y="2263" 
d="M1292 1370q142 0 246 -114t104 -266q0 -292 -247 -639q-201 -280 -463 -535q-262 258 -461 535q-248 345 -248 639q1 154 105 266q104 114 254 114q270 0 350 -364q43 190 131 277q87 87 229 87z" />
    <glyph glyph-name="Korea1.225" unicode="&#x2667;" vert-adv-y="2263" 
d="M1407 797q143 0 239 -109q96 -108 95 -258q0 -150 -96 -262t-248 -111q-94 -1 -180 51t-144 115q78 -190 78 -411q0 -27 -37 -33t-87 -6h-75q-24 0 -108 -2q-131 -3 -131 41q-1 110 23 226t57 185q-156 -166 -316 -166t-257 112t-97 261t96 258t240 109q98 0 246 -74
q12 -6 28 -6q37 0 37 31q0 16 -22 38q-102 90 -143 162q-40 72 -40 178q0 144 109 236q108 92 258 92t258 -91t108 -237q0 -106 -40 -178t-142 -162q-23 -23 -22 -38q0 -31 36 -31q12 0 29 6q152 74 248 74zM801 -145q0 -35 66 -35h132t66 35q0 123 -34 247t-34 160
q-1 37 7 49q8 13 34 13t66 -32q39 -32 75 -69q37 -37 101 -69t137 -31q117 0 185 93q67 93 67 210t-66 214q-67 97 -163 97t-199 -62q-102 -63 -143 -63t-70 34t-29 78t24 75q23 31 57 59t68 61q81 81 81 226q0 113 -91 181t-205 69q-114 0 -206 -70t-92 -171t36 -169
q36 -67 80 -99q115 -82 115 -144t-28 -96t-71 -34q-42 0 -91 32q-145 94 -246 94q-100 -1 -168 -98t-68 -214t70 -210q68 -93 185 -93q76 0 139 32q63 33 98 69q96 101 143 100q23 0 30 -12t7 -50q0 -37 -32 -161t-33 -246z" />
    <glyph glyph-name="Korea1.239" unicode="&#x2668;" vert-adv-y="2263" 
d="M1253 1042q-13 -104 35 -226t57 -210t-15 -161t-76 -153t-56 -85q-39 -76 -57 -150q-16 -33 -33 5q-10 22 -8 88t20 110q119 297 54 453q-81 185 -49 335q13 60 45 135t30 148q0 19 9 23t20 -19q53 -100 24 -293zM956 1434q0 14 6 19t13 0q9 -5 23 -39t20 -116
q6 -84 -25 -196q-49 -140 9 -288t73 -228q0 -33 2 -56q7 -76 -108 -291q-78 -146 -80 -172q-3 -38 -17 -35q-15 3 -20 15q-45 104 16 252q37 86 40 220t-45 234q-47 101 -45 163q1 63 2 93q2 60 89 234q47 96 47 191zM700 1036q-18 -68 29 -246t56 -267q9 -88 -113 -326
q-45 -85 -47 -111t-13 -35t-24 19q-42 88 0 200t42 241q0 128 -30 196q-100 242 45 512q33 57 41 95q16 73 35 29q37 -106 -21 -307zM1747 207q0 -184 -238 -306q-237 -122 -569 -122t-579 106t-246 267q0 76 48 142t126 110q148 81 252 108q25 8 27 -10t-23 -27
q-281 -127 -281 -282q0 -97 206 -153t470 -56t473 70t209 182q0 76 -80 139t-156 86q-24 8 -18 22q12 27 116 -14q150 -56 220 -143q43 -56 43 -119z" />
    <glyph glyph-name="Korea1.253" unicode="&#x2669;" horiz-adv-x="794" vert-adv-y="2263" 
d="M590 1356v-1120q0 -92 -14 -150t-58 -106q-61 -74 -142 -103t-143 27q-49 68 -13 148t115 126q79 47 177 62v1116h78z" />
    <glyph glyph-name="Korea1.254" unicode="&#x266a;" horiz-adv-x="1103" vert-adv-y="2263" 
d="M981 694q0 -198 -180 -375q-61 -59 -101 -83t-48 -12q-7 11 10 28q203 197 202 395q0 138 -180 220q-64 30 -176 65v-696q0 -92 -14 -150t-58 -106q-61 -74 -142 -103t-142 27q-50 68 -14 148t115 126q79 47 177 62v1024q0 82 20 82t76 -66t129 -129q176 -151 251 -257
t75 -200z" />
    <glyph glyph-name="Korea1.255" unicode="&#x266c;" horiz-adv-x="1419" vert-adv-y="2263" 
d="M1307 391q0 -129 -138 -244q-88 -74 -172 -67q-47 4 -75 41q-31 49 -1 119q67 157 304 190v373l-711 -154v-456q0 -129 -137 -244q-87 -73 -172 -68q-47 4 -76 41q-31 49 -1 119q68 159 304 190v914l875 176v-930zM514 844l711 151v119l-711 -151v-119z" />
    <glyph glyph-name="Korea1.252" unicode="&#x266d;" horiz-adv-x="1058" vert-adv-y="2263" 
d="M856 543q0 -131 -42 -235t-107 -169q-184 -176 -504 -190v1362h129v-672q70 195 286 195q100 0 169 -80t69 -211zM705 469q0 111 -42 185t-108 75q-103 0 -163 -78t-60 -164v-438q145 9 259 113t114 307z" />
    <glyph glyph-name="Korea1.8594" unicode="&#x266f;" horiz-adv-x="1802" vert-adv-y="2263" 
 />
    <glyph glyph-name="Korea1.8631" unicode="&#x2716;" horiz-adv-x="1802" vert-adv-y="2263" 
 />
    <glyph glyph-name="Korea1.8630" unicode="&#x271a;" horiz-adv-x="1802" vert-adv-y="2263" 
 />
    <glyph glyph-name="Korea1.8604" unicode="&#x273d;" horiz-adv-x="1802" vert-adv-y="2263" 
 />
    <glyph glyph-name="Korea1.8637" unicode="&#x2756;" horiz-adv-x="1802" vert-adv-y="2263" 
 />
    <glyph glyph-name="Korea1.8673" unicode="&#x2776;" horiz-adv-x="1802" vert-adv-y="2263" 
 />
    <glyph glyph-name="Korea1.8674" unicode="&#x2777;" horiz-adv-x="1802" vert-adv-y="2263" 
 />
    <glyph glyph-name="Korea1.8675" unicode="&#x2778;" horiz-adv-x="1802" vert-adv-y="2263" 
 />
    <glyph glyph-name="Korea1.8676" unicode="&#x2779;" horiz-adv-x="1802" vert-adv-y="2263" 
 />
    <glyph glyph-name="Korea1.8677" unicode="&#x277a;" horiz-adv-x="1802" vert-adv-y="2263" 
 />
    <glyph glyph-name="Korea1.8678" unicode="&#x277b;" horiz-adv-x="1802" vert-adv-y="2263" 
 />
    <glyph glyph-name="Korea1.8679" unicode="&#x277c;" horiz-adv-x="1802" vert-adv-y="2263" 
 />
    <glyph glyph-name="Korea1.8680" unicode="&#x277d;" horiz-adv-x="1802" vert-adv-y="2263" 
 />
    <glyph glyph-name="Korea1.8681" unicode="&#x277e;" horiz-adv-x="1802" vert-adv-y="2263" 
 />
    <glyph glyph-name="Korea1.8682" unicode="&#x277f;" horiz-adv-x="1802" vert-adv-y="2263" 
 />
    <glyph glyph-name="Korea1.8342" unicode="&#x278a;" horiz-adv-x="1802" vert-adv-y="2263" 
 />
    <glyph glyph-name="Korea1.8343" unicode="&#x278b;" horiz-adv-x="1802" vert-adv-y="2263" 
 />
    <glyph glyph-name="Korea1.8344" unicode="&#x278c;" horiz-adv-x="1802" vert-adv-y="2263" 
 />
    <glyph glyph-name="Korea1.8345" unicode="&#x278d;" horiz-adv-x="1802" vert-adv-y="2263" 
 />
    <glyph glyph-name="Korea1.8346" unicode="&#x278e;" horiz-adv-x="1802" vert-adv-y="2263" 
 />
    <glyph glyph-name="Korea1.8347" unicode="&#x278f;" horiz-adv-x="1802" vert-adv-y="2263" 
 />
    <glyph glyph-name="Korea1.8348" unicode="&#x2790;" horiz-adv-x="1802" vert-adv-y="2263" 
 />
    <glyph glyph-name="Korea1.8349" unicode="&#x2791;" horiz-adv-x="1802" vert-adv-y="2263" 
 />
    <glyph glyph-name="Korea1.8350" unicode="&#x2792;" horiz-adv-x="1802" vert-adv-y="2263" 
 />
    <glyph glyph-name="Korea1.8351" unicode="&#x2793;" horiz-adv-x="1802" vert-adv-y="2263" 
 />
    <glyph glyph-name="Korea1.8485" unicode="&#x2ac5;" horiz-adv-x="1802" vert-adv-y="2263" 
 />
    <glyph glyph-name="Korea1.8487" unicode="&#x2ac6;" horiz-adv-x="1802" vert-adv-y="2263" 
 />
    <glyph glyph-name="Korea1.6460" unicode="&#x2f00;" horiz-adv-x="1802" vert-adv-y="2263" 
 />
    <glyph glyph-name="Korea1.6380" unicode="&#x2f04;" horiz-adv-x="1802" vert-adv-y="2263" 
 />
    <glyph glyph-name="Korea1.6413" unicode="&#x2f06;" horiz-adv-x="1802" vert-adv-y="2263" 
 />
    <glyph glyph-name="Korea1.6443" unicode="&#x2f08;" horiz-adv-x="1802" vert-adv-y="2263" 
 />
    <glyph glyph-name="Korea1.6477" unicode="&#x2f0a;" horiz-adv-x="1802" vert-adv-y="2263" 
 />
    <glyph glyph-name="Korea1.7499" unicode="&#x2f0b;" horiz-adv-x="1802" vert-adv-y="2263" 
 />
    <glyph glyph-name="Korea1.4270" unicode="&#x2f11;" horiz-adv-x="1802" vert-adv-y="2263" 
 />
    <glyph glyph-name="Korea1.4458" unicode="&#x2f12;" horiz-adv-x="1802" vert-adv-y="2263" 
 />
    <glyph glyph-name="Korea1.5183" unicode="&#x2f14;" horiz-adv-x="1802" vert-adv-y="2263" 
 />
    <glyph glyph-name="Korea1.5772" unicode="&#x2f17;" horiz-adv-x="1802" vert-adv-y="2263" 
 />
    <glyph glyph-name="Korea1.5077" unicode="&#x2f18;" horiz-adv-x="1802" vert-adv-y="2263" 
 />
    <glyph glyph-name="Korea1.6201" unicode="&#x2f1c;" horiz-adv-x="1802" vert-adv-y="2263" 
 />
    <glyph glyph-name="Korea1.3901" unicode="&#x2f1d;" horiz-adv-x="1802" vert-adv-y="2263" 
 />
    <glyph glyph-name="Korea1.7451" unicode="&#x2f1f;" horiz-adv-x="1802" vert-adv-y="2263" 
 />
    <glyph glyph-name="Korea1.5255" unicode="&#x2f20;" horiz-adv-x="1802" vert-adv-y="2263" 
 />
    <glyph glyph-name="Korea1.5403" unicode="&#x2f23;" horiz-adv-x="1802" vert-adv-y="2263" 
 />
    <glyph glyph-name="Korea1.4253" unicode="&#x2f24;" horiz-adv-x="1802" vert-adv-y="2263" 
 />
    <glyph glyph-name="Korea1.4159" unicode="&#x2f25;" horiz-adv-x="1802" vert-adv-y="2263" 
 />
    <glyph glyph-name="Korea1.6488" unicode="&#x2f26;" horiz-adv-x="1802" vert-adv-y="2263" 
 />
    <glyph glyph-name="Korea1.7247" unicode="&#x2f28;" horiz-adv-x="1802" vert-adv-y="2263" 
 />
    <glyph glyph-name="Korea1.5504" unicode="&#x2f29;" horiz-adv-x="1802" vert-adv-y="2263" 
 />
    <glyph glyph-name="Korea1.5697" unicode="&#x2f2b;" horiz-adv-x="1802" vert-adv-y="2263" 
 />
    <glyph glyph-name="Korea1.5305" unicode="&#x2f2d;" horiz-adv-x="1802" vert-adv-y="2263" 
 />
    <glyph glyph-name="Korea1.3791" unicode="&#x2f2f;" horiz-adv-x="1802" vert-adv-y="2263" 
 />
    <glyph glyph-name="Korea1.4077" unicode="&#x2f30;" horiz-adv-x="1802" vert-adv-y="2263" 
 />
    <glyph glyph-name="Korea1.3604" unicode="&#x2f31;" horiz-adv-x="1802" vert-adv-y="2263" 
 />
    <glyph glyph-name="Korea1.3481" unicode="&#x2f32;" horiz-adv-x="1802" vert-adv-y="2263" 
 />
    <glyph glyph-name="Korea1.3964" unicode="&#x2f38;" horiz-adv-x="1802" vert-adv-y="2263" 
 />
    <glyph glyph-name="Korea1.5764" unicode="&#x2f3c;" horiz-adv-x="1802" vert-adv-y="2263" 
 />
    <glyph glyph-name="Korea1.3804" unicode="&#x2f3d;" horiz-adv-x="1802" vert-adv-y="2263" 
 />
    <glyph glyph-name="Korea1.7808" unicode="&#x2f3e;" horiz-adv-x="1802" vert-adv-y="2263" 
 />
    <glyph glyph-name="Korea1.5580" unicode="&#x2f3f;" horiz-adv-x="1802" vert-adv-y="2263" 
 />
    <glyph glyph-name="Korea1.6951" unicode="&#x2f40;" horiz-adv-x="1802" vert-adv-y="2263" 
 />
    <glyph glyph-name="Korea1.4840" unicode="&#x2f42;" horiz-adv-x="1802" vert-adv-y="2263" 
 />
    <glyph glyph-name="Korea1.4349" unicode="&#x2f43;" horiz-adv-x="1802" vert-adv-y="2263" 
 />
    <glyph glyph-name="Korea1.4027" unicode="&#x2f44;" horiz-adv-x="1802" vert-adv-y="2263" 
 />
    <glyph glyph-name="Korea1.4950" unicode="&#x2f45;" horiz-adv-x="1802" vert-adv-y="2263" 
 />
    <glyph glyph-name="Korea1.4819" unicode="&#x2f46;" horiz-adv-x="1802" vert-adv-y="2263" 
 />
    <glyph glyph-name="Korea1.6464" unicode="&#x2f47;" horiz-adv-x="1802" vert-adv-y="2263" 
 />
    <glyph glyph-name="Korea1.6125" unicode="&#x2f48;" horiz-adv-x="1802" vert-adv-y="2263" 
 />
    <glyph glyph-name="Korea1.6281" unicode="&#x2f49;" horiz-adv-x="1802" vert-adv-y="2263" 
 />
    <glyph glyph-name="Korea1.4788" unicode="&#x2f4a;" horiz-adv-x="1802" vert-adv-y="2263" 
 />
    <glyph glyph-name="Korea1.8027" unicode="&#x2f4b;" horiz-adv-x="1802" vert-adv-y="2263" 
 />
    <glyph glyph-name="Korea1.6956" unicode="&#x2f4c;" horiz-adv-x="1802" vert-adv-y="2263" 
 />
    <glyph glyph-name="Korea1.4822" unicode="&#x2f4f;" horiz-adv-x="1802" vert-adv-y="2263" 
 />
    <glyph glyph-name="Korea1.5196" unicode="&#x2f50;" horiz-adv-x="1802" vert-adv-y="2263" 
 />
    <glyph glyph-name="Korea1.4776" unicode="&#x2f51;" horiz-adv-x="1802" vert-adv-y="2263" 
 />
    <glyph glyph-name="Korea1.5774" unicode="&#x2f52;" horiz-adv-x="1802" vert-adv-y="2263" 
 />
    <glyph glyph-name="Korea1.5587" unicode="&#x2f54;" horiz-adv-x="1802" vert-adv-y="2263" 
 />
    <glyph glyph-name="Korea1.7867" unicode="&#x2f55;" horiz-adv-x="1802" vert-adv-y="2263" 
 />
    <glyph glyph-name="Korea1.6803" unicode="&#x2f56;" horiz-adv-x="1802" vert-adv-y="2263" 
 />
    <glyph glyph-name="Korea1.5129" unicode="&#x2f57;" horiz-adv-x="1802" vert-adv-y="2263" 
 />
    <glyph glyph-name="Korea1.7962" unicode="&#x2f58;" horiz-adv-x="1802" vert-adv-y="2263" 
 />
    <glyph glyph-name="Korea1.7521" unicode="&#x2f5a;" horiz-adv-x="1802" vert-adv-y="2263" 
 />
    <glyph glyph-name="Korea1.5782" unicode="&#x2f5b;" horiz-adv-x="1802" vert-adv-y="2263" 
 />
    <glyph glyph-name="Korea1.6210" unicode="&#x2f5c;" horiz-adv-x="1802" vert-adv-y="2263" 
 />
    <glyph glyph-name="Korea1.3639" unicode="&#x2f5d;" horiz-adv-x="1802" vert-adv-y="2263" 
 />
    <glyph glyph-name="Korea1.7741" unicode="&#x2f5e;" horiz-adv-x="1802" vert-adv-y="2263" 
 />
    <glyph glyph-name="Korea1.6081" unicode="&#x2f5f;" horiz-adv-x="1802" vert-adv-y="2263" 
 />
    <glyph glyph-name="Korea1.3806" unicode="&#x2f60;" horiz-adv-x="1802" vert-adv-y="2263" 
 />
    <glyph glyph-name="Korea1.6100" unicode="&#x2f61;" horiz-adv-x="1802" vert-adv-y="2263" 
 />
    <glyph glyph-name="Korea1.3521" unicode="&#x2f62;" horiz-adv-x="1802" vert-adv-y="2263" 
 />
    <glyph glyph-name="Korea1.5370" unicode="&#x2f63;" horiz-adv-x="1802" vert-adv-y="2263" 
 />
    <glyph glyph-name="Korea1.6189" unicode="&#x2f64;" horiz-adv-x="1802" vert-adv-y="2263" 
 />
    <glyph glyph-name="Korea1.6664" unicode="&#x2f65;" horiz-adv-x="1802" vert-adv-y="2263" 
 />
    <glyph glyph-name="Korea1.7610" unicode="&#x2f66;" horiz-adv-x="1802" vert-adv-y="2263" 
 />
    <glyph glyph-name="Korea1.4993" unicode="&#x2f69;" horiz-adv-x="1802" vert-adv-y="2263" 
 />
    <glyph glyph-name="Korea1.7600" unicode="&#x2f6a;" horiz-adv-x="1802" vert-adv-y="2263" 
 />
    <glyph glyph-name="Korea1.4755" unicode="&#x2f6b;" horiz-adv-x="1802" vert-adv-y="2263" 
 />
    <glyph glyph-name="Korea1.4791" unicode="&#x2f6c;" horiz-adv-x="1802" vert-adv-y="2263" 
 />
    <glyph glyph-name="Korea1.4781" unicode="&#x2f6d;" horiz-adv-x="1802" vert-adv-y="2263" 
 />
    <glyph glyph-name="Korea1.5709" unicode="&#x2f6e;" horiz-adv-x="1802" vert-adv-y="2263" 
 />
    <glyph glyph-name="Korea1.5413" unicode="&#x2f6f;" horiz-adv-x="1802" vert-adv-y="2263" 
 />
    <glyph glyph-name="Korea1.5710" unicode="&#x2f70;" horiz-adv-x="1802" vert-adv-y="2263" 
 />
    <glyph glyph-name="Korea1.7870" unicode="&#x2f72;" horiz-adv-x="1802" vert-adv-y="2263" 
 />
    <glyph glyph-name="Korea1.7755" unicode="&#x2f73;" horiz-adv-x="1802" vert-adv-y="2263" 
 />
    <glyph glyph-name="Korea1.4653" unicode="&#x2f74;" horiz-adv-x="1802" vert-adv-y="2263" 
 />
    <glyph glyph-name="Korea1.6900" unicode="&#x2f75;" horiz-adv-x="1802" vert-adv-y="2263" 
 />
    <glyph glyph-name="Korea1.4863" unicode="&#x2f76;" horiz-adv-x="1802" vert-adv-y="2263" 
 />
    <glyph glyph-name="Korea1.5132" unicode="&#x2f78;" horiz-adv-x="1802" vert-adv-y="2263" 
 />
    <glyph glyph-name="Korea1.5896" unicode="&#x2f7a;" horiz-adv-x="1802" vert-adv-y="2263" 
 />
    <glyph glyph-name="Korea1.6218" unicode="&#x2f7b;" horiz-adv-x="1802" vert-adv-y="2263" 
 />
    <glyph glyph-name="Korea1.4519" unicode="&#x2f7c;" horiz-adv-x="1802" vert-adv-y="2263" 
 />
    <glyph glyph-name="Korea1.6427" unicode="&#x2f7d;" horiz-adv-x="1802" vert-adv-y="2263" 
 />
    <glyph glyph-name="Korea1.6428" unicode="&#x2f7f;" horiz-adv-x="1802" vert-adv-y="2263" 
 />
    <glyph glyph-name="Korea1.6368" unicode="&#x2f80;" horiz-adv-x="1802" vert-adv-y="2263" 
 />
    <glyph glyph-name="Korea1.6357" unicode="&#x2f81;" horiz-adv-x="1802" vert-adv-y="2263" 
 />
    <glyph glyph-name="Korea1.5749" unicode="&#x2f82;" horiz-adv-x="1802" vert-adv-y="2263" 
 />
    <glyph glyph-name="Korea1.6502" unicode="&#x2f83;" horiz-adv-x="1802" vert-adv-y="2263" 
 />
    <glyph glyph-name="Korea1.6967" unicode="&#x2f84;" horiz-adv-x="1802" vert-adv-y="2263" 
 />
    <glyph glyph-name="Korea1.3930" unicode="&#x2f85;" horiz-adv-x="1802" vert-adv-y="2263" 
 />
    <glyph glyph-name="Korea1.5456" unicode="&#x2f86;" horiz-adv-x="1802" vert-adv-y="2263" 
 />
    <glyph glyph-name="Korea1.7158" unicode="&#x2f87;" horiz-adv-x="1802" vert-adv-y="2263" 
 />
    <glyph glyph-name="Korea1.6888" unicode="&#x2f88;" horiz-adv-x="1802" vert-adv-y="2263" 
 />
    <glyph glyph-name="Korea1.3496" unicode="&#x2f89;" horiz-adv-x="1802" vert-adv-y="2263" 
 />
    <glyph glyph-name="Korea1.5368" unicode="&#x2f8a;" horiz-adv-x="1802" vert-adv-y="2263" 
 />
    <glyph glyph-name="Korea1.7232" unicode="&#x2f8b;" horiz-adv-x="1802" vert-adv-y="2263" 
 />
    <glyph glyph-name="Korea1.7756" unicode="&#x2f8e;" horiz-adv-x="1802" vert-adv-y="2263" 
 />
    <glyph glyph-name="Korea1.7709" unicode="&#x2f8f;" horiz-adv-x="1802" vert-adv-y="2263" 
 />
    <glyph glyph-name="Korea1.6409" unicode="&#x2f90;" horiz-adv-x="1802" vert-adv-y="2263" 
 />
    <glyph glyph-name="Korea1.3644" unicode="&#x2f92;" horiz-adv-x="1802" vert-adv-y="2263" 
 />
    <glyph glyph-name="Korea1.3474" unicode="&#x2f93;" horiz-adv-x="1802" vert-adv-y="2263" 
 />
    <glyph glyph-name="Korea1.5921" unicode="&#x2f94;" horiz-adv-x="1802" vert-adv-y="2263" 
 />
    <glyph glyph-name="Korea1.3772" unicode="&#x2f95;" horiz-adv-x="1802" vert-adv-y="2263" 
 />
    <glyph glyph-name="Korea1.4355" unicode="&#x2f96;" horiz-adv-x="1802" vert-adv-y="2263" 
 />
    <glyph glyph-name="Korea1.5718" unicode="&#x2f97;" horiz-adv-x="1802" vert-adv-y="2263" 
 />
    <glyph glyph-name="Korea1.7512" unicode="&#x2f99;" horiz-adv-x="1802" vert-adv-y="2263" 
 />
    <glyph glyph-name="Korea1.6636" unicode="&#x2f9a;" horiz-adv-x="1802" vert-adv-y="2263" 
 />
    <glyph glyph-name="Korea1.6892" unicode="&#x2f9b;" horiz-adv-x="1802" vert-adv-y="2263" 
 />
    <glyph glyph-name="Korea1.6830" unicode="&#x2f9c;" horiz-adv-x="1802" vert-adv-y="2263" 
 />
    <glyph glyph-name="Korea1.5755" unicode="&#x2f9d;" horiz-adv-x="1802" vert-adv-y="2263" 
 />
    <glyph glyph-name="Korea1.7053" unicode="&#x2f9e;" horiz-adv-x="1802" vert-adv-y="2263" 
 />
    <glyph glyph-name="Korea1.5756" unicode="&#x2f9f;" horiz-adv-x="1802" vert-adv-y="2263" 
 />
    <glyph glyph-name="Korea1.7009" unicode="&#x2fa0;" horiz-adv-x="1802" vert-adv-y="2263" 
 />
    <glyph glyph-name="Korea1.6389" unicode="&#x2fa2;" horiz-adv-x="1802" vert-adv-y="2263" 
 />
    <glyph glyph-name="Korea1.6352" unicode="&#x2fa3;" horiz-adv-x="1802" vert-adv-y="2263" 
 />
    <glyph glyph-name="Korea1.4634" unicode="&#x2fa5;" horiz-adv-x="1802" vert-adv-y="2263" 
 />
    <glyph glyph-name="Korea1.4131" unicode="&#x2fa6;" horiz-adv-x="1802" vert-adv-y="2263" 
 />
    <glyph glyph-name="Korea1.6568" unicode="&#x2fa7;" horiz-adv-x="1802" vert-adv-y="2263" 
 />
    <glyph glyph-name="Korea1.4846" unicode="&#x2fa8;" horiz-adv-x="1802" vert-adv-y="2263" 
 />
    <glyph glyph-name="Korea1.5147" unicode="&#x2fa9;" horiz-adv-x="1802" vert-adv-y="2263" 
 />
    <glyph glyph-name="Korea1.6227" unicode="&#x2fac;" horiz-adv-x="1802" vert-adv-y="2263" 
 />
    <glyph glyph-name="Korea1.7203" unicode="&#x2fad;" horiz-adv-x="1802" vert-adv-y="2263" 
 />
    <glyph glyph-name="Korea1.5220" unicode="&#x2fae;" horiz-adv-x="1802" vert-adv-y="2263" 
 />
    <glyph glyph-name="Korea1.4744" unicode="&#x2faf;" horiz-adv-x="1802" vert-adv-y="2263" 
 />
    <glyph glyph-name="Korea1.7733" unicode="&#x2fb0;" horiz-adv-x="1802" vert-adv-y="2263" 
 />
    <glyph glyph-name="Korea1.6307" unicode="&#x2fb1;" horiz-adv-x="1802" vert-adv-y="2263" 
 />
    <glyph glyph-name="Korea1.6385" unicode="&#x2fb3;" horiz-adv-x="1802" vert-adv-y="2263" 
 />
    <glyph glyph-name="Korea1.7757" unicode="&#x2fb4;" horiz-adv-x="1802" vert-adv-y="2263" 
 />
    <glyph glyph-name="Korea1.7595" unicode="&#x2fb5;" horiz-adv-x="1802" vert-adv-y="2263" 
 />
    <glyph glyph-name="Korea1.5221" unicode="&#x2fb6;" horiz-adv-x="1802" vert-adv-y="2263" 
 />
    <glyph glyph-name="Korea1.5733" unicode="&#x2fb7;" horiz-adv-x="1802" vert-adv-y="2263" 
 />
    <glyph glyph-name="Korea1.5625" unicode="&#x2fb8;" horiz-adv-x="1802" vert-adv-y="2263" 
 />
    <glyph glyph-name="Korea1.7718" unicode="&#x2fb9;" horiz-adv-x="1802" vert-adv-y="2263" 
 />
    <glyph glyph-name="Korea1.4661" unicode="&#x2fba;" horiz-adv-x="1802" vert-adv-y="2263" 
 />
    <glyph glyph-name="Korea1.3785" unicode="&#x2fbb;" horiz-adv-x="1802" vert-adv-y="2263" 
 />
    <glyph glyph-name="Korea1.3765" unicode="&#x2fbc;" horiz-adv-x="1802" vert-adv-y="2263" 
 />
    <glyph glyph-name="Korea1.3993" unicode="&#x2fc1;" horiz-adv-x="1802" vert-adv-y="2263" 
 />
    <glyph glyph-name="Korea1.5910" unicode="&#x2fc2;" horiz-adv-x="1802" vert-adv-y="2263" 
 />
    <glyph glyph-name="Korea1.6827" unicode="&#x2fc3;" horiz-adv-x="1802" vert-adv-y="2263" 
 />
    <glyph glyph-name="Korea1.4527" unicode="&#x2fc4;" horiz-adv-x="1802" vert-adv-y="2263" 
 />
    <glyph glyph-name="Korea1.4533" unicode="&#x2fc5;" horiz-adv-x="1802" vert-adv-y="2263" 
 />
    <glyph glyph-name="Korea1.4726" unicode="&#x2fc6;" horiz-adv-x="1802" vert-adv-y="2263" 
 />
    <glyph glyph-name="Korea1.4663" unicode="&#x2fc7;" horiz-adv-x="1802" vert-adv-y="2263" 
 />
    <glyph glyph-name="Korea1.7927" unicode="&#x2fc8;" horiz-adv-x="1802" vert-adv-y="2263" 
 />
    <glyph glyph-name="Korea1.5401" unicode="&#x2fc9;" horiz-adv-x="1802" vert-adv-y="2263" 
 />
    <glyph glyph-name="Korea1.8018" unicode="&#x2fca;" horiz-adv-x="1802" vert-adv-y="2263" 
 />
    <glyph glyph-name="Korea1.6758" unicode="&#x2fcd;" horiz-adv-x="1802" vert-adv-y="2263" 
 />
    <glyph glyph-name="Korea1.3766" unicode="&#x2fce;" horiz-adv-x="1802" vert-adv-y="2263" 
 />
    <glyph glyph-name="Korea1.5402" unicode="&#x2fcf;" horiz-adv-x="1802" vert-adv-y="2263" 
 />
    <glyph glyph-name="Korea1.5222" unicode="&#x2fd0;" horiz-adv-x="1802" vert-adv-y="2263" 
 />
    <glyph glyph-name="Korea1.6781" unicode="&#x2fd1;" horiz-adv-x="1802" vert-adv-y="2263" 
 />
    <glyph glyph-name="Korea1.7359" unicode="&#x2fd2;" horiz-adv-x="1802" vert-adv-y="2263" 
 />
    <glyph glyph-name="Korea1.4563" unicode="&#x2fd3;" horiz-adv-x="1802" vert-adv-y="2263" 
 />
    <glyph glyph-name="Korea1.3946" unicode="&#x2fd4;" horiz-adv-x="1802" vert-adv-y="2263" 
 />
    <glyph glyph-name="Korea1.101" unicode="&#x3000;" vert-adv-y="2263" 
 />
    <glyph glyph-name="Korea1.102" unicode="&#x3001;" vert-adv-y="2263" 
d="M649 -119l-108 -94q-105 143 -185 228t-200 180l94 77q131 -98 212 -177t187 -214z" />
    </font>
</defs>
</svg>
